%TF.GenerationSoftware,KiCad,Pcbnew,7.0.9*%
%TF.CreationDate,2024-05-07T23:03:20-04:00*%
%TF.ProjectId,Winder_V1,57696e64-6572-45f5-9631-2e6b69636164,rev?*%
%TF.SameCoordinates,Original*%
%TF.FileFunction,Copper,L2,Bot*%
%TF.FilePolarity,Positive*%
%FSLAX46Y46*%
G04 Gerber Fmt 4.6, Leading zero omitted, Abs format (unit mm)*
G04 Created by KiCad (PCBNEW 7.0.9) date 2024-05-07 23:03:20*
%MOMM*%
%LPD*%
G01*
G04 APERTURE LIST*
%TA.AperFunction,ComponentPad*%
%ADD10C,1.600000*%
%TD*%
%TA.AperFunction,ComponentPad*%
%ADD11O,1.600000X1.600000*%
%TD*%
%TA.AperFunction,ComponentPad*%
%ADD12R,1.700000X1.700000*%
%TD*%
%TA.AperFunction,ComponentPad*%
%ADD13O,1.700000X1.700000*%
%TD*%
%TA.AperFunction,ComponentPad*%
%ADD14R,1.905000X2.000000*%
%TD*%
%TA.AperFunction,ComponentPad*%
%ADD15O,1.905000X2.000000*%
%TD*%
%TA.AperFunction,ComponentPad*%
%ADD16R,1.408000X1.408000*%
%TD*%
%TA.AperFunction,ComponentPad*%
%ADD17C,1.408000*%
%TD*%
%TA.AperFunction,ComponentPad*%
%ADD18R,1.800000X1.800000*%
%TD*%
%TA.AperFunction,ComponentPad*%
%ADD19C,1.800000*%
%TD*%
%TA.AperFunction,ComponentPad*%
%ADD20R,1.500000X1.500000*%
%TD*%
%TA.AperFunction,ComponentPad*%
%ADD21C,1.500000*%
%TD*%
%TA.AperFunction,ComponentPad*%
%ADD22R,2.400000X2.400000*%
%TD*%
%TA.AperFunction,ComponentPad*%
%ADD23C,2.400000*%
%TD*%
%TA.AperFunction,ViaPad*%
%ADD24C,0.800000*%
%TD*%
%TA.AperFunction,Conductor*%
%ADD25C,0.500000*%
%TD*%
%TA.AperFunction,Conductor*%
%ADD26C,0.750000*%
%TD*%
%TA.AperFunction,Conductor*%
%ADD27C,0.250000*%
%TD*%
G04 APERTURE END LIST*
D10*
%TO.P,R1,1*%
%TO.N,Net-(D1-A)*%
X160020000Y-88392000D03*
D11*
%TO.P,R1,2*%
%TO.N,+5V*%
X160020000Y-78232000D03*
%TD*%
D12*
%TO.P,J1\u002CI2CScreen1,1,Pin_1*%
%TO.N,+3.3V*%
X151892000Y-45476000D03*
D13*
%TO.P,J1\u002CI2CScreen1,2,Pin_2*%
%TO.N,GND*%
X151892000Y-48016000D03*
%TO.P,J1\u002CI2CScreen1,3,Pin_3*%
%TO.N,/SCL*%
X151892000Y-50556000D03*
%TO.P,J1\u002CI2CScreen1,4,Pin_4*%
%TO.N,/SDA*%
X151892000Y-53096000D03*
%TD*%
D12*
%TO.P,J6\u002CUSBJumper1,1,Pin_1*%
%TO.N,+5V*%
X155906000Y-89974000D03*
D13*
%TO.P,J6\u002CUSBJumper1,2,Pin_2*%
%TO.N,Net-(J6\u002CUSBJumper1-Pin_2)*%
X153366000Y-89974000D03*
%TO.P,J6\u002CUSBJumper1,3,Pin_3*%
%TO.N,unconnected-(J6\u002CUSBJumper1-Pin_3-Pad3)*%
X150826000Y-89974000D03*
%TD*%
D14*
%TO.P,U2,1,IN*%
%TO.N,Net-(J4\u002CPowerIn1-Pin_2)*%
X168656000Y-61031000D03*
D15*
%TO.P,U2,2,GND*%
%TO.N,GND*%
X166116000Y-61031000D03*
%TO.P,U2,3,OUT*%
%TO.N,+5V*%
X163576000Y-61031000D03*
%TD*%
D16*
%TO.P,U1,J2_1,3V3*%
%TO.N,+3.3V*%
X118850000Y-45210000D03*
D17*
%TO.P,U1,J2_2,EN*%
%TO.N,unconnected-(U1-EN-PadJ2_2)*%
X118850000Y-47750000D03*
%TO.P,U1,J2_3,SENSOR_VP*%
%TO.N,/EncA*%
X118850000Y-50290000D03*
%TO.P,U1,J2_4,SENSOR_VN*%
%TO.N,/EncB*%
X118850000Y-52830000D03*
%TO.P,U1,J2_5,IO34*%
%TO.N,/EncSW*%
X118850000Y-55370000D03*
%TO.P,U1,J2_6,IO35*%
%TO.N,/Enable*%
X118850000Y-57910000D03*
%TO.P,U1,J2_7,IO32*%
%TO.N,/JoyX*%
X118850000Y-60450000D03*
%TO.P,U1,J2_8,IO33*%
%TO.N,/JoyY*%
X118850000Y-62990000D03*
%TO.P,U1,J2_9,IO25*%
%TO.N,/Sensor*%
X118850000Y-65530000D03*
%TO.P,U1,J2_10,IO26*%
%TO.N,/Pot*%
X118850000Y-68070000D03*
%TO.P,U1,J2_11,IO27*%
%TO.N,/JoyB*%
X118850000Y-70610000D03*
%TO.P,U1,J2_12,IO14*%
%TO.N,/JoyPot*%
X118850000Y-73150000D03*
%TO.P,U1,J2_13,IO12*%
%TO.N,/JoySW*%
X118850000Y-75690000D03*
%TO.P,U1,J2_14,GND_J2_14*%
%TO.N,GND*%
X118850000Y-78230000D03*
%TO.P,U1,J2_15,IO13*%
%TO.N,unconnected-(U1-IO13-PadJ2_15)*%
X118850000Y-80770000D03*
%TO.P,U1,J2_16,SD2*%
%TO.N,unconnected-(U1-SD2-PadJ2_16)*%
X118850000Y-83310000D03*
%TO.P,U1,J2_17,SD3*%
%TO.N,unconnected-(U1-SD3-PadJ2_17)*%
X118850000Y-85850000D03*
%TO.P,U1,J2_18,CMD*%
%TO.N,unconnected-(U1-CMD-PadJ2_18)*%
X118850000Y-88390000D03*
%TO.P,U1,J2_19,EXT_5V*%
%TO.N,Net-(J6\u002CUSBJumper1-Pin_2)*%
X118850000Y-90930000D03*
%TO.P,U1,J3_1,GND_J3_1*%
%TO.N,GND*%
X144250000Y-45210000D03*
%TO.P,U1,J3_2,IO23*%
%TO.N,/MOSI*%
X144250000Y-47750000D03*
%TO.P,U1,J3_3,IO22*%
%TO.N,/SCL*%
X144250000Y-50290000D03*
%TO.P,U1,J3_4,TXD0*%
%TO.N,unconnected-(U1-TXD0-PadJ3_4)*%
X144250000Y-52830000D03*
%TO.P,U1,J3_5,RXD0*%
%TO.N,unconnected-(U1-RXD0-PadJ3_5)*%
X144250000Y-55370000D03*
%TO.P,U1,J3_6,IO21*%
%TO.N,/SDA*%
X144250000Y-57910000D03*
%TO.P,U1,J3_7,GND_J3_7*%
%TO.N,unconnected-(U1-GND_J3_7-PadJ3_7)*%
X144250000Y-60450000D03*
%TO.P,U1,J3_8,IO19*%
%TO.N,/MISO*%
X144250000Y-62990000D03*
%TO.P,U1,J3_9,IO18*%
%TO.N,/SCK*%
X144250000Y-65530000D03*
%TO.P,U1,J3_10,IO5*%
%TO.N,/CS*%
X144250000Y-68070000D03*
%TO.P,U1,J3_11,IO17*%
%TO.N,/Servo*%
X144250000Y-70610000D03*
%TO.P,U1,J3_12,IO16*%
%TO.N,/Motor*%
X144250000Y-73150000D03*
%TO.P,U1,J3_13,IO4*%
%TO.N,/RST*%
X144250000Y-75690000D03*
%TO.P,U1,J3_14,IO0*%
%TO.N,unconnected-(U1-IO0-PadJ3_14)*%
X144250000Y-78230000D03*
%TO.P,U1,J3_15,IO2*%
%TO.N,/DC*%
X144250000Y-80770000D03*
%TO.P,U1,J3_16,IO15*%
%TO.N,unconnected-(U1-IO15-PadJ3_16)*%
X144250000Y-83310000D03*
%TO.P,U1,J3_17,SD1*%
%TO.N,unconnected-(U1-SD1-PadJ3_17)*%
X144250000Y-85850000D03*
%TO.P,U1,J3_18,SD0*%
%TO.N,unconnected-(U1-SD0-PadJ3_18)*%
X144250000Y-88390000D03*
%TO.P,U1,J3_19,CLK*%
%TO.N,unconnected-(U1-CLK-PadJ3_19)*%
X144250000Y-90930000D03*
%TD*%
D18*
%TO.P,D1,1,K*%
%TO.N,GND*%
X167391000Y-88392000D03*
D19*
%TO.P,D1,2,A*%
%TO.N,Net-(D1-A)*%
X164851000Y-88392000D03*
%TD*%
D12*
%TO.P,J2,1,Pin_1*%
%TO.N,+3.3V*%
X157988000Y-45212000D03*
D13*
%TO.P,J2,2,Pin_2*%
%TO.N,GND*%
X157988000Y-47752000D03*
%TO.P,J2,3,Pin_3*%
%TO.N,/CS*%
X157988000Y-50292000D03*
%TO.P,J2,4,Pin_4*%
%TO.N,/RST*%
X157988000Y-52832000D03*
%TO.P,J2,5,Pin_5*%
%TO.N,/DC*%
X157988000Y-55372000D03*
%TO.P,J2,6,Pin_6*%
%TO.N,/MOSI*%
X157988000Y-57912000D03*
%TO.P,J2,7,Pin_7*%
%TO.N,/SCK*%
X157988000Y-60452000D03*
%TO.P,J2,8,Pin_8*%
%TO.N,+3.3V*%
X157988000Y-62992000D03*
%TO.P,J2,9,Pin_9*%
%TO.N,/MISO*%
X157988000Y-65532000D03*
%TD*%
D20*
%TO.P,J1,1*%
%TO.N,+3.3V*%
X103413500Y-82784000D03*
D21*
%TO.P,J1,2*%
%TO.N,GND*%
X104683500Y-80244000D03*
%TO.P,J1,3*%
%TO.N,/JoyX*%
X105953500Y-82784000D03*
%TO.P,J1,4*%
%TO.N,/JoyY*%
X107223500Y-80244000D03*
%TO.P,J1,5*%
%TO.N,/JoyB*%
X108493500Y-82784000D03*
%TO.P,J1,6*%
%TO.N,/JoySW*%
X109763500Y-80244000D03*
%TO.P,J1,7*%
%TO.N,/JoyPot*%
X111033500Y-82784000D03*
%TO.P,J1,8*%
%TO.N,unconnected-(J1-Pad8)*%
X112303500Y-80244000D03*
%TD*%
D22*
%TO.P,J4\u002CPowerIn2,1,Pin_1*%
%TO.N,GND*%
X166778000Y-81562000D03*
D23*
%TO.P,J4\u002CPowerIn2,2,Pin_2*%
%TO.N,Net-(J4\u002CPowerIn1-Pin_2)*%
X166778000Y-78062000D03*
%TD*%
D12*
%TO.P,J5\u002CSpeedPot1,1,Pin_1*%
%TO.N,+3.3V*%
X104000000Y-62475000D03*
D13*
%TO.P,J5\u002CSpeedPot1,2,Pin_2*%
%TO.N,/Pot*%
X104000000Y-65015000D03*
%TO.P,J5\u002CSpeedPot1,3,Pin_3*%
%TO.N,GND*%
X104000000Y-67555000D03*
%TD*%
D22*
%TO.P,J4\u002CPowerIn1,1,Pin_1*%
%TO.N,GND*%
X166878000Y-71628000D03*
D23*
%TO.P,J4\u002CPowerIn1,2,Pin_2*%
%TO.N,Net-(J4\u002CPowerIn1-Pin_2)*%
X166878000Y-68128000D03*
%TD*%
D12*
%TO.P,J2\u002CPowerSW1,1,Pin_1*%
%TO.N,+3.3V*%
X110250000Y-62475000D03*
D13*
%TO.P,J2\u002CPowerSW1,2,Pin_2*%
%TO.N,/Enable*%
X110250000Y-65015000D03*
%TO.P,J2\u002CPowerSW1,3,Pin_3*%
%TO.N,GND*%
X110250000Y-67555000D03*
%TD*%
D12*
%TO.P,J1\u002CServoDrive1,1,Pin_1*%
%TO.N,/Servo*%
X150876000Y-72644000D03*
D13*
%TO.P,J1\u002CServoDrive1,2,Pin_2*%
%TO.N,+5V*%
X153416000Y-72644000D03*
%TO.P,J1\u002CServoDrive1,3,Pin_3*%
%TO.N,GND*%
X155956000Y-72644000D03*
%TD*%
D12*
%TO.P,J1\u002CRotaryEnc1,1,Pin_1*%
%TO.N,/EncA*%
X110490000Y-45750000D03*
D13*
%TO.P,J1\u002CRotaryEnc1,2,Pin_2*%
%TO.N,/EncB*%
X110490000Y-48290000D03*
%TO.P,J1\u002CRotaryEnc1,3,Pin_3*%
%TO.N,/EncSW*%
X110490000Y-50830000D03*
%TO.P,J1\u002CRotaryEnc1,4,Pin_4*%
%TO.N,+3.3V*%
X110490000Y-53370000D03*
%TO.P,J1\u002CRotaryEnc1,5,Pin_5*%
%TO.N,GND*%
X110490000Y-55910000D03*
%TD*%
D12*
%TO.P,J3SensorDrive1,1,Pin_1*%
%TO.N,/Sensor*%
X150891000Y-84836000D03*
D13*
%TO.P,J3SensorDrive1,2,Pin_2*%
%TO.N,+5V*%
X153431000Y-84836000D03*
%TO.P,J3SensorDrive1,3,Pin_3*%
%TO.N,GND*%
X155971000Y-84836000D03*
%TD*%
D12*
%TO.P,J2\u002CMotorDrive1,1,Pin_1*%
%TO.N,/Motor*%
X150891000Y-78740000D03*
D13*
%TO.P,J2\u002CMotorDrive1,2,Pin_2*%
%TO.N,+5V*%
X153431000Y-78740000D03*
%TO.P,J2\u002CMotorDrive1,3,Pin_3*%
%TO.N,GND*%
X155971000Y-78740000D03*
%TD*%
D24*
%TO.N,/Pot*%
X107000000Y-65750000D03*
%TD*%
D25*
%TO.N,+3.3V*%
X113254000Y-53370000D02*
X110490000Y-53370000D01*
X114300000Y-52324000D02*
X113254000Y-53370000D01*
X114300000Y-46736000D02*
X114300000Y-52324000D01*
X118850000Y-45210000D02*
X115826000Y-45210000D01*
X115826000Y-45210000D02*
X114300000Y-46736000D01*
%TO.N,GND*%
X104000000Y-67547918D02*
X107020418Y-64527500D01*
X157724000Y-48016000D02*
X157988000Y-47752000D01*
X121750000Y-58928000D02*
X121750000Y-75330000D01*
X104000000Y-79560500D02*
X104683500Y-80244000D01*
X151892000Y-48016000D02*
X157724000Y-48016000D01*
X119906000Y-56642000D02*
X120024000Y-56524000D01*
X157988000Y-47752000D02*
X161036000Y-50800000D01*
X107000000Y-64305000D02*
X107222500Y-64527500D01*
D26*
X155956000Y-72644000D02*
X155956000Y-78725000D01*
D25*
X107020418Y-64527500D02*
X107020418Y-59379582D01*
X161036000Y-50800000D02*
X161036000Y-67564000D01*
X111222000Y-56642000D02*
X119906000Y-56642000D01*
X121750000Y-58928000D02*
X121750000Y-55034000D01*
X149086000Y-45210000D02*
X151892000Y-48016000D01*
D26*
X155956000Y-78725000D02*
X155971000Y-78740000D01*
D25*
X104000000Y-67555000D02*
X104000000Y-67547918D01*
X121750000Y-75330000D02*
X118850000Y-78230000D01*
X104000000Y-67555000D02*
X104000000Y-79560500D01*
X161036000Y-67564000D02*
X155956000Y-72644000D01*
X120024000Y-56524000D02*
X121750000Y-58250000D01*
D26*
X155971000Y-78740000D02*
X155971000Y-84836000D01*
D25*
X110490000Y-55910000D02*
X111222000Y-56642000D01*
X131574000Y-45210000D02*
X144250000Y-45210000D01*
X121750000Y-55034000D02*
X131574000Y-45210000D01*
X107020418Y-64527500D02*
X107222500Y-64527500D01*
X144250000Y-45210000D02*
X149086000Y-45210000D01*
X107222500Y-64527500D02*
X110250000Y-67555000D01*
X121750000Y-58250000D02*
X121750000Y-58928000D01*
X107020418Y-59379582D02*
X110490000Y-55910000D01*
D27*
%TO.N,/JoyX*%
X105953500Y-73878500D02*
X105953500Y-82784000D01*
X107711000Y-72121000D02*
X105953500Y-73878500D01*
X118850000Y-60450000D02*
X120000000Y-61600000D01*
X118794226Y-72121000D02*
X107711000Y-72121000D01*
X120000000Y-70915226D02*
X118794226Y-72121000D01*
X120000000Y-61600000D02*
X120000000Y-70915226D01*
D26*
%TO.N,+5V*%
X153431000Y-84836000D02*
X153431000Y-78740000D01*
X153431000Y-86883000D02*
X153431000Y-84836000D01*
X153431000Y-78740000D02*
X153431000Y-72659000D01*
X155906000Y-89974000D02*
X155906000Y-89358000D01*
X155906000Y-89358000D02*
X153431000Y-86883000D01*
X153431000Y-72659000D02*
X153416000Y-72644000D01*
D27*
%TO.N,/MOSI*%
X148336000Y-55880000D02*
X150368000Y-57912000D01*
X150368000Y-57912000D02*
X157988000Y-57912000D01*
X144250000Y-47750000D02*
X148336000Y-51836000D01*
X148336000Y-51836000D02*
X148336000Y-55880000D01*
%TO.N,/SCK*%
X144250000Y-65530000D02*
X148846000Y-65530000D01*
X148846000Y-65530000D02*
X153924000Y-60452000D01*
X153924000Y-60452000D02*
X157988000Y-60452000D01*
%TO.N,/MISO*%
X142240000Y-65000000D02*
X142240000Y-66548000D01*
X142733000Y-67041000D02*
X156479000Y-67041000D01*
X156479000Y-67041000D02*
X157988000Y-65532000D01*
X144250000Y-62990000D02*
X142240000Y-65000000D01*
X142240000Y-66548000D02*
X142733000Y-67041000D01*
%TO.N,/Motor*%
X144250000Y-73150000D02*
X149840000Y-78740000D01*
X149840000Y-78740000D02*
X150891000Y-78740000D01*
D26*
%TO.N,Net-(J4\u002CPowerIn1-Pin_2)*%
X169418000Y-70668000D02*
X166878000Y-68128000D01*
X169418000Y-75422000D02*
X169418000Y-70668000D01*
X166778000Y-78062000D02*
X169418000Y-75422000D01*
D27*
%TO.N,/Pot*%
X117420000Y-69500000D02*
X118850000Y-68070000D01*
X109000000Y-69500000D02*
X117420000Y-69500000D01*
X107000000Y-65750000D02*
X107000000Y-67500000D01*
X107000000Y-67500000D02*
X109000000Y-69500000D01*
%TO.N,/Servo*%
X148842000Y-70610000D02*
X150876000Y-72644000D01*
X144250000Y-70610000D02*
X148842000Y-70610000D01*
%TD*%
M02*
