%TF.GenerationSoftware,KiCad,Pcbnew,7.0.9*%
%TF.CreationDate,2024-05-07T23:03:17-04:00*%
%TF.ProjectId,Winder_V1,57696e64-6572-45f5-9631-2e6b69636164,rev?*%
%TF.SameCoordinates,Original*%
%TF.FileFunction,Drillmap*%
%TF.FilePolarity,Positive*%
%FSLAX45Y45*%
G04 Gerber Fmt 4.5, Leading zero omitted, Abs format (unit mm)*
G04 Created by KiCad (PCBNEW 7.0.9) date 2024-05-07 23:03:17*
%MOMM*%
%LPD*%
G01*
G04 APERTURE LIST*
%ADD10C,0.100000*%
%ADD11C,0.200000*%
%ADD12C,0.110000*%
%ADD13C,0.120000*%
G04 APERTURE END LIST*
D10*
X16732766Y-5130800D02*
G75*
G03*
X16732766Y-5130800I-273566J0D01*
G01*
D11*
X9906000Y-9093200D02*
G75*
G03*
X10160000Y-9347200I254000J0D01*
G01*
X16916400Y-9347200D02*
G75*
G03*
X17170400Y-9093200I0J254000D01*
G01*
X9906000Y-4445000D02*
X9906000Y-9093200D01*
X17170400Y-9093200D02*
X17170400Y-4419600D01*
X10160000Y-9347200D02*
X16916400Y-9347200D01*
X17170400Y-4419600D02*
G75*
G03*
X16916400Y-4165600I-254000J0D01*
G01*
D10*
X13430766Y-8331200D02*
G75*
G03*
X13430766Y-8331200I-273566J0D01*
G01*
D11*
X10160000Y-4191000D02*
G75*
G03*
X9906000Y-4445000I0J-254000D01*
G01*
D10*
X10585966Y-5130800D02*
G75*
G03*
X10585966Y-5130800I-273566J0D01*
G01*
D11*
X16916400Y-4165600D02*
X10160000Y-4191000D01*
D10*
X10680000Y-6555000D02*
X10720000Y-6595000D01*
X10720000Y-6555000D02*
X10680000Y-6595000D01*
X10379350Y-8278400D02*
G75*
G03*
X10379350Y-8278400I-38000J0D01*
G01*
X10506350Y-8024400D02*
G75*
G03*
X10506350Y-8024400I-38000J0D01*
G01*
X10633350Y-8278400D02*
G75*
G03*
X10633350Y-8278400I-38000J0D01*
G01*
X10760350Y-8024400D02*
G75*
G03*
X10760350Y-8024400I-38000J0D01*
G01*
X10887350Y-8278400D02*
G75*
G03*
X10887350Y-8278400I-38000J0D01*
G01*
X11014350Y-8024400D02*
G75*
G03*
X11014350Y-8024400I-38000J0D01*
G01*
X11141350Y-8278400D02*
G75*
G03*
X11141350Y-8278400I-38000J0D01*
G01*
X11268350Y-8024400D02*
G75*
G03*
X11268350Y-8024400I-38000J0D01*
G01*
X16002000Y-7783200D02*
X16002000Y-7863200D01*
X15962000Y-7823200D02*
X16042000Y-7823200D01*
X16002000Y-8799200D02*
X16002000Y-8879200D01*
X15962000Y-8839200D02*
X16042000Y-8839200D01*
X11916820Y-4552820D02*
X11916820Y-4489180D01*
X11853180Y-4489180D01*
X11853180Y-4552820D01*
X11916820Y-4552820D01*
X11916820Y-4806820D02*
X11916820Y-4743180D01*
X11853180Y-4743180D01*
X11853180Y-4806820D01*
X11916820Y-4806820D01*
X11916820Y-5060820D02*
X11916820Y-4997180D01*
X11853180Y-4997180D01*
X11853180Y-5060820D01*
X11916820Y-5060820D01*
X11916820Y-5314820D02*
X11916820Y-5251180D01*
X11853180Y-5251180D01*
X11853180Y-5314820D01*
X11916820Y-5314820D01*
X11916820Y-5568820D02*
X11916820Y-5505180D01*
X11853180Y-5505180D01*
X11853180Y-5568820D01*
X11916820Y-5568820D01*
X11916820Y-5822820D02*
X11916820Y-5759180D01*
X11853180Y-5759180D01*
X11853180Y-5822820D01*
X11916820Y-5822820D01*
X11916820Y-6076820D02*
X11916820Y-6013180D01*
X11853180Y-6013180D01*
X11853180Y-6076820D01*
X11916820Y-6076820D01*
X11916820Y-6330820D02*
X11916820Y-6267180D01*
X11853180Y-6267180D01*
X11853180Y-6330820D01*
X11916820Y-6330820D01*
X11916820Y-6584820D02*
X11916820Y-6521180D01*
X11853180Y-6521180D01*
X11853180Y-6584820D01*
X11916820Y-6584820D01*
X11916820Y-6838820D02*
X11916820Y-6775180D01*
X11853180Y-6775180D01*
X11853180Y-6838820D01*
X11916820Y-6838820D01*
X11916820Y-7092820D02*
X11916820Y-7029180D01*
X11853180Y-7029180D01*
X11853180Y-7092820D01*
X11916820Y-7092820D01*
X11916820Y-7346820D02*
X11916820Y-7283180D01*
X11853180Y-7283180D01*
X11853180Y-7346820D01*
X11916820Y-7346820D01*
X11916820Y-7600820D02*
X11916820Y-7537180D01*
X11853180Y-7537180D01*
X11853180Y-7600820D01*
X11916820Y-7600820D01*
X11916820Y-7854820D02*
X11916820Y-7791180D01*
X11853180Y-7791180D01*
X11853180Y-7854820D01*
X11916820Y-7854820D01*
X11916820Y-8108820D02*
X11916820Y-8045180D01*
X11853180Y-8045180D01*
X11853180Y-8108820D01*
X11916820Y-8108820D01*
X11916820Y-8362820D02*
X11916820Y-8299180D01*
X11853180Y-8299180D01*
X11853180Y-8362820D01*
X11916820Y-8362820D01*
X11916820Y-8616820D02*
X11916820Y-8553180D01*
X11853180Y-8553180D01*
X11853180Y-8616820D01*
X11916820Y-8616820D01*
X11916820Y-8870820D02*
X11916820Y-8807180D01*
X11853180Y-8807180D01*
X11853180Y-8870820D01*
X11916820Y-8870820D01*
X11916820Y-9124820D02*
X11916820Y-9061180D01*
X11853180Y-9061180D01*
X11853180Y-9124820D01*
X11916820Y-9124820D01*
X14456820Y-4552820D02*
X14456820Y-4489180D01*
X14393180Y-4489180D01*
X14393180Y-4552820D01*
X14456820Y-4552820D01*
X14456820Y-4806820D02*
X14456820Y-4743180D01*
X14393180Y-4743180D01*
X14393180Y-4806820D01*
X14456820Y-4806820D01*
X14456820Y-5060820D02*
X14456820Y-4997180D01*
X14393180Y-4997180D01*
X14393180Y-5060820D01*
X14456820Y-5060820D01*
X14456820Y-5314820D02*
X14456820Y-5251180D01*
X14393180Y-5251180D01*
X14393180Y-5314820D01*
X14456820Y-5314820D01*
X14456820Y-5568820D02*
X14456820Y-5505180D01*
X14393180Y-5505180D01*
X14393180Y-5568820D01*
X14456820Y-5568820D01*
X14456820Y-5822820D02*
X14456820Y-5759180D01*
X14393180Y-5759180D01*
X14393180Y-5822820D01*
X14456820Y-5822820D01*
X14456820Y-6076820D02*
X14456820Y-6013180D01*
X14393180Y-6013180D01*
X14393180Y-6076820D01*
X14456820Y-6076820D01*
X14456820Y-6330820D02*
X14456820Y-6267180D01*
X14393180Y-6267180D01*
X14393180Y-6330820D01*
X14456820Y-6330820D01*
X14456820Y-6584820D02*
X14456820Y-6521180D01*
X14393180Y-6521180D01*
X14393180Y-6584820D01*
X14456820Y-6584820D01*
X14456820Y-6838820D02*
X14456820Y-6775180D01*
X14393180Y-6775180D01*
X14393180Y-6838820D01*
X14456820Y-6838820D01*
X14456820Y-7092820D02*
X14456820Y-7029180D01*
X14393180Y-7029180D01*
X14393180Y-7092820D01*
X14456820Y-7092820D01*
X14456820Y-7346820D02*
X14456820Y-7283180D01*
X14393180Y-7283180D01*
X14393180Y-7346820D01*
X14456820Y-7346820D01*
X14456820Y-7600820D02*
X14456820Y-7537180D01*
X14393180Y-7537180D01*
X14393180Y-7600820D01*
X14456820Y-7600820D01*
X14456820Y-7854820D02*
X14456820Y-7791180D01*
X14393180Y-7791180D01*
X14393180Y-7854820D01*
X14456820Y-7854820D01*
X14456820Y-8108820D02*
X14456820Y-8045180D01*
X14393180Y-8045180D01*
X14393180Y-8108820D01*
X14456820Y-8108820D01*
X14456820Y-8362820D02*
X14456820Y-8299180D01*
X14393180Y-8299180D01*
X14393180Y-8362820D01*
X14456820Y-8362820D01*
X14456820Y-8616820D02*
X14456820Y-8553180D01*
X14393180Y-8553180D01*
X14393180Y-8616820D01*
X14456820Y-8616820D01*
X14456820Y-8870820D02*
X14456820Y-8807180D01*
X14393180Y-8807180D01*
X14393180Y-8870820D01*
X14456820Y-8870820D01*
X14456820Y-9124820D02*
X14456820Y-9061180D01*
X14393180Y-9061180D01*
X14393180Y-9124820D01*
X14456820Y-9124820D01*
X16516920Y-8871020D02*
X16516920Y-8807380D01*
X16453280Y-8807380D01*
X16453280Y-8871020D01*
X16516920Y-8871020D01*
X16770920Y-8871020D02*
X16770920Y-8807380D01*
X16707280Y-8807380D01*
X16707280Y-8871020D01*
X16770920Y-8871020D01*
X10400000Y-6297500D02*
X10450000Y-6247500D01*
X10400000Y-6197500D01*
X10350000Y-6247500D01*
X10400000Y-6297500D01*
X10400000Y-6551500D02*
X10450000Y-6501500D01*
X10400000Y-6451500D01*
X10350000Y-6501500D01*
X10400000Y-6551500D01*
X10400000Y-6805500D02*
X10450000Y-6755500D01*
X10400000Y-6705500D01*
X10350000Y-6755500D01*
X10400000Y-6805500D01*
X11025000Y-6297500D02*
X11075000Y-6247500D01*
X11025000Y-6197500D01*
X10975000Y-6247500D01*
X11025000Y-6297500D01*
X11025000Y-6551500D02*
X11075000Y-6501500D01*
X11025000Y-6451500D01*
X10975000Y-6501500D01*
X11025000Y-6551500D01*
X11025000Y-6805500D02*
X11075000Y-6755500D01*
X11025000Y-6705500D01*
X10975000Y-6755500D01*
X11025000Y-6805500D01*
X11049000Y-4625000D02*
X11099000Y-4575000D01*
X11049000Y-4525000D01*
X10999000Y-4575000D01*
X11049000Y-4625000D01*
X11049000Y-4879000D02*
X11099000Y-4829000D01*
X11049000Y-4779000D01*
X10999000Y-4829000D01*
X11049000Y-4879000D01*
X11049000Y-5133000D02*
X11099000Y-5083000D01*
X11049000Y-5033000D01*
X10999000Y-5083000D01*
X11049000Y-5133000D01*
X11049000Y-5387000D02*
X11099000Y-5337000D01*
X11049000Y-5287000D01*
X10999000Y-5337000D01*
X11049000Y-5387000D01*
X11049000Y-5641000D02*
X11099000Y-5591000D01*
X11049000Y-5541000D01*
X10999000Y-5591000D01*
X11049000Y-5641000D01*
X15082600Y-9047400D02*
X15132600Y-8997400D01*
X15082600Y-8947400D01*
X15032600Y-8997400D01*
X15082600Y-9047400D01*
X15087600Y-7314400D02*
X15137600Y-7264400D01*
X15087600Y-7214400D01*
X15037600Y-7264400D01*
X15087600Y-7314400D01*
X15089100Y-7924000D02*
X15139100Y-7874000D01*
X15089100Y-7824000D01*
X15039100Y-7874000D01*
X15089100Y-7924000D01*
X15089100Y-8533600D02*
X15139100Y-8483600D01*
X15089100Y-8433600D01*
X15039100Y-8483600D01*
X15089100Y-8533600D01*
X15189200Y-4597600D02*
X15239200Y-4547600D01*
X15189200Y-4497600D01*
X15139200Y-4547600D01*
X15189200Y-4597600D01*
X15189200Y-4851600D02*
X15239200Y-4801600D01*
X15189200Y-4751600D01*
X15139200Y-4801600D01*
X15189200Y-4851600D01*
X15189200Y-5105600D02*
X15239200Y-5055600D01*
X15189200Y-5005600D01*
X15139200Y-5055600D01*
X15189200Y-5105600D01*
X15189200Y-5359600D02*
X15239200Y-5309600D01*
X15189200Y-5259600D01*
X15139200Y-5309600D01*
X15189200Y-5359600D01*
X15336600Y-9047400D02*
X15386600Y-8997400D01*
X15336600Y-8947400D01*
X15286600Y-8997400D01*
X15336600Y-9047400D01*
X15341600Y-7314400D02*
X15391600Y-7264400D01*
X15341600Y-7214400D01*
X15291600Y-7264400D01*
X15341600Y-7314400D01*
X15343100Y-7924000D02*
X15393100Y-7874000D01*
X15343100Y-7824000D01*
X15293100Y-7874000D01*
X15343100Y-7924000D01*
X15343100Y-8533600D02*
X15393100Y-8483600D01*
X15343100Y-8433600D01*
X15293100Y-8483600D01*
X15343100Y-8533600D01*
X15590600Y-9047400D02*
X15640600Y-8997400D01*
X15590600Y-8947400D01*
X15540600Y-8997400D01*
X15590600Y-9047400D01*
X15595600Y-7314400D02*
X15645600Y-7264400D01*
X15595600Y-7214400D01*
X15545600Y-7264400D01*
X15595600Y-7314400D01*
X15597100Y-7924000D02*
X15647100Y-7874000D01*
X15597100Y-7824000D01*
X15547100Y-7874000D01*
X15597100Y-7924000D01*
X15597100Y-8533600D02*
X15647100Y-8483600D01*
X15597100Y-8433600D01*
X15547100Y-8483600D01*
X15597100Y-8533600D01*
X15798800Y-4571200D02*
X15848800Y-4521200D01*
X15798800Y-4471200D01*
X15748800Y-4521200D01*
X15798800Y-4571200D01*
X15798800Y-4825200D02*
X15848800Y-4775200D01*
X15798800Y-4725200D01*
X15748800Y-4775200D01*
X15798800Y-4825200D01*
X15798800Y-5079200D02*
X15848800Y-5029200D01*
X15798800Y-4979200D01*
X15748800Y-5029200D01*
X15798800Y-5079200D01*
X15798800Y-5333200D02*
X15848800Y-5283200D01*
X15798800Y-5233200D01*
X15748800Y-5283200D01*
X15798800Y-5333200D01*
X15798800Y-5587200D02*
X15848800Y-5537200D01*
X15798800Y-5487200D01*
X15748800Y-5537200D01*
X15798800Y-5587200D01*
X15798800Y-5841200D02*
X15848800Y-5791200D01*
X15798800Y-5741200D01*
X15748800Y-5791200D01*
X15798800Y-5841200D01*
X15798800Y-6095200D02*
X15848800Y-6045200D01*
X15798800Y-5995200D01*
X15748800Y-6045200D01*
X15798800Y-6095200D01*
X15798800Y-6349200D02*
X15848800Y-6299200D01*
X15798800Y-6249200D01*
X15748800Y-6299200D01*
X15798800Y-6349200D01*
X15798800Y-6603200D02*
X15848800Y-6553200D01*
X15798800Y-6503200D01*
X15748800Y-6553200D01*
X15798800Y-6603200D01*
D12*
X16302600Y-6048100D02*
X16412600Y-6158100D01*
X16412600Y-6048100D02*
X16302600Y-6158100D01*
X16412600Y-6103100D02*
G75*
G03*
X16412600Y-6103100I-55000J0D01*
G01*
X16556600Y-6048100D02*
X16666600Y-6158100D01*
X16666600Y-6048100D02*
X16556600Y-6158100D01*
X16666600Y-6103100D02*
G75*
G03*
X16666600Y-6103100I-55000J0D01*
G01*
X16810600Y-6048100D02*
X16920600Y-6158100D01*
X16920600Y-6048100D02*
X16810600Y-6158100D01*
X16920600Y-6103100D02*
G75*
G03*
X16920600Y-6103100I-55000J0D01*
G01*
D13*
X16617800Y-7746200D02*
X16737800Y-7866200D01*
X16737800Y-7746200D02*
X16617800Y-7866200D01*
X16677800Y-7746200D02*
X16677800Y-7866200D01*
X16617800Y-7806200D02*
X16737800Y-7806200D01*
X16617800Y-8096200D02*
X16737800Y-8216200D01*
X16737800Y-8096200D02*
X16617800Y-8216200D01*
X16677800Y-8096200D02*
X16677800Y-8216200D01*
X16617800Y-8156200D02*
X16737800Y-8156200D01*
X16627800Y-6752800D02*
X16747800Y-6872800D01*
X16747800Y-6752800D02*
X16627800Y-6872800D01*
X16687800Y-6752800D02*
X16687800Y-6872800D01*
X16627800Y-6812800D02*
X16747800Y-6812800D01*
X16627800Y-7102800D02*
X16747800Y-7222800D01*
X16747800Y-7102800D02*
X16627800Y-7222800D01*
X16687800Y-7102800D02*
X16687800Y-7222800D01*
X16627800Y-7162800D02*
X16747800Y-7162800D01*
D11*
X10156777Y-9668684D02*
X10156777Y-9468684D01*
X10156777Y-9468684D02*
X10204396Y-9468684D01*
X10204396Y-9468684D02*
X10232967Y-9478208D01*
X10232967Y-9478208D02*
X10252015Y-9497255D01*
X10252015Y-9497255D02*
X10261539Y-9516303D01*
X10261539Y-9516303D02*
X10271062Y-9554398D01*
X10271062Y-9554398D02*
X10271062Y-9582970D01*
X10271062Y-9582970D02*
X10261539Y-9621065D01*
X10261539Y-9621065D02*
X10252015Y-9640112D01*
X10252015Y-9640112D02*
X10232967Y-9659160D01*
X10232967Y-9659160D02*
X10204396Y-9668684D01*
X10204396Y-9668684D02*
X10156777Y-9668684D01*
X10356777Y-9668684D02*
X10356777Y-9535351D01*
X10356777Y-9573446D02*
X10366301Y-9554398D01*
X10366301Y-9554398D02*
X10375824Y-9544874D01*
X10375824Y-9544874D02*
X10394872Y-9535351D01*
X10394872Y-9535351D02*
X10413920Y-9535351D01*
X10480586Y-9668684D02*
X10480586Y-9535351D01*
X10480586Y-9468684D02*
X10471062Y-9478208D01*
X10471062Y-9478208D02*
X10480586Y-9487732D01*
X10480586Y-9487732D02*
X10490110Y-9478208D01*
X10490110Y-9478208D02*
X10480586Y-9468684D01*
X10480586Y-9468684D02*
X10480586Y-9487732D01*
X10604396Y-9668684D02*
X10585348Y-9659160D01*
X10585348Y-9659160D02*
X10575824Y-9640112D01*
X10575824Y-9640112D02*
X10575824Y-9468684D01*
X10709158Y-9668684D02*
X10690110Y-9659160D01*
X10690110Y-9659160D02*
X10680586Y-9640112D01*
X10680586Y-9640112D02*
X10680586Y-9468684D01*
X10937729Y-9668684D02*
X10937729Y-9468684D01*
X10937729Y-9468684D02*
X11004396Y-9611541D01*
X11004396Y-9611541D02*
X11071062Y-9468684D01*
X11071062Y-9468684D02*
X11071062Y-9668684D01*
X11252015Y-9668684D02*
X11252015Y-9563922D01*
X11252015Y-9563922D02*
X11242491Y-9544874D01*
X11242491Y-9544874D02*
X11223443Y-9535351D01*
X11223443Y-9535351D02*
X11185348Y-9535351D01*
X11185348Y-9535351D02*
X11166301Y-9544874D01*
X11252015Y-9659160D02*
X11232967Y-9668684D01*
X11232967Y-9668684D02*
X11185348Y-9668684D01*
X11185348Y-9668684D02*
X11166301Y-9659160D01*
X11166301Y-9659160D02*
X11156777Y-9640112D01*
X11156777Y-9640112D02*
X11156777Y-9621065D01*
X11156777Y-9621065D02*
X11166301Y-9602017D01*
X11166301Y-9602017D02*
X11185348Y-9592493D01*
X11185348Y-9592493D02*
X11232967Y-9592493D01*
X11232967Y-9592493D02*
X11252015Y-9582970D01*
X11347253Y-9535351D02*
X11347253Y-9735351D01*
X11347253Y-9544874D02*
X11366300Y-9535351D01*
X11366300Y-9535351D02*
X11404396Y-9535351D01*
X11404396Y-9535351D02*
X11423443Y-9544874D01*
X11423443Y-9544874D02*
X11432967Y-9554398D01*
X11432967Y-9554398D02*
X11442491Y-9573446D01*
X11442491Y-9573446D02*
X11442491Y-9630589D01*
X11442491Y-9630589D02*
X11432967Y-9649636D01*
X11432967Y-9649636D02*
X11423443Y-9659160D01*
X11423443Y-9659160D02*
X11404396Y-9668684D01*
X11404396Y-9668684D02*
X11366300Y-9668684D01*
X11366300Y-9668684D02*
X11347253Y-9659160D01*
X11528205Y-9649636D02*
X11537729Y-9659160D01*
X11537729Y-9659160D02*
X11528205Y-9668684D01*
X11528205Y-9668684D02*
X11518681Y-9659160D01*
X11518681Y-9659160D02*
X11528205Y-9649636D01*
X11528205Y-9649636D02*
X11528205Y-9668684D01*
X11528205Y-9544874D02*
X11537729Y-9554398D01*
X11537729Y-9554398D02*
X11528205Y-9563922D01*
X11528205Y-9563922D02*
X11518681Y-9554398D01*
X11518681Y-9554398D02*
X11528205Y-9544874D01*
X11528205Y-9544874D02*
X11528205Y-9563922D01*
D10*
X9856000Y-9977200D02*
X9896000Y-10017200D01*
X9896000Y-9977200D02*
X9856000Y-10017200D01*
D11*
X10194872Y-9888684D02*
X10213920Y-9888684D01*
X10213920Y-9888684D02*
X10232967Y-9898208D01*
X10232967Y-9898208D02*
X10242491Y-9907732D01*
X10242491Y-9907732D02*
X10252015Y-9926779D01*
X10252015Y-9926779D02*
X10261539Y-9964874D01*
X10261539Y-9964874D02*
X10261539Y-10012493D01*
X10261539Y-10012493D02*
X10252015Y-10050589D01*
X10252015Y-10050589D02*
X10242491Y-10069636D01*
X10242491Y-10069636D02*
X10232967Y-10079160D01*
X10232967Y-10079160D02*
X10213920Y-10088684D01*
X10213920Y-10088684D02*
X10194872Y-10088684D01*
X10194872Y-10088684D02*
X10175824Y-10079160D01*
X10175824Y-10079160D02*
X10166301Y-10069636D01*
X10166301Y-10069636D02*
X10156777Y-10050589D01*
X10156777Y-10050589D02*
X10147253Y-10012493D01*
X10147253Y-10012493D02*
X10147253Y-9964874D01*
X10147253Y-9964874D02*
X10156777Y-9926779D01*
X10156777Y-9926779D02*
X10166301Y-9907732D01*
X10166301Y-9907732D02*
X10175824Y-9898208D01*
X10175824Y-9898208D02*
X10194872Y-9888684D01*
X10347253Y-10069636D02*
X10356777Y-10079160D01*
X10356777Y-10079160D02*
X10347253Y-10088684D01*
X10347253Y-10088684D02*
X10337729Y-10079160D01*
X10337729Y-10079160D02*
X10347253Y-10069636D01*
X10347253Y-10069636D02*
X10347253Y-10088684D01*
X10528205Y-9955351D02*
X10528205Y-10088684D01*
X10480586Y-9879160D02*
X10432967Y-10022017D01*
X10432967Y-10022017D02*
X10556777Y-10022017D01*
X10671062Y-9888684D02*
X10690110Y-9888684D01*
X10690110Y-9888684D02*
X10709158Y-9898208D01*
X10709158Y-9898208D02*
X10718682Y-9907732D01*
X10718682Y-9907732D02*
X10728205Y-9926779D01*
X10728205Y-9926779D02*
X10737729Y-9964874D01*
X10737729Y-9964874D02*
X10737729Y-10012493D01*
X10737729Y-10012493D02*
X10728205Y-10050589D01*
X10728205Y-10050589D02*
X10718682Y-10069636D01*
X10718682Y-10069636D02*
X10709158Y-10079160D01*
X10709158Y-10079160D02*
X10690110Y-10088684D01*
X10690110Y-10088684D02*
X10671062Y-10088684D01*
X10671062Y-10088684D02*
X10652015Y-10079160D01*
X10652015Y-10079160D02*
X10642491Y-10069636D01*
X10642491Y-10069636D02*
X10632967Y-10050589D01*
X10632967Y-10050589D02*
X10623443Y-10012493D01*
X10623443Y-10012493D02*
X10623443Y-9964874D01*
X10623443Y-9964874D02*
X10632967Y-9926779D01*
X10632967Y-9926779D02*
X10642491Y-9907732D01*
X10642491Y-9907732D02*
X10652015Y-9898208D01*
X10652015Y-9898208D02*
X10671062Y-9888684D01*
X10861539Y-9888684D02*
X10880586Y-9888684D01*
X10880586Y-9888684D02*
X10899634Y-9898208D01*
X10899634Y-9898208D02*
X10909158Y-9907732D01*
X10909158Y-9907732D02*
X10918682Y-9926779D01*
X10918682Y-9926779D02*
X10928205Y-9964874D01*
X10928205Y-9964874D02*
X10928205Y-10012493D01*
X10928205Y-10012493D02*
X10918682Y-10050589D01*
X10918682Y-10050589D02*
X10909158Y-10069636D01*
X10909158Y-10069636D02*
X10899634Y-10079160D01*
X10899634Y-10079160D02*
X10880586Y-10088684D01*
X10880586Y-10088684D02*
X10861539Y-10088684D01*
X10861539Y-10088684D02*
X10842491Y-10079160D01*
X10842491Y-10079160D02*
X10832967Y-10069636D01*
X10832967Y-10069636D02*
X10823443Y-10050589D01*
X10823443Y-10050589D02*
X10813920Y-10012493D01*
X10813920Y-10012493D02*
X10813920Y-9964874D01*
X10813920Y-9964874D02*
X10823443Y-9926779D01*
X10823443Y-9926779D02*
X10832967Y-9907732D01*
X10832967Y-9907732D02*
X10842491Y-9898208D01*
X10842491Y-9898208D02*
X10861539Y-9888684D01*
X11013920Y-10088684D02*
X11013920Y-9955351D01*
X11013920Y-9974398D02*
X11023443Y-9964874D01*
X11023443Y-9964874D02*
X11042491Y-9955351D01*
X11042491Y-9955351D02*
X11071063Y-9955351D01*
X11071063Y-9955351D02*
X11090110Y-9964874D01*
X11090110Y-9964874D02*
X11099634Y-9983922D01*
X11099634Y-9983922D02*
X11099634Y-10088684D01*
X11099634Y-9983922D02*
X11109158Y-9964874D01*
X11109158Y-9964874D02*
X11128205Y-9955351D01*
X11128205Y-9955351D02*
X11156777Y-9955351D01*
X11156777Y-9955351D02*
X11175824Y-9964874D01*
X11175824Y-9964874D02*
X11185348Y-9983922D01*
X11185348Y-9983922D02*
X11185348Y-10088684D01*
X11280586Y-10088684D02*
X11280586Y-9955351D01*
X11280586Y-9974398D02*
X11290110Y-9964874D01*
X11290110Y-9964874D02*
X11309158Y-9955351D01*
X11309158Y-9955351D02*
X11337729Y-9955351D01*
X11337729Y-9955351D02*
X11356777Y-9964874D01*
X11356777Y-9964874D02*
X11366301Y-9983922D01*
X11366301Y-9983922D02*
X11366301Y-10088684D01*
X11366301Y-9983922D02*
X11375824Y-9964874D01*
X11375824Y-9964874D02*
X11394872Y-9955351D01*
X11394872Y-9955351D02*
X11423443Y-9955351D01*
X11423443Y-9955351D02*
X11442491Y-9964874D01*
X11442491Y-9964874D02*
X11452015Y-9983922D01*
X11452015Y-9983922D02*
X11452015Y-10088684D01*
X11842491Y-9879160D02*
X11671063Y-10136303D01*
X12099634Y-9888684D02*
X12118682Y-9888684D01*
X12118682Y-9888684D02*
X12137729Y-9898208D01*
X12137729Y-9898208D02*
X12147253Y-9907732D01*
X12147253Y-9907732D02*
X12156777Y-9926779D01*
X12156777Y-9926779D02*
X12166301Y-9964874D01*
X12166301Y-9964874D02*
X12166301Y-10012493D01*
X12166301Y-10012493D02*
X12156777Y-10050589D01*
X12156777Y-10050589D02*
X12147253Y-10069636D01*
X12147253Y-10069636D02*
X12137729Y-10079160D01*
X12137729Y-10079160D02*
X12118682Y-10088684D01*
X12118682Y-10088684D02*
X12099634Y-10088684D01*
X12099634Y-10088684D02*
X12080586Y-10079160D01*
X12080586Y-10079160D02*
X12071063Y-10069636D01*
X12071063Y-10069636D02*
X12061539Y-10050589D01*
X12061539Y-10050589D02*
X12052015Y-10012493D01*
X12052015Y-10012493D02*
X12052015Y-9964874D01*
X12052015Y-9964874D02*
X12061539Y-9926779D01*
X12061539Y-9926779D02*
X12071063Y-9907732D01*
X12071063Y-9907732D02*
X12080586Y-9898208D01*
X12080586Y-9898208D02*
X12099634Y-9888684D01*
X12252015Y-10069636D02*
X12261539Y-10079160D01*
X12261539Y-10079160D02*
X12252015Y-10088684D01*
X12252015Y-10088684D02*
X12242491Y-10079160D01*
X12242491Y-10079160D02*
X12252015Y-10069636D01*
X12252015Y-10069636D02*
X12252015Y-10088684D01*
X12385348Y-9888684D02*
X12404396Y-9888684D01*
X12404396Y-9888684D02*
X12423444Y-9898208D01*
X12423444Y-9898208D02*
X12432967Y-9907732D01*
X12432967Y-9907732D02*
X12442491Y-9926779D01*
X12442491Y-9926779D02*
X12452015Y-9964874D01*
X12452015Y-9964874D02*
X12452015Y-10012493D01*
X12452015Y-10012493D02*
X12442491Y-10050589D01*
X12442491Y-10050589D02*
X12432967Y-10069636D01*
X12432967Y-10069636D02*
X12423444Y-10079160D01*
X12423444Y-10079160D02*
X12404396Y-10088684D01*
X12404396Y-10088684D02*
X12385348Y-10088684D01*
X12385348Y-10088684D02*
X12366301Y-10079160D01*
X12366301Y-10079160D02*
X12356777Y-10069636D01*
X12356777Y-10069636D02*
X12347253Y-10050589D01*
X12347253Y-10050589D02*
X12337729Y-10012493D01*
X12337729Y-10012493D02*
X12337729Y-9964874D01*
X12337729Y-9964874D02*
X12347253Y-9926779D01*
X12347253Y-9926779D02*
X12356777Y-9907732D01*
X12356777Y-9907732D02*
X12366301Y-9898208D01*
X12366301Y-9898208D02*
X12385348Y-9888684D01*
X12642491Y-10088684D02*
X12528205Y-10088684D01*
X12585348Y-10088684D02*
X12585348Y-9888684D01*
X12585348Y-9888684D02*
X12566301Y-9917255D01*
X12566301Y-9917255D02*
X12547253Y-9936303D01*
X12547253Y-9936303D02*
X12528205Y-9945827D01*
X12823444Y-9888684D02*
X12728205Y-9888684D01*
X12728205Y-9888684D02*
X12718682Y-9983922D01*
X12718682Y-9983922D02*
X12728205Y-9974398D01*
X12728205Y-9974398D02*
X12747253Y-9964874D01*
X12747253Y-9964874D02*
X12794872Y-9964874D01*
X12794872Y-9964874D02*
X12813920Y-9974398D01*
X12813920Y-9974398D02*
X12823444Y-9983922D01*
X12823444Y-9983922D02*
X12832967Y-10002970D01*
X12832967Y-10002970D02*
X12832967Y-10050589D01*
X12832967Y-10050589D02*
X12823444Y-10069636D01*
X12823444Y-10069636D02*
X12813920Y-10079160D01*
X12813920Y-10079160D02*
X12794872Y-10088684D01*
X12794872Y-10088684D02*
X12747253Y-10088684D01*
X12747253Y-10088684D02*
X12728205Y-10079160D01*
X12728205Y-10079160D02*
X12718682Y-10069636D01*
X12899634Y-9888684D02*
X13032967Y-9888684D01*
X13032967Y-9888684D02*
X12947253Y-10088684D01*
X13099634Y-9888684D02*
X13099634Y-9926779D01*
X13175825Y-9888684D02*
X13175825Y-9926779D01*
X13471063Y-10164874D02*
X13461539Y-10155351D01*
X13461539Y-10155351D02*
X13442491Y-10126779D01*
X13442491Y-10126779D02*
X13432967Y-10107732D01*
X13432967Y-10107732D02*
X13423444Y-10079160D01*
X13423444Y-10079160D02*
X13413920Y-10031541D01*
X13413920Y-10031541D02*
X13413920Y-9993446D01*
X13413920Y-9993446D02*
X13423444Y-9945827D01*
X13423444Y-9945827D02*
X13432967Y-9917255D01*
X13432967Y-9917255D02*
X13442491Y-9898208D01*
X13442491Y-9898208D02*
X13461539Y-9869636D01*
X13461539Y-9869636D02*
X13471063Y-9860112D01*
X13652015Y-10088684D02*
X13537729Y-10088684D01*
X13594872Y-10088684D02*
X13594872Y-9888684D01*
X13594872Y-9888684D02*
X13575825Y-9917255D01*
X13575825Y-9917255D02*
X13556777Y-9936303D01*
X13556777Y-9936303D02*
X13537729Y-9945827D01*
X13890110Y-10088684D02*
X13890110Y-9888684D01*
X13975825Y-10088684D02*
X13975825Y-9983922D01*
X13975825Y-9983922D02*
X13966301Y-9964874D01*
X13966301Y-9964874D02*
X13947253Y-9955351D01*
X13947253Y-9955351D02*
X13918682Y-9955351D01*
X13918682Y-9955351D02*
X13899634Y-9964874D01*
X13899634Y-9964874D02*
X13890110Y-9974398D01*
X14099634Y-10088684D02*
X14080587Y-10079160D01*
X14080587Y-10079160D02*
X14071063Y-10069636D01*
X14071063Y-10069636D02*
X14061539Y-10050589D01*
X14061539Y-10050589D02*
X14061539Y-9993446D01*
X14061539Y-9993446D02*
X14071063Y-9974398D01*
X14071063Y-9974398D02*
X14080587Y-9964874D01*
X14080587Y-9964874D02*
X14099634Y-9955351D01*
X14099634Y-9955351D02*
X14128206Y-9955351D01*
X14128206Y-9955351D02*
X14147253Y-9964874D01*
X14147253Y-9964874D02*
X14156777Y-9974398D01*
X14156777Y-9974398D02*
X14166301Y-9993446D01*
X14166301Y-9993446D02*
X14166301Y-10050589D01*
X14166301Y-10050589D02*
X14156777Y-10069636D01*
X14156777Y-10069636D02*
X14147253Y-10079160D01*
X14147253Y-10079160D02*
X14128206Y-10088684D01*
X14128206Y-10088684D02*
X14099634Y-10088684D01*
X14280587Y-10088684D02*
X14261539Y-10079160D01*
X14261539Y-10079160D02*
X14252015Y-10060112D01*
X14252015Y-10060112D02*
X14252015Y-9888684D01*
X14432968Y-10079160D02*
X14413920Y-10088684D01*
X14413920Y-10088684D02*
X14375825Y-10088684D01*
X14375825Y-10088684D02*
X14356777Y-10079160D01*
X14356777Y-10079160D02*
X14347253Y-10060112D01*
X14347253Y-10060112D02*
X14347253Y-9983922D01*
X14347253Y-9983922D02*
X14356777Y-9964874D01*
X14356777Y-9964874D02*
X14375825Y-9955351D01*
X14375825Y-9955351D02*
X14413920Y-9955351D01*
X14413920Y-9955351D02*
X14432968Y-9964874D01*
X14432968Y-9964874D02*
X14442491Y-9983922D01*
X14442491Y-9983922D02*
X14442491Y-10002970D01*
X14442491Y-10002970D02*
X14347253Y-10022017D01*
X14509158Y-10164874D02*
X14518682Y-10155351D01*
X14518682Y-10155351D02*
X14537729Y-10126779D01*
X14537729Y-10126779D02*
X14547253Y-10107732D01*
X14547253Y-10107732D02*
X14556777Y-10079160D01*
X14556777Y-10079160D02*
X14566301Y-10031541D01*
X14566301Y-10031541D02*
X14566301Y-9993446D01*
X14566301Y-9993446D02*
X14556777Y-9945827D01*
X14556777Y-9945827D02*
X14547253Y-9917255D01*
X14547253Y-9917255D02*
X14537729Y-9898208D01*
X14537729Y-9898208D02*
X14518682Y-9869636D01*
X14518682Y-9869636D02*
X14509158Y-9860112D01*
D10*
X9896000Y-10261200D02*
G75*
G03*
X9896000Y-10261200I-38000J0D01*
G01*
D11*
X10194872Y-10152684D02*
X10213920Y-10152684D01*
X10213920Y-10152684D02*
X10232967Y-10162208D01*
X10232967Y-10162208D02*
X10242491Y-10171732D01*
X10242491Y-10171732D02*
X10252015Y-10190779D01*
X10252015Y-10190779D02*
X10261539Y-10228874D01*
X10261539Y-10228874D02*
X10261539Y-10276493D01*
X10261539Y-10276493D02*
X10252015Y-10314589D01*
X10252015Y-10314589D02*
X10242491Y-10333636D01*
X10242491Y-10333636D02*
X10232967Y-10343160D01*
X10232967Y-10343160D02*
X10213920Y-10352684D01*
X10213920Y-10352684D02*
X10194872Y-10352684D01*
X10194872Y-10352684D02*
X10175824Y-10343160D01*
X10175824Y-10343160D02*
X10166301Y-10333636D01*
X10166301Y-10333636D02*
X10156777Y-10314589D01*
X10156777Y-10314589D02*
X10147253Y-10276493D01*
X10147253Y-10276493D02*
X10147253Y-10228874D01*
X10147253Y-10228874D02*
X10156777Y-10190779D01*
X10156777Y-10190779D02*
X10166301Y-10171732D01*
X10166301Y-10171732D02*
X10175824Y-10162208D01*
X10175824Y-10162208D02*
X10194872Y-10152684D01*
X10347253Y-10333636D02*
X10356777Y-10343160D01*
X10356777Y-10343160D02*
X10347253Y-10352684D01*
X10347253Y-10352684D02*
X10337729Y-10343160D01*
X10337729Y-10343160D02*
X10347253Y-10333636D01*
X10347253Y-10333636D02*
X10347253Y-10352684D01*
X10423443Y-10152684D02*
X10556777Y-10152684D01*
X10556777Y-10152684D02*
X10471062Y-10352684D01*
X10718682Y-10152684D02*
X10680586Y-10152684D01*
X10680586Y-10152684D02*
X10661539Y-10162208D01*
X10661539Y-10162208D02*
X10652015Y-10171732D01*
X10652015Y-10171732D02*
X10632967Y-10200303D01*
X10632967Y-10200303D02*
X10623443Y-10238398D01*
X10623443Y-10238398D02*
X10623443Y-10314589D01*
X10623443Y-10314589D02*
X10632967Y-10333636D01*
X10632967Y-10333636D02*
X10642491Y-10343160D01*
X10642491Y-10343160D02*
X10661539Y-10352684D01*
X10661539Y-10352684D02*
X10699634Y-10352684D01*
X10699634Y-10352684D02*
X10718682Y-10343160D01*
X10718682Y-10343160D02*
X10728205Y-10333636D01*
X10728205Y-10333636D02*
X10737729Y-10314589D01*
X10737729Y-10314589D02*
X10737729Y-10266970D01*
X10737729Y-10266970D02*
X10728205Y-10247922D01*
X10728205Y-10247922D02*
X10718682Y-10238398D01*
X10718682Y-10238398D02*
X10699634Y-10228874D01*
X10699634Y-10228874D02*
X10661539Y-10228874D01*
X10661539Y-10228874D02*
X10642491Y-10238398D01*
X10642491Y-10238398D02*
X10632967Y-10247922D01*
X10632967Y-10247922D02*
X10623443Y-10266970D01*
X10861539Y-10152684D02*
X10880586Y-10152684D01*
X10880586Y-10152684D02*
X10899634Y-10162208D01*
X10899634Y-10162208D02*
X10909158Y-10171732D01*
X10909158Y-10171732D02*
X10918682Y-10190779D01*
X10918682Y-10190779D02*
X10928205Y-10228874D01*
X10928205Y-10228874D02*
X10928205Y-10276493D01*
X10928205Y-10276493D02*
X10918682Y-10314589D01*
X10918682Y-10314589D02*
X10909158Y-10333636D01*
X10909158Y-10333636D02*
X10899634Y-10343160D01*
X10899634Y-10343160D02*
X10880586Y-10352684D01*
X10880586Y-10352684D02*
X10861539Y-10352684D01*
X10861539Y-10352684D02*
X10842491Y-10343160D01*
X10842491Y-10343160D02*
X10832967Y-10333636D01*
X10832967Y-10333636D02*
X10823443Y-10314589D01*
X10823443Y-10314589D02*
X10813920Y-10276493D01*
X10813920Y-10276493D02*
X10813920Y-10228874D01*
X10813920Y-10228874D02*
X10823443Y-10190779D01*
X10823443Y-10190779D02*
X10832967Y-10171732D01*
X10832967Y-10171732D02*
X10842491Y-10162208D01*
X10842491Y-10162208D02*
X10861539Y-10152684D01*
X11013920Y-10352684D02*
X11013920Y-10219351D01*
X11013920Y-10238398D02*
X11023443Y-10228874D01*
X11023443Y-10228874D02*
X11042491Y-10219351D01*
X11042491Y-10219351D02*
X11071063Y-10219351D01*
X11071063Y-10219351D02*
X11090110Y-10228874D01*
X11090110Y-10228874D02*
X11099634Y-10247922D01*
X11099634Y-10247922D02*
X11099634Y-10352684D01*
X11099634Y-10247922D02*
X11109158Y-10228874D01*
X11109158Y-10228874D02*
X11128205Y-10219351D01*
X11128205Y-10219351D02*
X11156777Y-10219351D01*
X11156777Y-10219351D02*
X11175824Y-10228874D01*
X11175824Y-10228874D02*
X11185348Y-10247922D01*
X11185348Y-10247922D02*
X11185348Y-10352684D01*
X11280586Y-10352684D02*
X11280586Y-10219351D01*
X11280586Y-10238398D02*
X11290110Y-10228874D01*
X11290110Y-10228874D02*
X11309158Y-10219351D01*
X11309158Y-10219351D02*
X11337729Y-10219351D01*
X11337729Y-10219351D02*
X11356777Y-10228874D01*
X11356777Y-10228874D02*
X11366301Y-10247922D01*
X11366301Y-10247922D02*
X11366301Y-10352684D01*
X11366301Y-10247922D02*
X11375824Y-10228874D01*
X11375824Y-10228874D02*
X11394872Y-10219351D01*
X11394872Y-10219351D02*
X11423443Y-10219351D01*
X11423443Y-10219351D02*
X11442491Y-10228874D01*
X11442491Y-10228874D02*
X11452015Y-10247922D01*
X11452015Y-10247922D02*
X11452015Y-10352684D01*
X11842491Y-10143160D02*
X11671063Y-10400303D01*
X12099634Y-10152684D02*
X12118682Y-10152684D01*
X12118682Y-10152684D02*
X12137729Y-10162208D01*
X12137729Y-10162208D02*
X12147253Y-10171732D01*
X12147253Y-10171732D02*
X12156777Y-10190779D01*
X12156777Y-10190779D02*
X12166301Y-10228874D01*
X12166301Y-10228874D02*
X12166301Y-10276493D01*
X12166301Y-10276493D02*
X12156777Y-10314589D01*
X12156777Y-10314589D02*
X12147253Y-10333636D01*
X12147253Y-10333636D02*
X12137729Y-10343160D01*
X12137729Y-10343160D02*
X12118682Y-10352684D01*
X12118682Y-10352684D02*
X12099634Y-10352684D01*
X12099634Y-10352684D02*
X12080586Y-10343160D01*
X12080586Y-10343160D02*
X12071063Y-10333636D01*
X12071063Y-10333636D02*
X12061539Y-10314589D01*
X12061539Y-10314589D02*
X12052015Y-10276493D01*
X12052015Y-10276493D02*
X12052015Y-10228874D01*
X12052015Y-10228874D02*
X12061539Y-10190779D01*
X12061539Y-10190779D02*
X12071063Y-10171732D01*
X12071063Y-10171732D02*
X12080586Y-10162208D01*
X12080586Y-10162208D02*
X12099634Y-10152684D01*
X12252015Y-10333636D02*
X12261539Y-10343160D01*
X12261539Y-10343160D02*
X12252015Y-10352684D01*
X12252015Y-10352684D02*
X12242491Y-10343160D01*
X12242491Y-10343160D02*
X12252015Y-10333636D01*
X12252015Y-10333636D02*
X12252015Y-10352684D01*
X12385348Y-10152684D02*
X12404396Y-10152684D01*
X12404396Y-10152684D02*
X12423444Y-10162208D01*
X12423444Y-10162208D02*
X12432967Y-10171732D01*
X12432967Y-10171732D02*
X12442491Y-10190779D01*
X12442491Y-10190779D02*
X12452015Y-10228874D01*
X12452015Y-10228874D02*
X12452015Y-10276493D01*
X12452015Y-10276493D02*
X12442491Y-10314589D01*
X12442491Y-10314589D02*
X12432967Y-10333636D01*
X12432967Y-10333636D02*
X12423444Y-10343160D01*
X12423444Y-10343160D02*
X12404396Y-10352684D01*
X12404396Y-10352684D02*
X12385348Y-10352684D01*
X12385348Y-10352684D02*
X12366301Y-10343160D01*
X12366301Y-10343160D02*
X12356777Y-10333636D01*
X12356777Y-10333636D02*
X12347253Y-10314589D01*
X12347253Y-10314589D02*
X12337729Y-10276493D01*
X12337729Y-10276493D02*
X12337729Y-10228874D01*
X12337729Y-10228874D02*
X12347253Y-10190779D01*
X12347253Y-10190779D02*
X12356777Y-10171732D01*
X12356777Y-10171732D02*
X12366301Y-10162208D01*
X12366301Y-10162208D02*
X12385348Y-10152684D01*
X12528205Y-10171732D02*
X12537729Y-10162208D01*
X12537729Y-10162208D02*
X12556777Y-10152684D01*
X12556777Y-10152684D02*
X12604396Y-10152684D01*
X12604396Y-10152684D02*
X12623444Y-10162208D01*
X12623444Y-10162208D02*
X12632967Y-10171732D01*
X12632967Y-10171732D02*
X12642491Y-10190779D01*
X12642491Y-10190779D02*
X12642491Y-10209827D01*
X12642491Y-10209827D02*
X12632967Y-10238398D01*
X12632967Y-10238398D02*
X12518682Y-10352684D01*
X12518682Y-10352684D02*
X12642491Y-10352684D01*
X12737729Y-10352684D02*
X12775824Y-10352684D01*
X12775824Y-10352684D02*
X12794872Y-10343160D01*
X12794872Y-10343160D02*
X12804396Y-10333636D01*
X12804396Y-10333636D02*
X12823444Y-10305065D01*
X12823444Y-10305065D02*
X12832967Y-10266970D01*
X12832967Y-10266970D02*
X12832967Y-10190779D01*
X12832967Y-10190779D02*
X12823444Y-10171732D01*
X12823444Y-10171732D02*
X12813920Y-10162208D01*
X12813920Y-10162208D02*
X12794872Y-10152684D01*
X12794872Y-10152684D02*
X12756777Y-10152684D01*
X12756777Y-10152684D02*
X12737729Y-10162208D01*
X12737729Y-10162208D02*
X12728205Y-10171732D01*
X12728205Y-10171732D02*
X12718682Y-10190779D01*
X12718682Y-10190779D02*
X12718682Y-10238398D01*
X12718682Y-10238398D02*
X12728205Y-10257446D01*
X12728205Y-10257446D02*
X12737729Y-10266970D01*
X12737729Y-10266970D02*
X12756777Y-10276493D01*
X12756777Y-10276493D02*
X12794872Y-10276493D01*
X12794872Y-10276493D02*
X12813920Y-10266970D01*
X12813920Y-10266970D02*
X12823444Y-10257446D01*
X12823444Y-10257446D02*
X12832967Y-10238398D01*
X12928205Y-10352684D02*
X12966301Y-10352684D01*
X12966301Y-10352684D02*
X12985348Y-10343160D01*
X12985348Y-10343160D02*
X12994872Y-10333636D01*
X12994872Y-10333636D02*
X13013920Y-10305065D01*
X13013920Y-10305065D02*
X13023444Y-10266970D01*
X13023444Y-10266970D02*
X13023444Y-10190779D01*
X13023444Y-10190779D02*
X13013920Y-10171732D01*
X13013920Y-10171732D02*
X13004396Y-10162208D01*
X13004396Y-10162208D02*
X12985348Y-10152684D01*
X12985348Y-10152684D02*
X12947253Y-10152684D01*
X12947253Y-10152684D02*
X12928205Y-10162208D01*
X12928205Y-10162208D02*
X12918682Y-10171732D01*
X12918682Y-10171732D02*
X12909158Y-10190779D01*
X12909158Y-10190779D02*
X12909158Y-10238398D01*
X12909158Y-10238398D02*
X12918682Y-10257446D01*
X12918682Y-10257446D02*
X12928205Y-10266970D01*
X12928205Y-10266970D02*
X12947253Y-10276493D01*
X12947253Y-10276493D02*
X12985348Y-10276493D01*
X12985348Y-10276493D02*
X13004396Y-10266970D01*
X13004396Y-10266970D02*
X13013920Y-10257446D01*
X13013920Y-10257446D02*
X13023444Y-10238398D01*
X13099634Y-10152684D02*
X13099634Y-10190779D01*
X13175825Y-10152684D02*
X13175825Y-10190779D01*
X13471063Y-10428874D02*
X13461539Y-10419351D01*
X13461539Y-10419351D02*
X13442491Y-10390779D01*
X13442491Y-10390779D02*
X13432967Y-10371732D01*
X13432967Y-10371732D02*
X13423444Y-10343160D01*
X13423444Y-10343160D02*
X13413920Y-10295541D01*
X13413920Y-10295541D02*
X13413920Y-10257446D01*
X13413920Y-10257446D02*
X13423444Y-10209827D01*
X13423444Y-10209827D02*
X13432967Y-10181255D01*
X13432967Y-10181255D02*
X13442491Y-10162208D01*
X13442491Y-10162208D02*
X13461539Y-10133636D01*
X13461539Y-10133636D02*
X13471063Y-10124112D01*
X13575825Y-10238398D02*
X13556777Y-10228874D01*
X13556777Y-10228874D02*
X13547253Y-10219351D01*
X13547253Y-10219351D02*
X13537729Y-10200303D01*
X13537729Y-10200303D02*
X13537729Y-10190779D01*
X13537729Y-10190779D02*
X13547253Y-10171732D01*
X13547253Y-10171732D02*
X13556777Y-10162208D01*
X13556777Y-10162208D02*
X13575825Y-10152684D01*
X13575825Y-10152684D02*
X13613920Y-10152684D01*
X13613920Y-10152684D02*
X13632967Y-10162208D01*
X13632967Y-10162208D02*
X13642491Y-10171732D01*
X13642491Y-10171732D02*
X13652015Y-10190779D01*
X13652015Y-10190779D02*
X13652015Y-10200303D01*
X13652015Y-10200303D02*
X13642491Y-10219351D01*
X13642491Y-10219351D02*
X13632967Y-10228874D01*
X13632967Y-10228874D02*
X13613920Y-10238398D01*
X13613920Y-10238398D02*
X13575825Y-10238398D01*
X13575825Y-10238398D02*
X13556777Y-10247922D01*
X13556777Y-10247922D02*
X13547253Y-10257446D01*
X13547253Y-10257446D02*
X13537729Y-10276493D01*
X13537729Y-10276493D02*
X13537729Y-10314589D01*
X13537729Y-10314589D02*
X13547253Y-10333636D01*
X13547253Y-10333636D02*
X13556777Y-10343160D01*
X13556777Y-10343160D02*
X13575825Y-10352684D01*
X13575825Y-10352684D02*
X13613920Y-10352684D01*
X13613920Y-10352684D02*
X13632967Y-10343160D01*
X13632967Y-10343160D02*
X13642491Y-10333636D01*
X13642491Y-10333636D02*
X13652015Y-10314589D01*
X13652015Y-10314589D02*
X13652015Y-10276493D01*
X13652015Y-10276493D02*
X13642491Y-10257446D01*
X13642491Y-10257446D02*
X13632967Y-10247922D01*
X13632967Y-10247922D02*
X13613920Y-10238398D01*
X13890110Y-10352684D02*
X13890110Y-10152684D01*
X13975825Y-10352684D02*
X13975825Y-10247922D01*
X13975825Y-10247922D02*
X13966301Y-10228874D01*
X13966301Y-10228874D02*
X13947253Y-10219351D01*
X13947253Y-10219351D02*
X13918682Y-10219351D01*
X13918682Y-10219351D02*
X13899634Y-10228874D01*
X13899634Y-10228874D02*
X13890110Y-10238398D01*
X14099634Y-10352684D02*
X14080587Y-10343160D01*
X14080587Y-10343160D02*
X14071063Y-10333636D01*
X14071063Y-10333636D02*
X14061539Y-10314589D01*
X14061539Y-10314589D02*
X14061539Y-10257446D01*
X14061539Y-10257446D02*
X14071063Y-10238398D01*
X14071063Y-10238398D02*
X14080587Y-10228874D01*
X14080587Y-10228874D02*
X14099634Y-10219351D01*
X14099634Y-10219351D02*
X14128206Y-10219351D01*
X14128206Y-10219351D02*
X14147253Y-10228874D01*
X14147253Y-10228874D02*
X14156777Y-10238398D01*
X14156777Y-10238398D02*
X14166301Y-10257446D01*
X14166301Y-10257446D02*
X14166301Y-10314589D01*
X14166301Y-10314589D02*
X14156777Y-10333636D01*
X14156777Y-10333636D02*
X14147253Y-10343160D01*
X14147253Y-10343160D02*
X14128206Y-10352684D01*
X14128206Y-10352684D02*
X14099634Y-10352684D01*
X14280587Y-10352684D02*
X14261539Y-10343160D01*
X14261539Y-10343160D02*
X14252015Y-10324112D01*
X14252015Y-10324112D02*
X14252015Y-10152684D01*
X14432968Y-10343160D02*
X14413920Y-10352684D01*
X14413920Y-10352684D02*
X14375825Y-10352684D01*
X14375825Y-10352684D02*
X14356777Y-10343160D01*
X14356777Y-10343160D02*
X14347253Y-10324112D01*
X14347253Y-10324112D02*
X14347253Y-10247922D01*
X14347253Y-10247922D02*
X14356777Y-10228874D01*
X14356777Y-10228874D02*
X14375825Y-10219351D01*
X14375825Y-10219351D02*
X14413920Y-10219351D01*
X14413920Y-10219351D02*
X14432968Y-10228874D01*
X14432968Y-10228874D02*
X14442491Y-10247922D01*
X14442491Y-10247922D02*
X14442491Y-10266970D01*
X14442491Y-10266970D02*
X14347253Y-10286017D01*
X14518682Y-10343160D02*
X14537729Y-10352684D01*
X14537729Y-10352684D02*
X14575825Y-10352684D01*
X14575825Y-10352684D02*
X14594872Y-10343160D01*
X14594872Y-10343160D02*
X14604396Y-10324112D01*
X14604396Y-10324112D02*
X14604396Y-10314589D01*
X14604396Y-10314589D02*
X14594872Y-10295541D01*
X14594872Y-10295541D02*
X14575825Y-10286017D01*
X14575825Y-10286017D02*
X14547253Y-10286017D01*
X14547253Y-10286017D02*
X14528206Y-10276493D01*
X14528206Y-10276493D02*
X14518682Y-10257446D01*
X14518682Y-10257446D02*
X14518682Y-10247922D01*
X14518682Y-10247922D02*
X14528206Y-10228874D01*
X14528206Y-10228874D02*
X14547253Y-10219351D01*
X14547253Y-10219351D02*
X14575825Y-10219351D01*
X14575825Y-10219351D02*
X14594872Y-10228874D01*
X14671063Y-10428874D02*
X14680587Y-10419351D01*
X14680587Y-10419351D02*
X14699634Y-10390779D01*
X14699634Y-10390779D02*
X14709158Y-10371732D01*
X14709158Y-10371732D02*
X14718682Y-10343160D01*
X14718682Y-10343160D02*
X14728206Y-10295541D01*
X14728206Y-10295541D02*
X14728206Y-10257446D01*
X14728206Y-10257446D02*
X14718682Y-10209827D01*
X14718682Y-10209827D02*
X14709158Y-10181255D01*
X14709158Y-10181255D02*
X14699634Y-10162208D01*
X14699634Y-10162208D02*
X14680587Y-10133636D01*
X14680587Y-10133636D02*
X14671063Y-10124112D01*
D10*
X9856000Y-10485200D02*
X9856000Y-10565200D01*
X9816000Y-10525200D02*
X9896000Y-10525200D01*
D11*
X10194872Y-10416684D02*
X10213920Y-10416684D01*
X10213920Y-10416684D02*
X10232967Y-10426208D01*
X10232967Y-10426208D02*
X10242491Y-10435732D01*
X10242491Y-10435732D02*
X10252015Y-10454779D01*
X10252015Y-10454779D02*
X10261539Y-10492874D01*
X10261539Y-10492874D02*
X10261539Y-10540493D01*
X10261539Y-10540493D02*
X10252015Y-10578589D01*
X10252015Y-10578589D02*
X10242491Y-10597636D01*
X10242491Y-10597636D02*
X10232967Y-10607160D01*
X10232967Y-10607160D02*
X10213920Y-10616684D01*
X10213920Y-10616684D02*
X10194872Y-10616684D01*
X10194872Y-10616684D02*
X10175824Y-10607160D01*
X10175824Y-10607160D02*
X10166301Y-10597636D01*
X10166301Y-10597636D02*
X10156777Y-10578589D01*
X10156777Y-10578589D02*
X10147253Y-10540493D01*
X10147253Y-10540493D02*
X10147253Y-10492874D01*
X10147253Y-10492874D02*
X10156777Y-10454779D01*
X10156777Y-10454779D02*
X10166301Y-10435732D01*
X10166301Y-10435732D02*
X10175824Y-10426208D01*
X10175824Y-10426208D02*
X10194872Y-10416684D01*
X10347253Y-10597636D02*
X10356777Y-10607160D01*
X10356777Y-10607160D02*
X10347253Y-10616684D01*
X10347253Y-10616684D02*
X10337729Y-10607160D01*
X10337729Y-10607160D02*
X10347253Y-10597636D01*
X10347253Y-10597636D02*
X10347253Y-10616684D01*
X10471062Y-10502398D02*
X10452015Y-10492874D01*
X10452015Y-10492874D02*
X10442491Y-10483351D01*
X10442491Y-10483351D02*
X10432967Y-10464303D01*
X10432967Y-10464303D02*
X10432967Y-10454779D01*
X10432967Y-10454779D02*
X10442491Y-10435732D01*
X10442491Y-10435732D02*
X10452015Y-10426208D01*
X10452015Y-10426208D02*
X10471062Y-10416684D01*
X10471062Y-10416684D02*
X10509158Y-10416684D01*
X10509158Y-10416684D02*
X10528205Y-10426208D01*
X10528205Y-10426208D02*
X10537729Y-10435732D01*
X10537729Y-10435732D02*
X10547253Y-10454779D01*
X10547253Y-10454779D02*
X10547253Y-10464303D01*
X10547253Y-10464303D02*
X10537729Y-10483351D01*
X10537729Y-10483351D02*
X10528205Y-10492874D01*
X10528205Y-10492874D02*
X10509158Y-10502398D01*
X10509158Y-10502398D02*
X10471062Y-10502398D01*
X10471062Y-10502398D02*
X10452015Y-10511922D01*
X10452015Y-10511922D02*
X10442491Y-10521446D01*
X10442491Y-10521446D02*
X10432967Y-10540493D01*
X10432967Y-10540493D02*
X10432967Y-10578589D01*
X10432967Y-10578589D02*
X10442491Y-10597636D01*
X10442491Y-10597636D02*
X10452015Y-10607160D01*
X10452015Y-10607160D02*
X10471062Y-10616684D01*
X10471062Y-10616684D02*
X10509158Y-10616684D01*
X10509158Y-10616684D02*
X10528205Y-10607160D01*
X10528205Y-10607160D02*
X10537729Y-10597636D01*
X10537729Y-10597636D02*
X10547253Y-10578589D01*
X10547253Y-10578589D02*
X10547253Y-10540493D01*
X10547253Y-10540493D02*
X10537729Y-10521446D01*
X10537729Y-10521446D02*
X10528205Y-10511922D01*
X10528205Y-10511922D02*
X10509158Y-10502398D01*
X10671062Y-10416684D02*
X10690110Y-10416684D01*
X10690110Y-10416684D02*
X10709158Y-10426208D01*
X10709158Y-10426208D02*
X10718682Y-10435732D01*
X10718682Y-10435732D02*
X10728205Y-10454779D01*
X10728205Y-10454779D02*
X10737729Y-10492874D01*
X10737729Y-10492874D02*
X10737729Y-10540493D01*
X10737729Y-10540493D02*
X10728205Y-10578589D01*
X10728205Y-10578589D02*
X10718682Y-10597636D01*
X10718682Y-10597636D02*
X10709158Y-10607160D01*
X10709158Y-10607160D02*
X10690110Y-10616684D01*
X10690110Y-10616684D02*
X10671062Y-10616684D01*
X10671062Y-10616684D02*
X10652015Y-10607160D01*
X10652015Y-10607160D02*
X10642491Y-10597636D01*
X10642491Y-10597636D02*
X10632967Y-10578589D01*
X10632967Y-10578589D02*
X10623443Y-10540493D01*
X10623443Y-10540493D02*
X10623443Y-10492874D01*
X10623443Y-10492874D02*
X10632967Y-10454779D01*
X10632967Y-10454779D02*
X10642491Y-10435732D01*
X10642491Y-10435732D02*
X10652015Y-10426208D01*
X10652015Y-10426208D02*
X10671062Y-10416684D01*
X10861539Y-10416684D02*
X10880586Y-10416684D01*
X10880586Y-10416684D02*
X10899634Y-10426208D01*
X10899634Y-10426208D02*
X10909158Y-10435732D01*
X10909158Y-10435732D02*
X10918682Y-10454779D01*
X10918682Y-10454779D02*
X10928205Y-10492874D01*
X10928205Y-10492874D02*
X10928205Y-10540493D01*
X10928205Y-10540493D02*
X10918682Y-10578589D01*
X10918682Y-10578589D02*
X10909158Y-10597636D01*
X10909158Y-10597636D02*
X10899634Y-10607160D01*
X10899634Y-10607160D02*
X10880586Y-10616684D01*
X10880586Y-10616684D02*
X10861539Y-10616684D01*
X10861539Y-10616684D02*
X10842491Y-10607160D01*
X10842491Y-10607160D02*
X10832967Y-10597636D01*
X10832967Y-10597636D02*
X10823443Y-10578589D01*
X10823443Y-10578589D02*
X10813920Y-10540493D01*
X10813920Y-10540493D02*
X10813920Y-10492874D01*
X10813920Y-10492874D02*
X10823443Y-10454779D01*
X10823443Y-10454779D02*
X10832967Y-10435732D01*
X10832967Y-10435732D02*
X10842491Y-10426208D01*
X10842491Y-10426208D02*
X10861539Y-10416684D01*
X11013920Y-10616684D02*
X11013920Y-10483351D01*
X11013920Y-10502398D02*
X11023443Y-10492874D01*
X11023443Y-10492874D02*
X11042491Y-10483351D01*
X11042491Y-10483351D02*
X11071063Y-10483351D01*
X11071063Y-10483351D02*
X11090110Y-10492874D01*
X11090110Y-10492874D02*
X11099634Y-10511922D01*
X11099634Y-10511922D02*
X11099634Y-10616684D01*
X11099634Y-10511922D02*
X11109158Y-10492874D01*
X11109158Y-10492874D02*
X11128205Y-10483351D01*
X11128205Y-10483351D02*
X11156777Y-10483351D01*
X11156777Y-10483351D02*
X11175824Y-10492874D01*
X11175824Y-10492874D02*
X11185348Y-10511922D01*
X11185348Y-10511922D02*
X11185348Y-10616684D01*
X11280586Y-10616684D02*
X11280586Y-10483351D01*
X11280586Y-10502398D02*
X11290110Y-10492874D01*
X11290110Y-10492874D02*
X11309158Y-10483351D01*
X11309158Y-10483351D02*
X11337729Y-10483351D01*
X11337729Y-10483351D02*
X11356777Y-10492874D01*
X11356777Y-10492874D02*
X11366301Y-10511922D01*
X11366301Y-10511922D02*
X11366301Y-10616684D01*
X11366301Y-10511922D02*
X11375824Y-10492874D01*
X11375824Y-10492874D02*
X11394872Y-10483351D01*
X11394872Y-10483351D02*
X11423443Y-10483351D01*
X11423443Y-10483351D02*
X11442491Y-10492874D01*
X11442491Y-10492874D02*
X11452015Y-10511922D01*
X11452015Y-10511922D02*
X11452015Y-10616684D01*
X11842491Y-10407160D02*
X11671063Y-10664303D01*
X12099634Y-10416684D02*
X12118682Y-10416684D01*
X12118682Y-10416684D02*
X12137729Y-10426208D01*
X12137729Y-10426208D02*
X12147253Y-10435732D01*
X12147253Y-10435732D02*
X12156777Y-10454779D01*
X12156777Y-10454779D02*
X12166301Y-10492874D01*
X12166301Y-10492874D02*
X12166301Y-10540493D01*
X12166301Y-10540493D02*
X12156777Y-10578589D01*
X12156777Y-10578589D02*
X12147253Y-10597636D01*
X12147253Y-10597636D02*
X12137729Y-10607160D01*
X12137729Y-10607160D02*
X12118682Y-10616684D01*
X12118682Y-10616684D02*
X12099634Y-10616684D01*
X12099634Y-10616684D02*
X12080586Y-10607160D01*
X12080586Y-10607160D02*
X12071063Y-10597636D01*
X12071063Y-10597636D02*
X12061539Y-10578589D01*
X12061539Y-10578589D02*
X12052015Y-10540493D01*
X12052015Y-10540493D02*
X12052015Y-10492874D01*
X12052015Y-10492874D02*
X12061539Y-10454779D01*
X12061539Y-10454779D02*
X12071063Y-10435732D01*
X12071063Y-10435732D02*
X12080586Y-10426208D01*
X12080586Y-10426208D02*
X12099634Y-10416684D01*
X12252015Y-10597636D02*
X12261539Y-10607160D01*
X12261539Y-10607160D02*
X12252015Y-10616684D01*
X12252015Y-10616684D02*
X12242491Y-10607160D01*
X12242491Y-10607160D02*
X12252015Y-10597636D01*
X12252015Y-10597636D02*
X12252015Y-10616684D01*
X12385348Y-10416684D02*
X12404396Y-10416684D01*
X12404396Y-10416684D02*
X12423444Y-10426208D01*
X12423444Y-10426208D02*
X12432967Y-10435732D01*
X12432967Y-10435732D02*
X12442491Y-10454779D01*
X12442491Y-10454779D02*
X12452015Y-10492874D01*
X12452015Y-10492874D02*
X12452015Y-10540493D01*
X12452015Y-10540493D02*
X12442491Y-10578589D01*
X12442491Y-10578589D02*
X12432967Y-10597636D01*
X12432967Y-10597636D02*
X12423444Y-10607160D01*
X12423444Y-10607160D02*
X12404396Y-10616684D01*
X12404396Y-10616684D02*
X12385348Y-10616684D01*
X12385348Y-10616684D02*
X12366301Y-10607160D01*
X12366301Y-10607160D02*
X12356777Y-10597636D01*
X12356777Y-10597636D02*
X12347253Y-10578589D01*
X12347253Y-10578589D02*
X12337729Y-10540493D01*
X12337729Y-10540493D02*
X12337729Y-10492874D01*
X12337729Y-10492874D02*
X12347253Y-10454779D01*
X12347253Y-10454779D02*
X12356777Y-10435732D01*
X12356777Y-10435732D02*
X12366301Y-10426208D01*
X12366301Y-10426208D02*
X12385348Y-10416684D01*
X12518682Y-10416684D02*
X12642491Y-10416684D01*
X12642491Y-10416684D02*
X12575824Y-10492874D01*
X12575824Y-10492874D02*
X12604396Y-10492874D01*
X12604396Y-10492874D02*
X12623444Y-10502398D01*
X12623444Y-10502398D02*
X12632967Y-10511922D01*
X12632967Y-10511922D02*
X12642491Y-10530970D01*
X12642491Y-10530970D02*
X12642491Y-10578589D01*
X12642491Y-10578589D02*
X12632967Y-10597636D01*
X12632967Y-10597636D02*
X12623444Y-10607160D01*
X12623444Y-10607160D02*
X12604396Y-10616684D01*
X12604396Y-10616684D02*
X12547253Y-10616684D01*
X12547253Y-10616684D02*
X12528205Y-10607160D01*
X12528205Y-10607160D02*
X12518682Y-10597636D01*
X12832967Y-10616684D02*
X12718682Y-10616684D01*
X12775824Y-10616684D02*
X12775824Y-10416684D01*
X12775824Y-10416684D02*
X12756777Y-10445255D01*
X12756777Y-10445255D02*
X12737729Y-10464303D01*
X12737729Y-10464303D02*
X12718682Y-10473827D01*
X13013920Y-10416684D02*
X12918682Y-10416684D01*
X12918682Y-10416684D02*
X12909158Y-10511922D01*
X12909158Y-10511922D02*
X12918682Y-10502398D01*
X12918682Y-10502398D02*
X12937729Y-10492874D01*
X12937729Y-10492874D02*
X12985348Y-10492874D01*
X12985348Y-10492874D02*
X13004396Y-10502398D01*
X13004396Y-10502398D02*
X13013920Y-10511922D01*
X13013920Y-10511922D02*
X13023444Y-10530970D01*
X13023444Y-10530970D02*
X13023444Y-10578589D01*
X13023444Y-10578589D02*
X13013920Y-10597636D01*
X13013920Y-10597636D02*
X13004396Y-10607160D01*
X13004396Y-10607160D02*
X12985348Y-10616684D01*
X12985348Y-10616684D02*
X12937729Y-10616684D01*
X12937729Y-10616684D02*
X12918682Y-10607160D01*
X12918682Y-10607160D02*
X12909158Y-10597636D01*
X13099634Y-10416684D02*
X13099634Y-10454779D01*
X13175825Y-10416684D02*
X13175825Y-10454779D01*
X13471063Y-10692874D02*
X13461539Y-10683351D01*
X13461539Y-10683351D02*
X13442491Y-10654779D01*
X13442491Y-10654779D02*
X13432967Y-10635732D01*
X13432967Y-10635732D02*
X13423444Y-10607160D01*
X13423444Y-10607160D02*
X13413920Y-10559541D01*
X13413920Y-10559541D02*
X13413920Y-10521446D01*
X13413920Y-10521446D02*
X13423444Y-10473827D01*
X13423444Y-10473827D02*
X13432967Y-10445255D01*
X13432967Y-10445255D02*
X13442491Y-10426208D01*
X13442491Y-10426208D02*
X13461539Y-10397636D01*
X13461539Y-10397636D02*
X13471063Y-10388112D01*
X13537729Y-10435732D02*
X13547253Y-10426208D01*
X13547253Y-10426208D02*
X13566301Y-10416684D01*
X13566301Y-10416684D02*
X13613920Y-10416684D01*
X13613920Y-10416684D02*
X13632967Y-10426208D01*
X13632967Y-10426208D02*
X13642491Y-10435732D01*
X13642491Y-10435732D02*
X13652015Y-10454779D01*
X13652015Y-10454779D02*
X13652015Y-10473827D01*
X13652015Y-10473827D02*
X13642491Y-10502398D01*
X13642491Y-10502398D02*
X13528206Y-10616684D01*
X13528206Y-10616684D02*
X13652015Y-10616684D01*
X13890110Y-10616684D02*
X13890110Y-10416684D01*
X13975825Y-10616684D02*
X13975825Y-10511922D01*
X13975825Y-10511922D02*
X13966301Y-10492874D01*
X13966301Y-10492874D02*
X13947253Y-10483351D01*
X13947253Y-10483351D02*
X13918682Y-10483351D01*
X13918682Y-10483351D02*
X13899634Y-10492874D01*
X13899634Y-10492874D02*
X13890110Y-10502398D01*
X14099634Y-10616684D02*
X14080587Y-10607160D01*
X14080587Y-10607160D02*
X14071063Y-10597636D01*
X14071063Y-10597636D02*
X14061539Y-10578589D01*
X14061539Y-10578589D02*
X14061539Y-10521446D01*
X14061539Y-10521446D02*
X14071063Y-10502398D01*
X14071063Y-10502398D02*
X14080587Y-10492874D01*
X14080587Y-10492874D02*
X14099634Y-10483351D01*
X14099634Y-10483351D02*
X14128206Y-10483351D01*
X14128206Y-10483351D02*
X14147253Y-10492874D01*
X14147253Y-10492874D02*
X14156777Y-10502398D01*
X14156777Y-10502398D02*
X14166301Y-10521446D01*
X14166301Y-10521446D02*
X14166301Y-10578589D01*
X14166301Y-10578589D02*
X14156777Y-10597636D01*
X14156777Y-10597636D02*
X14147253Y-10607160D01*
X14147253Y-10607160D02*
X14128206Y-10616684D01*
X14128206Y-10616684D02*
X14099634Y-10616684D01*
X14280587Y-10616684D02*
X14261539Y-10607160D01*
X14261539Y-10607160D02*
X14252015Y-10588112D01*
X14252015Y-10588112D02*
X14252015Y-10416684D01*
X14432968Y-10607160D02*
X14413920Y-10616684D01*
X14413920Y-10616684D02*
X14375825Y-10616684D01*
X14375825Y-10616684D02*
X14356777Y-10607160D01*
X14356777Y-10607160D02*
X14347253Y-10588112D01*
X14347253Y-10588112D02*
X14347253Y-10511922D01*
X14347253Y-10511922D02*
X14356777Y-10492874D01*
X14356777Y-10492874D02*
X14375825Y-10483351D01*
X14375825Y-10483351D02*
X14413920Y-10483351D01*
X14413920Y-10483351D02*
X14432968Y-10492874D01*
X14432968Y-10492874D02*
X14442491Y-10511922D01*
X14442491Y-10511922D02*
X14442491Y-10530970D01*
X14442491Y-10530970D02*
X14347253Y-10550017D01*
X14518682Y-10607160D02*
X14537729Y-10616684D01*
X14537729Y-10616684D02*
X14575825Y-10616684D01*
X14575825Y-10616684D02*
X14594872Y-10607160D01*
X14594872Y-10607160D02*
X14604396Y-10588112D01*
X14604396Y-10588112D02*
X14604396Y-10578589D01*
X14604396Y-10578589D02*
X14594872Y-10559541D01*
X14594872Y-10559541D02*
X14575825Y-10550017D01*
X14575825Y-10550017D02*
X14547253Y-10550017D01*
X14547253Y-10550017D02*
X14528206Y-10540493D01*
X14528206Y-10540493D02*
X14518682Y-10521446D01*
X14518682Y-10521446D02*
X14518682Y-10511922D01*
X14518682Y-10511922D02*
X14528206Y-10492874D01*
X14528206Y-10492874D02*
X14547253Y-10483351D01*
X14547253Y-10483351D02*
X14575825Y-10483351D01*
X14575825Y-10483351D02*
X14594872Y-10492874D01*
X14671063Y-10692874D02*
X14680587Y-10683351D01*
X14680587Y-10683351D02*
X14699634Y-10654779D01*
X14699634Y-10654779D02*
X14709158Y-10635732D01*
X14709158Y-10635732D02*
X14718682Y-10607160D01*
X14718682Y-10607160D02*
X14728206Y-10559541D01*
X14728206Y-10559541D02*
X14728206Y-10521446D01*
X14728206Y-10521446D02*
X14718682Y-10473827D01*
X14718682Y-10473827D02*
X14709158Y-10445255D01*
X14709158Y-10445255D02*
X14699634Y-10426208D01*
X14699634Y-10426208D02*
X14680587Y-10397636D01*
X14680587Y-10397636D02*
X14671063Y-10388112D01*
D10*
X9882820Y-10821020D02*
X9882820Y-10757380D01*
X9819180Y-10757380D01*
X9819180Y-10821020D01*
X9882820Y-10821020D01*
D11*
X10194872Y-10680684D02*
X10213920Y-10680684D01*
X10213920Y-10680684D02*
X10232967Y-10690208D01*
X10232967Y-10690208D02*
X10242491Y-10699732D01*
X10242491Y-10699732D02*
X10252015Y-10718779D01*
X10252015Y-10718779D02*
X10261539Y-10756874D01*
X10261539Y-10756874D02*
X10261539Y-10804493D01*
X10261539Y-10804493D02*
X10252015Y-10842589D01*
X10252015Y-10842589D02*
X10242491Y-10861636D01*
X10242491Y-10861636D02*
X10232967Y-10871160D01*
X10232967Y-10871160D02*
X10213920Y-10880684D01*
X10213920Y-10880684D02*
X10194872Y-10880684D01*
X10194872Y-10880684D02*
X10175824Y-10871160D01*
X10175824Y-10871160D02*
X10166301Y-10861636D01*
X10166301Y-10861636D02*
X10156777Y-10842589D01*
X10156777Y-10842589D02*
X10147253Y-10804493D01*
X10147253Y-10804493D02*
X10147253Y-10756874D01*
X10147253Y-10756874D02*
X10156777Y-10718779D01*
X10156777Y-10718779D02*
X10166301Y-10699732D01*
X10166301Y-10699732D02*
X10175824Y-10690208D01*
X10175824Y-10690208D02*
X10194872Y-10680684D01*
X10347253Y-10861636D02*
X10356777Y-10871160D01*
X10356777Y-10871160D02*
X10347253Y-10880684D01*
X10347253Y-10880684D02*
X10337729Y-10871160D01*
X10337729Y-10871160D02*
X10347253Y-10861636D01*
X10347253Y-10861636D02*
X10347253Y-10880684D01*
X10452015Y-10880684D02*
X10490110Y-10880684D01*
X10490110Y-10880684D02*
X10509158Y-10871160D01*
X10509158Y-10871160D02*
X10518682Y-10861636D01*
X10518682Y-10861636D02*
X10537729Y-10833065D01*
X10537729Y-10833065D02*
X10547253Y-10794970D01*
X10547253Y-10794970D02*
X10547253Y-10718779D01*
X10547253Y-10718779D02*
X10537729Y-10699732D01*
X10537729Y-10699732D02*
X10528205Y-10690208D01*
X10528205Y-10690208D02*
X10509158Y-10680684D01*
X10509158Y-10680684D02*
X10471062Y-10680684D01*
X10471062Y-10680684D02*
X10452015Y-10690208D01*
X10452015Y-10690208D02*
X10442491Y-10699732D01*
X10442491Y-10699732D02*
X10432967Y-10718779D01*
X10432967Y-10718779D02*
X10432967Y-10766398D01*
X10432967Y-10766398D02*
X10442491Y-10785446D01*
X10442491Y-10785446D02*
X10452015Y-10794970D01*
X10452015Y-10794970D02*
X10471062Y-10804493D01*
X10471062Y-10804493D02*
X10509158Y-10804493D01*
X10509158Y-10804493D02*
X10528205Y-10794970D01*
X10528205Y-10794970D02*
X10537729Y-10785446D01*
X10537729Y-10785446D02*
X10547253Y-10766398D01*
X10671062Y-10680684D02*
X10690110Y-10680684D01*
X10690110Y-10680684D02*
X10709158Y-10690208D01*
X10709158Y-10690208D02*
X10718682Y-10699732D01*
X10718682Y-10699732D02*
X10728205Y-10718779D01*
X10728205Y-10718779D02*
X10737729Y-10756874D01*
X10737729Y-10756874D02*
X10737729Y-10804493D01*
X10737729Y-10804493D02*
X10728205Y-10842589D01*
X10728205Y-10842589D02*
X10718682Y-10861636D01*
X10718682Y-10861636D02*
X10709158Y-10871160D01*
X10709158Y-10871160D02*
X10690110Y-10880684D01*
X10690110Y-10880684D02*
X10671062Y-10880684D01*
X10671062Y-10880684D02*
X10652015Y-10871160D01*
X10652015Y-10871160D02*
X10642491Y-10861636D01*
X10642491Y-10861636D02*
X10632967Y-10842589D01*
X10632967Y-10842589D02*
X10623443Y-10804493D01*
X10623443Y-10804493D02*
X10623443Y-10756874D01*
X10623443Y-10756874D02*
X10632967Y-10718779D01*
X10632967Y-10718779D02*
X10642491Y-10699732D01*
X10642491Y-10699732D02*
X10652015Y-10690208D01*
X10652015Y-10690208D02*
X10671062Y-10680684D01*
X10861539Y-10680684D02*
X10880586Y-10680684D01*
X10880586Y-10680684D02*
X10899634Y-10690208D01*
X10899634Y-10690208D02*
X10909158Y-10699732D01*
X10909158Y-10699732D02*
X10918682Y-10718779D01*
X10918682Y-10718779D02*
X10928205Y-10756874D01*
X10928205Y-10756874D02*
X10928205Y-10804493D01*
X10928205Y-10804493D02*
X10918682Y-10842589D01*
X10918682Y-10842589D02*
X10909158Y-10861636D01*
X10909158Y-10861636D02*
X10899634Y-10871160D01*
X10899634Y-10871160D02*
X10880586Y-10880684D01*
X10880586Y-10880684D02*
X10861539Y-10880684D01*
X10861539Y-10880684D02*
X10842491Y-10871160D01*
X10842491Y-10871160D02*
X10832967Y-10861636D01*
X10832967Y-10861636D02*
X10823443Y-10842589D01*
X10823443Y-10842589D02*
X10813920Y-10804493D01*
X10813920Y-10804493D02*
X10813920Y-10756874D01*
X10813920Y-10756874D02*
X10823443Y-10718779D01*
X10823443Y-10718779D02*
X10832967Y-10699732D01*
X10832967Y-10699732D02*
X10842491Y-10690208D01*
X10842491Y-10690208D02*
X10861539Y-10680684D01*
X11013920Y-10880684D02*
X11013920Y-10747351D01*
X11013920Y-10766398D02*
X11023443Y-10756874D01*
X11023443Y-10756874D02*
X11042491Y-10747351D01*
X11042491Y-10747351D02*
X11071063Y-10747351D01*
X11071063Y-10747351D02*
X11090110Y-10756874D01*
X11090110Y-10756874D02*
X11099634Y-10775922D01*
X11099634Y-10775922D02*
X11099634Y-10880684D01*
X11099634Y-10775922D02*
X11109158Y-10756874D01*
X11109158Y-10756874D02*
X11128205Y-10747351D01*
X11128205Y-10747351D02*
X11156777Y-10747351D01*
X11156777Y-10747351D02*
X11175824Y-10756874D01*
X11175824Y-10756874D02*
X11185348Y-10775922D01*
X11185348Y-10775922D02*
X11185348Y-10880684D01*
X11280586Y-10880684D02*
X11280586Y-10747351D01*
X11280586Y-10766398D02*
X11290110Y-10756874D01*
X11290110Y-10756874D02*
X11309158Y-10747351D01*
X11309158Y-10747351D02*
X11337729Y-10747351D01*
X11337729Y-10747351D02*
X11356777Y-10756874D01*
X11356777Y-10756874D02*
X11366301Y-10775922D01*
X11366301Y-10775922D02*
X11366301Y-10880684D01*
X11366301Y-10775922D02*
X11375824Y-10756874D01*
X11375824Y-10756874D02*
X11394872Y-10747351D01*
X11394872Y-10747351D02*
X11423443Y-10747351D01*
X11423443Y-10747351D02*
X11442491Y-10756874D01*
X11442491Y-10756874D02*
X11452015Y-10775922D01*
X11452015Y-10775922D02*
X11452015Y-10880684D01*
X11842491Y-10671160D02*
X11671063Y-10928303D01*
X12099634Y-10680684D02*
X12118682Y-10680684D01*
X12118682Y-10680684D02*
X12137729Y-10690208D01*
X12137729Y-10690208D02*
X12147253Y-10699732D01*
X12147253Y-10699732D02*
X12156777Y-10718779D01*
X12156777Y-10718779D02*
X12166301Y-10756874D01*
X12166301Y-10756874D02*
X12166301Y-10804493D01*
X12166301Y-10804493D02*
X12156777Y-10842589D01*
X12156777Y-10842589D02*
X12147253Y-10861636D01*
X12147253Y-10861636D02*
X12137729Y-10871160D01*
X12137729Y-10871160D02*
X12118682Y-10880684D01*
X12118682Y-10880684D02*
X12099634Y-10880684D01*
X12099634Y-10880684D02*
X12080586Y-10871160D01*
X12080586Y-10871160D02*
X12071063Y-10861636D01*
X12071063Y-10861636D02*
X12061539Y-10842589D01*
X12061539Y-10842589D02*
X12052015Y-10804493D01*
X12052015Y-10804493D02*
X12052015Y-10756874D01*
X12052015Y-10756874D02*
X12061539Y-10718779D01*
X12061539Y-10718779D02*
X12071063Y-10699732D01*
X12071063Y-10699732D02*
X12080586Y-10690208D01*
X12080586Y-10690208D02*
X12099634Y-10680684D01*
X12252015Y-10861636D02*
X12261539Y-10871160D01*
X12261539Y-10871160D02*
X12252015Y-10880684D01*
X12252015Y-10880684D02*
X12242491Y-10871160D01*
X12242491Y-10871160D02*
X12252015Y-10861636D01*
X12252015Y-10861636D02*
X12252015Y-10880684D01*
X12385348Y-10680684D02*
X12404396Y-10680684D01*
X12404396Y-10680684D02*
X12423444Y-10690208D01*
X12423444Y-10690208D02*
X12432967Y-10699732D01*
X12432967Y-10699732D02*
X12442491Y-10718779D01*
X12442491Y-10718779D02*
X12452015Y-10756874D01*
X12452015Y-10756874D02*
X12452015Y-10804493D01*
X12452015Y-10804493D02*
X12442491Y-10842589D01*
X12442491Y-10842589D02*
X12432967Y-10861636D01*
X12432967Y-10861636D02*
X12423444Y-10871160D01*
X12423444Y-10871160D02*
X12404396Y-10880684D01*
X12404396Y-10880684D02*
X12385348Y-10880684D01*
X12385348Y-10880684D02*
X12366301Y-10871160D01*
X12366301Y-10871160D02*
X12356777Y-10861636D01*
X12356777Y-10861636D02*
X12347253Y-10842589D01*
X12347253Y-10842589D02*
X12337729Y-10804493D01*
X12337729Y-10804493D02*
X12337729Y-10756874D01*
X12337729Y-10756874D02*
X12347253Y-10718779D01*
X12347253Y-10718779D02*
X12356777Y-10699732D01*
X12356777Y-10699732D02*
X12366301Y-10690208D01*
X12366301Y-10690208D02*
X12385348Y-10680684D01*
X12518682Y-10680684D02*
X12642491Y-10680684D01*
X12642491Y-10680684D02*
X12575824Y-10756874D01*
X12575824Y-10756874D02*
X12604396Y-10756874D01*
X12604396Y-10756874D02*
X12623444Y-10766398D01*
X12623444Y-10766398D02*
X12632967Y-10775922D01*
X12632967Y-10775922D02*
X12642491Y-10794970D01*
X12642491Y-10794970D02*
X12642491Y-10842589D01*
X12642491Y-10842589D02*
X12632967Y-10861636D01*
X12632967Y-10861636D02*
X12623444Y-10871160D01*
X12623444Y-10871160D02*
X12604396Y-10880684D01*
X12604396Y-10880684D02*
X12547253Y-10880684D01*
X12547253Y-10880684D02*
X12528205Y-10871160D01*
X12528205Y-10871160D02*
X12518682Y-10861636D01*
X12823444Y-10680684D02*
X12728205Y-10680684D01*
X12728205Y-10680684D02*
X12718682Y-10775922D01*
X12718682Y-10775922D02*
X12728205Y-10766398D01*
X12728205Y-10766398D02*
X12747253Y-10756874D01*
X12747253Y-10756874D02*
X12794872Y-10756874D01*
X12794872Y-10756874D02*
X12813920Y-10766398D01*
X12813920Y-10766398D02*
X12823444Y-10775922D01*
X12823444Y-10775922D02*
X12832967Y-10794970D01*
X12832967Y-10794970D02*
X12832967Y-10842589D01*
X12832967Y-10842589D02*
X12823444Y-10861636D01*
X12823444Y-10861636D02*
X12813920Y-10871160D01*
X12813920Y-10871160D02*
X12794872Y-10880684D01*
X12794872Y-10880684D02*
X12747253Y-10880684D01*
X12747253Y-10880684D02*
X12728205Y-10871160D01*
X12728205Y-10871160D02*
X12718682Y-10861636D01*
X13004396Y-10747351D02*
X13004396Y-10880684D01*
X12956777Y-10671160D02*
X12909158Y-10814017D01*
X12909158Y-10814017D02*
X13032967Y-10814017D01*
X13099634Y-10680684D02*
X13099634Y-10718779D01*
X13175825Y-10680684D02*
X13175825Y-10718779D01*
X13471063Y-10956874D02*
X13461539Y-10947351D01*
X13461539Y-10947351D02*
X13442491Y-10918779D01*
X13442491Y-10918779D02*
X13432967Y-10899732D01*
X13432967Y-10899732D02*
X13423444Y-10871160D01*
X13423444Y-10871160D02*
X13413920Y-10823541D01*
X13413920Y-10823541D02*
X13413920Y-10785446D01*
X13413920Y-10785446D02*
X13423444Y-10737827D01*
X13423444Y-10737827D02*
X13432967Y-10709255D01*
X13432967Y-10709255D02*
X13442491Y-10690208D01*
X13442491Y-10690208D02*
X13461539Y-10661636D01*
X13461539Y-10661636D02*
X13471063Y-10652112D01*
X13632967Y-10747351D02*
X13632967Y-10880684D01*
X13585348Y-10671160D02*
X13537729Y-10814017D01*
X13537729Y-10814017D02*
X13661539Y-10814017D01*
X13775825Y-10680684D02*
X13794872Y-10680684D01*
X13794872Y-10680684D02*
X13813920Y-10690208D01*
X13813920Y-10690208D02*
X13823444Y-10699732D01*
X13823444Y-10699732D02*
X13832967Y-10718779D01*
X13832967Y-10718779D02*
X13842491Y-10756874D01*
X13842491Y-10756874D02*
X13842491Y-10804493D01*
X13842491Y-10804493D02*
X13832967Y-10842589D01*
X13832967Y-10842589D02*
X13823444Y-10861636D01*
X13823444Y-10861636D02*
X13813920Y-10871160D01*
X13813920Y-10871160D02*
X13794872Y-10880684D01*
X13794872Y-10880684D02*
X13775825Y-10880684D01*
X13775825Y-10880684D02*
X13756777Y-10871160D01*
X13756777Y-10871160D02*
X13747253Y-10861636D01*
X13747253Y-10861636D02*
X13737729Y-10842589D01*
X13737729Y-10842589D02*
X13728206Y-10804493D01*
X13728206Y-10804493D02*
X13728206Y-10756874D01*
X13728206Y-10756874D02*
X13737729Y-10718779D01*
X13737729Y-10718779D02*
X13747253Y-10699732D01*
X13747253Y-10699732D02*
X13756777Y-10690208D01*
X13756777Y-10690208D02*
X13775825Y-10680684D01*
X14080587Y-10880684D02*
X14080587Y-10680684D01*
X14166301Y-10880684D02*
X14166301Y-10775922D01*
X14166301Y-10775922D02*
X14156777Y-10756874D01*
X14156777Y-10756874D02*
X14137729Y-10747351D01*
X14137729Y-10747351D02*
X14109158Y-10747351D01*
X14109158Y-10747351D02*
X14090110Y-10756874D01*
X14090110Y-10756874D02*
X14080587Y-10766398D01*
X14290110Y-10880684D02*
X14271063Y-10871160D01*
X14271063Y-10871160D02*
X14261539Y-10861636D01*
X14261539Y-10861636D02*
X14252015Y-10842589D01*
X14252015Y-10842589D02*
X14252015Y-10785446D01*
X14252015Y-10785446D02*
X14261539Y-10766398D01*
X14261539Y-10766398D02*
X14271063Y-10756874D01*
X14271063Y-10756874D02*
X14290110Y-10747351D01*
X14290110Y-10747351D02*
X14318682Y-10747351D01*
X14318682Y-10747351D02*
X14337729Y-10756874D01*
X14337729Y-10756874D02*
X14347253Y-10766398D01*
X14347253Y-10766398D02*
X14356777Y-10785446D01*
X14356777Y-10785446D02*
X14356777Y-10842589D01*
X14356777Y-10842589D02*
X14347253Y-10861636D01*
X14347253Y-10861636D02*
X14337729Y-10871160D01*
X14337729Y-10871160D02*
X14318682Y-10880684D01*
X14318682Y-10880684D02*
X14290110Y-10880684D01*
X14471063Y-10880684D02*
X14452015Y-10871160D01*
X14452015Y-10871160D02*
X14442491Y-10852112D01*
X14442491Y-10852112D02*
X14442491Y-10680684D01*
X14623444Y-10871160D02*
X14604396Y-10880684D01*
X14604396Y-10880684D02*
X14566301Y-10880684D01*
X14566301Y-10880684D02*
X14547253Y-10871160D01*
X14547253Y-10871160D02*
X14537729Y-10852112D01*
X14537729Y-10852112D02*
X14537729Y-10775922D01*
X14537729Y-10775922D02*
X14547253Y-10756874D01*
X14547253Y-10756874D02*
X14566301Y-10747351D01*
X14566301Y-10747351D02*
X14604396Y-10747351D01*
X14604396Y-10747351D02*
X14623444Y-10756874D01*
X14623444Y-10756874D02*
X14632968Y-10775922D01*
X14632968Y-10775922D02*
X14632968Y-10794970D01*
X14632968Y-10794970D02*
X14537729Y-10814017D01*
X14709158Y-10871160D02*
X14728206Y-10880684D01*
X14728206Y-10880684D02*
X14766301Y-10880684D01*
X14766301Y-10880684D02*
X14785349Y-10871160D01*
X14785349Y-10871160D02*
X14794872Y-10852112D01*
X14794872Y-10852112D02*
X14794872Y-10842589D01*
X14794872Y-10842589D02*
X14785349Y-10823541D01*
X14785349Y-10823541D02*
X14766301Y-10814017D01*
X14766301Y-10814017D02*
X14737729Y-10814017D01*
X14737729Y-10814017D02*
X14718682Y-10804493D01*
X14718682Y-10804493D02*
X14709158Y-10785446D01*
X14709158Y-10785446D02*
X14709158Y-10775922D01*
X14709158Y-10775922D02*
X14718682Y-10756874D01*
X14718682Y-10756874D02*
X14737729Y-10747351D01*
X14737729Y-10747351D02*
X14766301Y-10747351D01*
X14766301Y-10747351D02*
X14785349Y-10756874D01*
X14861539Y-10956874D02*
X14871063Y-10947351D01*
X14871063Y-10947351D02*
X14890110Y-10918779D01*
X14890110Y-10918779D02*
X14899634Y-10899732D01*
X14899634Y-10899732D02*
X14909158Y-10871160D01*
X14909158Y-10871160D02*
X14918682Y-10823541D01*
X14918682Y-10823541D02*
X14918682Y-10785446D01*
X14918682Y-10785446D02*
X14909158Y-10737827D01*
X14909158Y-10737827D02*
X14899634Y-10709255D01*
X14899634Y-10709255D02*
X14890110Y-10690208D01*
X14890110Y-10690208D02*
X14871063Y-10661636D01*
X14871063Y-10661636D02*
X14861539Y-10652112D01*
D10*
X9846000Y-11103200D02*
X9896000Y-11053200D01*
X9846000Y-11003200D01*
X9796000Y-11053200D01*
X9846000Y-11103200D01*
D11*
X10261539Y-11144684D02*
X10147253Y-11144684D01*
X10204396Y-11144684D02*
X10204396Y-10944684D01*
X10204396Y-10944684D02*
X10185348Y-10973255D01*
X10185348Y-10973255D02*
X10166301Y-10992303D01*
X10166301Y-10992303D02*
X10147253Y-11001827D01*
X10347253Y-11125636D02*
X10356777Y-11135160D01*
X10356777Y-11135160D02*
X10347253Y-11144684D01*
X10347253Y-11144684D02*
X10337729Y-11135160D01*
X10337729Y-11135160D02*
X10347253Y-11125636D01*
X10347253Y-11125636D02*
X10347253Y-11144684D01*
X10480586Y-10944684D02*
X10499634Y-10944684D01*
X10499634Y-10944684D02*
X10518682Y-10954208D01*
X10518682Y-10954208D02*
X10528205Y-10963732D01*
X10528205Y-10963732D02*
X10537729Y-10982779D01*
X10537729Y-10982779D02*
X10547253Y-11020874D01*
X10547253Y-11020874D02*
X10547253Y-11068493D01*
X10547253Y-11068493D02*
X10537729Y-11106589D01*
X10537729Y-11106589D02*
X10528205Y-11125636D01*
X10528205Y-11125636D02*
X10518682Y-11135160D01*
X10518682Y-11135160D02*
X10499634Y-11144684D01*
X10499634Y-11144684D02*
X10480586Y-11144684D01*
X10480586Y-11144684D02*
X10461539Y-11135160D01*
X10461539Y-11135160D02*
X10452015Y-11125636D01*
X10452015Y-11125636D02*
X10442491Y-11106589D01*
X10442491Y-11106589D02*
X10432967Y-11068493D01*
X10432967Y-11068493D02*
X10432967Y-11020874D01*
X10432967Y-11020874D02*
X10442491Y-10982779D01*
X10442491Y-10982779D02*
X10452015Y-10963732D01*
X10452015Y-10963732D02*
X10461539Y-10954208D01*
X10461539Y-10954208D02*
X10480586Y-10944684D01*
X10671062Y-10944684D02*
X10690110Y-10944684D01*
X10690110Y-10944684D02*
X10709158Y-10954208D01*
X10709158Y-10954208D02*
X10718682Y-10963732D01*
X10718682Y-10963732D02*
X10728205Y-10982779D01*
X10728205Y-10982779D02*
X10737729Y-11020874D01*
X10737729Y-11020874D02*
X10737729Y-11068493D01*
X10737729Y-11068493D02*
X10728205Y-11106589D01*
X10728205Y-11106589D02*
X10718682Y-11125636D01*
X10718682Y-11125636D02*
X10709158Y-11135160D01*
X10709158Y-11135160D02*
X10690110Y-11144684D01*
X10690110Y-11144684D02*
X10671062Y-11144684D01*
X10671062Y-11144684D02*
X10652015Y-11135160D01*
X10652015Y-11135160D02*
X10642491Y-11125636D01*
X10642491Y-11125636D02*
X10632967Y-11106589D01*
X10632967Y-11106589D02*
X10623443Y-11068493D01*
X10623443Y-11068493D02*
X10623443Y-11020874D01*
X10623443Y-11020874D02*
X10632967Y-10982779D01*
X10632967Y-10982779D02*
X10642491Y-10963732D01*
X10642491Y-10963732D02*
X10652015Y-10954208D01*
X10652015Y-10954208D02*
X10671062Y-10944684D01*
X10861539Y-10944684D02*
X10880586Y-10944684D01*
X10880586Y-10944684D02*
X10899634Y-10954208D01*
X10899634Y-10954208D02*
X10909158Y-10963732D01*
X10909158Y-10963732D02*
X10918682Y-10982779D01*
X10918682Y-10982779D02*
X10928205Y-11020874D01*
X10928205Y-11020874D02*
X10928205Y-11068493D01*
X10928205Y-11068493D02*
X10918682Y-11106589D01*
X10918682Y-11106589D02*
X10909158Y-11125636D01*
X10909158Y-11125636D02*
X10899634Y-11135160D01*
X10899634Y-11135160D02*
X10880586Y-11144684D01*
X10880586Y-11144684D02*
X10861539Y-11144684D01*
X10861539Y-11144684D02*
X10842491Y-11135160D01*
X10842491Y-11135160D02*
X10832967Y-11125636D01*
X10832967Y-11125636D02*
X10823443Y-11106589D01*
X10823443Y-11106589D02*
X10813920Y-11068493D01*
X10813920Y-11068493D02*
X10813920Y-11020874D01*
X10813920Y-11020874D02*
X10823443Y-10982779D01*
X10823443Y-10982779D02*
X10832967Y-10963732D01*
X10832967Y-10963732D02*
X10842491Y-10954208D01*
X10842491Y-10954208D02*
X10861539Y-10944684D01*
X11013920Y-11144684D02*
X11013920Y-11011351D01*
X11013920Y-11030398D02*
X11023443Y-11020874D01*
X11023443Y-11020874D02*
X11042491Y-11011351D01*
X11042491Y-11011351D02*
X11071063Y-11011351D01*
X11071063Y-11011351D02*
X11090110Y-11020874D01*
X11090110Y-11020874D02*
X11099634Y-11039922D01*
X11099634Y-11039922D02*
X11099634Y-11144684D01*
X11099634Y-11039922D02*
X11109158Y-11020874D01*
X11109158Y-11020874D02*
X11128205Y-11011351D01*
X11128205Y-11011351D02*
X11156777Y-11011351D01*
X11156777Y-11011351D02*
X11175824Y-11020874D01*
X11175824Y-11020874D02*
X11185348Y-11039922D01*
X11185348Y-11039922D02*
X11185348Y-11144684D01*
X11280586Y-11144684D02*
X11280586Y-11011351D01*
X11280586Y-11030398D02*
X11290110Y-11020874D01*
X11290110Y-11020874D02*
X11309158Y-11011351D01*
X11309158Y-11011351D02*
X11337729Y-11011351D01*
X11337729Y-11011351D02*
X11356777Y-11020874D01*
X11356777Y-11020874D02*
X11366301Y-11039922D01*
X11366301Y-11039922D02*
X11366301Y-11144684D01*
X11366301Y-11039922D02*
X11375824Y-11020874D01*
X11375824Y-11020874D02*
X11394872Y-11011351D01*
X11394872Y-11011351D02*
X11423443Y-11011351D01*
X11423443Y-11011351D02*
X11442491Y-11020874D01*
X11442491Y-11020874D02*
X11452015Y-11039922D01*
X11452015Y-11039922D02*
X11452015Y-11144684D01*
X11842491Y-10935160D02*
X11671063Y-11192303D01*
X12099634Y-10944684D02*
X12118682Y-10944684D01*
X12118682Y-10944684D02*
X12137729Y-10954208D01*
X12137729Y-10954208D02*
X12147253Y-10963732D01*
X12147253Y-10963732D02*
X12156777Y-10982779D01*
X12156777Y-10982779D02*
X12166301Y-11020874D01*
X12166301Y-11020874D02*
X12166301Y-11068493D01*
X12166301Y-11068493D02*
X12156777Y-11106589D01*
X12156777Y-11106589D02*
X12147253Y-11125636D01*
X12147253Y-11125636D02*
X12137729Y-11135160D01*
X12137729Y-11135160D02*
X12118682Y-11144684D01*
X12118682Y-11144684D02*
X12099634Y-11144684D01*
X12099634Y-11144684D02*
X12080586Y-11135160D01*
X12080586Y-11135160D02*
X12071063Y-11125636D01*
X12071063Y-11125636D02*
X12061539Y-11106589D01*
X12061539Y-11106589D02*
X12052015Y-11068493D01*
X12052015Y-11068493D02*
X12052015Y-11020874D01*
X12052015Y-11020874D02*
X12061539Y-10982779D01*
X12061539Y-10982779D02*
X12071063Y-10963732D01*
X12071063Y-10963732D02*
X12080586Y-10954208D01*
X12080586Y-10954208D02*
X12099634Y-10944684D01*
X12252015Y-11125636D02*
X12261539Y-11135160D01*
X12261539Y-11135160D02*
X12252015Y-11144684D01*
X12252015Y-11144684D02*
X12242491Y-11135160D01*
X12242491Y-11135160D02*
X12252015Y-11125636D01*
X12252015Y-11125636D02*
X12252015Y-11144684D01*
X12385348Y-10944684D02*
X12404396Y-10944684D01*
X12404396Y-10944684D02*
X12423444Y-10954208D01*
X12423444Y-10954208D02*
X12432967Y-10963732D01*
X12432967Y-10963732D02*
X12442491Y-10982779D01*
X12442491Y-10982779D02*
X12452015Y-11020874D01*
X12452015Y-11020874D02*
X12452015Y-11068493D01*
X12452015Y-11068493D02*
X12442491Y-11106589D01*
X12442491Y-11106589D02*
X12432967Y-11125636D01*
X12432967Y-11125636D02*
X12423444Y-11135160D01*
X12423444Y-11135160D02*
X12404396Y-11144684D01*
X12404396Y-11144684D02*
X12385348Y-11144684D01*
X12385348Y-11144684D02*
X12366301Y-11135160D01*
X12366301Y-11135160D02*
X12356777Y-11125636D01*
X12356777Y-11125636D02*
X12347253Y-11106589D01*
X12347253Y-11106589D02*
X12337729Y-11068493D01*
X12337729Y-11068493D02*
X12337729Y-11020874D01*
X12337729Y-11020874D02*
X12347253Y-10982779D01*
X12347253Y-10982779D02*
X12356777Y-10963732D01*
X12356777Y-10963732D02*
X12366301Y-10954208D01*
X12366301Y-10954208D02*
X12385348Y-10944684D01*
X12518682Y-10944684D02*
X12642491Y-10944684D01*
X12642491Y-10944684D02*
X12575824Y-11020874D01*
X12575824Y-11020874D02*
X12604396Y-11020874D01*
X12604396Y-11020874D02*
X12623444Y-11030398D01*
X12623444Y-11030398D02*
X12632967Y-11039922D01*
X12632967Y-11039922D02*
X12642491Y-11058970D01*
X12642491Y-11058970D02*
X12642491Y-11106589D01*
X12642491Y-11106589D02*
X12632967Y-11125636D01*
X12632967Y-11125636D02*
X12623444Y-11135160D01*
X12623444Y-11135160D02*
X12604396Y-11144684D01*
X12604396Y-11144684D02*
X12547253Y-11144684D01*
X12547253Y-11144684D02*
X12528205Y-11135160D01*
X12528205Y-11135160D02*
X12518682Y-11125636D01*
X12737729Y-11144684D02*
X12775824Y-11144684D01*
X12775824Y-11144684D02*
X12794872Y-11135160D01*
X12794872Y-11135160D02*
X12804396Y-11125636D01*
X12804396Y-11125636D02*
X12823444Y-11097065D01*
X12823444Y-11097065D02*
X12832967Y-11058970D01*
X12832967Y-11058970D02*
X12832967Y-10982779D01*
X12832967Y-10982779D02*
X12823444Y-10963732D01*
X12823444Y-10963732D02*
X12813920Y-10954208D01*
X12813920Y-10954208D02*
X12794872Y-10944684D01*
X12794872Y-10944684D02*
X12756777Y-10944684D01*
X12756777Y-10944684D02*
X12737729Y-10954208D01*
X12737729Y-10954208D02*
X12728205Y-10963732D01*
X12728205Y-10963732D02*
X12718682Y-10982779D01*
X12718682Y-10982779D02*
X12718682Y-11030398D01*
X12718682Y-11030398D02*
X12728205Y-11049446D01*
X12728205Y-11049446D02*
X12737729Y-11058970D01*
X12737729Y-11058970D02*
X12756777Y-11068493D01*
X12756777Y-11068493D02*
X12794872Y-11068493D01*
X12794872Y-11068493D02*
X12813920Y-11058970D01*
X12813920Y-11058970D02*
X12823444Y-11049446D01*
X12823444Y-11049446D02*
X12832967Y-11030398D01*
X13004396Y-11011351D02*
X13004396Y-11144684D01*
X12956777Y-10935160D02*
X12909158Y-11078017D01*
X12909158Y-11078017D02*
X13032967Y-11078017D01*
X13099634Y-10944684D02*
X13099634Y-10982779D01*
X13175825Y-10944684D02*
X13175825Y-10982779D01*
X13471063Y-11220874D02*
X13461539Y-11211350D01*
X13461539Y-11211350D02*
X13442491Y-11182779D01*
X13442491Y-11182779D02*
X13432967Y-11163732D01*
X13432967Y-11163732D02*
X13423444Y-11135160D01*
X13423444Y-11135160D02*
X13413920Y-11087541D01*
X13413920Y-11087541D02*
X13413920Y-11049446D01*
X13413920Y-11049446D02*
X13423444Y-11001827D01*
X13423444Y-11001827D02*
X13432967Y-10973255D01*
X13432967Y-10973255D02*
X13442491Y-10954208D01*
X13442491Y-10954208D02*
X13461539Y-10925636D01*
X13461539Y-10925636D02*
X13471063Y-10916112D01*
X13528206Y-10944684D02*
X13652015Y-10944684D01*
X13652015Y-10944684D02*
X13585348Y-11020874D01*
X13585348Y-11020874D02*
X13613920Y-11020874D01*
X13613920Y-11020874D02*
X13632967Y-11030398D01*
X13632967Y-11030398D02*
X13642491Y-11039922D01*
X13642491Y-11039922D02*
X13652015Y-11058970D01*
X13652015Y-11058970D02*
X13652015Y-11106589D01*
X13652015Y-11106589D02*
X13642491Y-11125636D01*
X13642491Y-11125636D02*
X13632967Y-11135160D01*
X13632967Y-11135160D02*
X13613920Y-11144684D01*
X13613920Y-11144684D02*
X13556777Y-11144684D01*
X13556777Y-11144684D02*
X13537729Y-11135160D01*
X13537729Y-11135160D02*
X13528206Y-11125636D01*
X13823444Y-10944684D02*
X13785348Y-10944684D01*
X13785348Y-10944684D02*
X13766301Y-10954208D01*
X13766301Y-10954208D02*
X13756777Y-10963732D01*
X13756777Y-10963732D02*
X13737729Y-10992303D01*
X13737729Y-10992303D02*
X13728206Y-11030398D01*
X13728206Y-11030398D02*
X13728206Y-11106589D01*
X13728206Y-11106589D02*
X13737729Y-11125636D01*
X13737729Y-11125636D02*
X13747253Y-11135160D01*
X13747253Y-11135160D02*
X13766301Y-11144684D01*
X13766301Y-11144684D02*
X13804396Y-11144684D01*
X13804396Y-11144684D02*
X13823444Y-11135160D01*
X13823444Y-11135160D02*
X13832967Y-11125636D01*
X13832967Y-11125636D02*
X13842491Y-11106589D01*
X13842491Y-11106589D02*
X13842491Y-11058970D01*
X13842491Y-11058970D02*
X13832967Y-11039922D01*
X13832967Y-11039922D02*
X13823444Y-11030398D01*
X13823444Y-11030398D02*
X13804396Y-11020874D01*
X13804396Y-11020874D02*
X13766301Y-11020874D01*
X13766301Y-11020874D02*
X13747253Y-11030398D01*
X13747253Y-11030398D02*
X13737729Y-11039922D01*
X13737729Y-11039922D02*
X13728206Y-11058970D01*
X14080587Y-11144684D02*
X14080587Y-10944684D01*
X14166301Y-11144684D02*
X14166301Y-11039922D01*
X14166301Y-11039922D02*
X14156777Y-11020874D01*
X14156777Y-11020874D02*
X14137729Y-11011351D01*
X14137729Y-11011351D02*
X14109158Y-11011351D01*
X14109158Y-11011351D02*
X14090110Y-11020874D01*
X14090110Y-11020874D02*
X14080587Y-11030398D01*
X14290110Y-11144684D02*
X14271063Y-11135160D01*
X14271063Y-11135160D02*
X14261539Y-11125636D01*
X14261539Y-11125636D02*
X14252015Y-11106589D01*
X14252015Y-11106589D02*
X14252015Y-11049446D01*
X14252015Y-11049446D02*
X14261539Y-11030398D01*
X14261539Y-11030398D02*
X14271063Y-11020874D01*
X14271063Y-11020874D02*
X14290110Y-11011351D01*
X14290110Y-11011351D02*
X14318682Y-11011351D01*
X14318682Y-11011351D02*
X14337729Y-11020874D01*
X14337729Y-11020874D02*
X14347253Y-11030398D01*
X14347253Y-11030398D02*
X14356777Y-11049446D01*
X14356777Y-11049446D02*
X14356777Y-11106589D01*
X14356777Y-11106589D02*
X14347253Y-11125636D01*
X14347253Y-11125636D02*
X14337729Y-11135160D01*
X14337729Y-11135160D02*
X14318682Y-11144684D01*
X14318682Y-11144684D02*
X14290110Y-11144684D01*
X14471063Y-11144684D02*
X14452015Y-11135160D01*
X14452015Y-11135160D02*
X14442491Y-11116112D01*
X14442491Y-11116112D02*
X14442491Y-10944684D01*
X14623444Y-11135160D02*
X14604396Y-11144684D01*
X14604396Y-11144684D02*
X14566301Y-11144684D01*
X14566301Y-11144684D02*
X14547253Y-11135160D01*
X14547253Y-11135160D02*
X14537729Y-11116112D01*
X14537729Y-11116112D02*
X14537729Y-11039922D01*
X14537729Y-11039922D02*
X14547253Y-11020874D01*
X14547253Y-11020874D02*
X14566301Y-11011351D01*
X14566301Y-11011351D02*
X14604396Y-11011351D01*
X14604396Y-11011351D02*
X14623444Y-11020874D01*
X14623444Y-11020874D02*
X14632968Y-11039922D01*
X14632968Y-11039922D02*
X14632968Y-11058970D01*
X14632968Y-11058970D02*
X14537729Y-11078017D01*
X14709158Y-11135160D02*
X14728206Y-11144684D01*
X14728206Y-11144684D02*
X14766301Y-11144684D01*
X14766301Y-11144684D02*
X14785349Y-11135160D01*
X14785349Y-11135160D02*
X14794872Y-11116112D01*
X14794872Y-11116112D02*
X14794872Y-11106589D01*
X14794872Y-11106589D02*
X14785349Y-11087541D01*
X14785349Y-11087541D02*
X14766301Y-11078017D01*
X14766301Y-11078017D02*
X14737729Y-11078017D01*
X14737729Y-11078017D02*
X14718682Y-11068493D01*
X14718682Y-11068493D02*
X14709158Y-11049446D01*
X14709158Y-11049446D02*
X14709158Y-11039922D01*
X14709158Y-11039922D02*
X14718682Y-11020874D01*
X14718682Y-11020874D02*
X14737729Y-11011351D01*
X14737729Y-11011351D02*
X14766301Y-11011351D01*
X14766301Y-11011351D02*
X14785349Y-11020874D01*
X14861539Y-11220874D02*
X14871063Y-11211350D01*
X14871063Y-11211350D02*
X14890110Y-11182779D01*
X14890110Y-11182779D02*
X14899634Y-11163732D01*
X14899634Y-11163732D02*
X14909158Y-11135160D01*
X14909158Y-11135160D02*
X14918682Y-11087541D01*
X14918682Y-11087541D02*
X14918682Y-11049446D01*
X14918682Y-11049446D02*
X14909158Y-11001827D01*
X14909158Y-11001827D02*
X14899634Y-10973255D01*
X14899634Y-10973255D02*
X14890110Y-10954208D01*
X14890110Y-10954208D02*
X14871063Y-10925636D01*
X14871063Y-10925636D02*
X14861539Y-10916112D01*
D12*
X9786000Y-11262200D02*
X9896000Y-11372200D01*
X9896000Y-11262200D02*
X9786000Y-11372200D01*
X9896000Y-11317200D02*
G75*
G03*
X9896000Y-11317200I-55000J0D01*
G01*
D11*
X10261539Y-11408684D02*
X10147253Y-11408684D01*
X10204396Y-11408684D02*
X10204396Y-11208684D01*
X10204396Y-11208684D02*
X10185348Y-11237255D01*
X10185348Y-11237255D02*
X10166301Y-11256303D01*
X10166301Y-11256303D02*
X10147253Y-11265827D01*
X10347253Y-11389636D02*
X10356777Y-11399160D01*
X10356777Y-11399160D02*
X10347253Y-11408684D01*
X10347253Y-11408684D02*
X10337729Y-11399160D01*
X10337729Y-11399160D02*
X10347253Y-11389636D01*
X10347253Y-11389636D02*
X10347253Y-11408684D01*
X10547253Y-11408684D02*
X10432967Y-11408684D01*
X10490110Y-11408684D02*
X10490110Y-11208684D01*
X10490110Y-11208684D02*
X10471062Y-11237255D01*
X10471062Y-11237255D02*
X10452015Y-11256303D01*
X10452015Y-11256303D02*
X10432967Y-11265827D01*
X10671062Y-11208684D02*
X10690110Y-11208684D01*
X10690110Y-11208684D02*
X10709158Y-11218208D01*
X10709158Y-11218208D02*
X10718682Y-11227731D01*
X10718682Y-11227731D02*
X10728205Y-11246779D01*
X10728205Y-11246779D02*
X10737729Y-11284874D01*
X10737729Y-11284874D02*
X10737729Y-11332493D01*
X10737729Y-11332493D02*
X10728205Y-11370589D01*
X10728205Y-11370589D02*
X10718682Y-11389636D01*
X10718682Y-11389636D02*
X10709158Y-11399160D01*
X10709158Y-11399160D02*
X10690110Y-11408684D01*
X10690110Y-11408684D02*
X10671062Y-11408684D01*
X10671062Y-11408684D02*
X10652015Y-11399160D01*
X10652015Y-11399160D02*
X10642491Y-11389636D01*
X10642491Y-11389636D02*
X10632967Y-11370589D01*
X10632967Y-11370589D02*
X10623443Y-11332493D01*
X10623443Y-11332493D02*
X10623443Y-11284874D01*
X10623443Y-11284874D02*
X10632967Y-11246779D01*
X10632967Y-11246779D02*
X10642491Y-11227731D01*
X10642491Y-11227731D02*
X10652015Y-11218208D01*
X10652015Y-11218208D02*
X10671062Y-11208684D01*
X10861539Y-11208684D02*
X10880586Y-11208684D01*
X10880586Y-11208684D02*
X10899634Y-11218208D01*
X10899634Y-11218208D02*
X10909158Y-11227731D01*
X10909158Y-11227731D02*
X10918682Y-11246779D01*
X10918682Y-11246779D02*
X10928205Y-11284874D01*
X10928205Y-11284874D02*
X10928205Y-11332493D01*
X10928205Y-11332493D02*
X10918682Y-11370589D01*
X10918682Y-11370589D02*
X10909158Y-11389636D01*
X10909158Y-11389636D02*
X10899634Y-11399160D01*
X10899634Y-11399160D02*
X10880586Y-11408684D01*
X10880586Y-11408684D02*
X10861539Y-11408684D01*
X10861539Y-11408684D02*
X10842491Y-11399160D01*
X10842491Y-11399160D02*
X10832967Y-11389636D01*
X10832967Y-11389636D02*
X10823443Y-11370589D01*
X10823443Y-11370589D02*
X10813920Y-11332493D01*
X10813920Y-11332493D02*
X10813920Y-11284874D01*
X10813920Y-11284874D02*
X10823443Y-11246779D01*
X10823443Y-11246779D02*
X10832967Y-11227731D01*
X10832967Y-11227731D02*
X10842491Y-11218208D01*
X10842491Y-11218208D02*
X10861539Y-11208684D01*
X11013920Y-11408684D02*
X11013920Y-11275350D01*
X11013920Y-11294398D02*
X11023443Y-11284874D01*
X11023443Y-11284874D02*
X11042491Y-11275350D01*
X11042491Y-11275350D02*
X11071063Y-11275350D01*
X11071063Y-11275350D02*
X11090110Y-11284874D01*
X11090110Y-11284874D02*
X11099634Y-11303922D01*
X11099634Y-11303922D02*
X11099634Y-11408684D01*
X11099634Y-11303922D02*
X11109158Y-11284874D01*
X11109158Y-11284874D02*
X11128205Y-11275350D01*
X11128205Y-11275350D02*
X11156777Y-11275350D01*
X11156777Y-11275350D02*
X11175824Y-11284874D01*
X11175824Y-11284874D02*
X11185348Y-11303922D01*
X11185348Y-11303922D02*
X11185348Y-11408684D01*
X11280586Y-11408684D02*
X11280586Y-11275350D01*
X11280586Y-11294398D02*
X11290110Y-11284874D01*
X11290110Y-11284874D02*
X11309158Y-11275350D01*
X11309158Y-11275350D02*
X11337729Y-11275350D01*
X11337729Y-11275350D02*
X11356777Y-11284874D01*
X11356777Y-11284874D02*
X11366301Y-11303922D01*
X11366301Y-11303922D02*
X11366301Y-11408684D01*
X11366301Y-11303922D02*
X11375824Y-11284874D01*
X11375824Y-11284874D02*
X11394872Y-11275350D01*
X11394872Y-11275350D02*
X11423443Y-11275350D01*
X11423443Y-11275350D02*
X11442491Y-11284874D01*
X11442491Y-11284874D02*
X11452015Y-11303922D01*
X11452015Y-11303922D02*
X11452015Y-11408684D01*
X11842491Y-11199160D02*
X11671063Y-11456303D01*
X12099634Y-11208684D02*
X12118682Y-11208684D01*
X12118682Y-11208684D02*
X12137729Y-11218208D01*
X12137729Y-11218208D02*
X12147253Y-11227731D01*
X12147253Y-11227731D02*
X12156777Y-11246779D01*
X12156777Y-11246779D02*
X12166301Y-11284874D01*
X12166301Y-11284874D02*
X12166301Y-11332493D01*
X12166301Y-11332493D02*
X12156777Y-11370589D01*
X12156777Y-11370589D02*
X12147253Y-11389636D01*
X12147253Y-11389636D02*
X12137729Y-11399160D01*
X12137729Y-11399160D02*
X12118682Y-11408684D01*
X12118682Y-11408684D02*
X12099634Y-11408684D01*
X12099634Y-11408684D02*
X12080586Y-11399160D01*
X12080586Y-11399160D02*
X12071063Y-11389636D01*
X12071063Y-11389636D02*
X12061539Y-11370589D01*
X12061539Y-11370589D02*
X12052015Y-11332493D01*
X12052015Y-11332493D02*
X12052015Y-11284874D01*
X12052015Y-11284874D02*
X12061539Y-11246779D01*
X12061539Y-11246779D02*
X12071063Y-11227731D01*
X12071063Y-11227731D02*
X12080586Y-11218208D01*
X12080586Y-11218208D02*
X12099634Y-11208684D01*
X12252015Y-11389636D02*
X12261539Y-11399160D01*
X12261539Y-11399160D02*
X12252015Y-11408684D01*
X12252015Y-11408684D02*
X12242491Y-11399160D01*
X12242491Y-11399160D02*
X12252015Y-11389636D01*
X12252015Y-11389636D02*
X12252015Y-11408684D01*
X12385348Y-11208684D02*
X12404396Y-11208684D01*
X12404396Y-11208684D02*
X12423444Y-11218208D01*
X12423444Y-11218208D02*
X12432967Y-11227731D01*
X12432967Y-11227731D02*
X12442491Y-11246779D01*
X12442491Y-11246779D02*
X12452015Y-11284874D01*
X12452015Y-11284874D02*
X12452015Y-11332493D01*
X12452015Y-11332493D02*
X12442491Y-11370589D01*
X12442491Y-11370589D02*
X12432967Y-11389636D01*
X12432967Y-11389636D02*
X12423444Y-11399160D01*
X12423444Y-11399160D02*
X12404396Y-11408684D01*
X12404396Y-11408684D02*
X12385348Y-11408684D01*
X12385348Y-11408684D02*
X12366301Y-11399160D01*
X12366301Y-11399160D02*
X12356777Y-11389636D01*
X12356777Y-11389636D02*
X12347253Y-11370589D01*
X12347253Y-11370589D02*
X12337729Y-11332493D01*
X12337729Y-11332493D02*
X12337729Y-11284874D01*
X12337729Y-11284874D02*
X12347253Y-11246779D01*
X12347253Y-11246779D02*
X12356777Y-11227731D01*
X12356777Y-11227731D02*
X12366301Y-11218208D01*
X12366301Y-11218208D02*
X12385348Y-11208684D01*
X12623444Y-11275350D02*
X12623444Y-11408684D01*
X12575824Y-11199160D02*
X12528205Y-11342017D01*
X12528205Y-11342017D02*
X12652015Y-11342017D01*
X12709158Y-11208684D02*
X12832967Y-11208684D01*
X12832967Y-11208684D02*
X12766301Y-11284874D01*
X12766301Y-11284874D02*
X12794872Y-11284874D01*
X12794872Y-11284874D02*
X12813920Y-11294398D01*
X12813920Y-11294398D02*
X12823444Y-11303922D01*
X12823444Y-11303922D02*
X12832967Y-11322970D01*
X12832967Y-11322970D02*
X12832967Y-11370589D01*
X12832967Y-11370589D02*
X12823444Y-11389636D01*
X12823444Y-11389636D02*
X12813920Y-11399160D01*
X12813920Y-11399160D02*
X12794872Y-11408684D01*
X12794872Y-11408684D02*
X12737729Y-11408684D01*
X12737729Y-11408684D02*
X12718682Y-11399160D01*
X12718682Y-11399160D02*
X12709158Y-11389636D01*
X12899634Y-11208684D02*
X13023444Y-11208684D01*
X13023444Y-11208684D02*
X12956777Y-11284874D01*
X12956777Y-11284874D02*
X12985348Y-11284874D01*
X12985348Y-11284874D02*
X13004396Y-11294398D01*
X13004396Y-11294398D02*
X13013920Y-11303922D01*
X13013920Y-11303922D02*
X13023444Y-11322970D01*
X13023444Y-11322970D02*
X13023444Y-11370589D01*
X13023444Y-11370589D02*
X13013920Y-11389636D01*
X13013920Y-11389636D02*
X13004396Y-11399160D01*
X13004396Y-11399160D02*
X12985348Y-11408684D01*
X12985348Y-11408684D02*
X12928205Y-11408684D01*
X12928205Y-11408684D02*
X12909158Y-11399160D01*
X12909158Y-11399160D02*
X12899634Y-11389636D01*
X13099634Y-11208684D02*
X13099634Y-11246779D01*
X13175825Y-11208684D02*
X13175825Y-11246779D01*
X13471063Y-11484874D02*
X13461539Y-11475350D01*
X13461539Y-11475350D02*
X13442491Y-11446779D01*
X13442491Y-11446779D02*
X13432967Y-11427731D01*
X13432967Y-11427731D02*
X13423444Y-11399160D01*
X13423444Y-11399160D02*
X13413920Y-11351541D01*
X13413920Y-11351541D02*
X13413920Y-11313446D01*
X13413920Y-11313446D02*
X13423444Y-11265827D01*
X13423444Y-11265827D02*
X13432967Y-11237255D01*
X13432967Y-11237255D02*
X13442491Y-11218208D01*
X13442491Y-11218208D02*
X13461539Y-11189636D01*
X13461539Y-11189636D02*
X13471063Y-11180112D01*
X13528206Y-11208684D02*
X13652015Y-11208684D01*
X13652015Y-11208684D02*
X13585348Y-11284874D01*
X13585348Y-11284874D02*
X13613920Y-11284874D01*
X13613920Y-11284874D02*
X13632967Y-11294398D01*
X13632967Y-11294398D02*
X13642491Y-11303922D01*
X13642491Y-11303922D02*
X13652015Y-11322970D01*
X13652015Y-11322970D02*
X13652015Y-11370589D01*
X13652015Y-11370589D02*
X13642491Y-11389636D01*
X13642491Y-11389636D02*
X13632967Y-11399160D01*
X13632967Y-11399160D02*
X13613920Y-11408684D01*
X13613920Y-11408684D02*
X13556777Y-11408684D01*
X13556777Y-11408684D02*
X13537729Y-11399160D01*
X13537729Y-11399160D02*
X13528206Y-11389636D01*
X13890110Y-11408684D02*
X13890110Y-11208684D01*
X13975825Y-11408684D02*
X13975825Y-11303922D01*
X13975825Y-11303922D02*
X13966301Y-11284874D01*
X13966301Y-11284874D02*
X13947253Y-11275350D01*
X13947253Y-11275350D02*
X13918682Y-11275350D01*
X13918682Y-11275350D02*
X13899634Y-11284874D01*
X13899634Y-11284874D02*
X13890110Y-11294398D01*
X14099634Y-11408684D02*
X14080587Y-11399160D01*
X14080587Y-11399160D02*
X14071063Y-11389636D01*
X14071063Y-11389636D02*
X14061539Y-11370589D01*
X14061539Y-11370589D02*
X14061539Y-11313446D01*
X14061539Y-11313446D02*
X14071063Y-11294398D01*
X14071063Y-11294398D02*
X14080587Y-11284874D01*
X14080587Y-11284874D02*
X14099634Y-11275350D01*
X14099634Y-11275350D02*
X14128206Y-11275350D01*
X14128206Y-11275350D02*
X14147253Y-11284874D01*
X14147253Y-11284874D02*
X14156777Y-11294398D01*
X14156777Y-11294398D02*
X14166301Y-11313446D01*
X14166301Y-11313446D02*
X14166301Y-11370589D01*
X14166301Y-11370589D02*
X14156777Y-11389636D01*
X14156777Y-11389636D02*
X14147253Y-11399160D01*
X14147253Y-11399160D02*
X14128206Y-11408684D01*
X14128206Y-11408684D02*
X14099634Y-11408684D01*
X14280587Y-11408684D02*
X14261539Y-11399160D01*
X14261539Y-11399160D02*
X14252015Y-11380112D01*
X14252015Y-11380112D02*
X14252015Y-11208684D01*
X14432968Y-11399160D02*
X14413920Y-11408684D01*
X14413920Y-11408684D02*
X14375825Y-11408684D01*
X14375825Y-11408684D02*
X14356777Y-11399160D01*
X14356777Y-11399160D02*
X14347253Y-11380112D01*
X14347253Y-11380112D02*
X14347253Y-11303922D01*
X14347253Y-11303922D02*
X14356777Y-11284874D01*
X14356777Y-11284874D02*
X14375825Y-11275350D01*
X14375825Y-11275350D02*
X14413920Y-11275350D01*
X14413920Y-11275350D02*
X14432968Y-11284874D01*
X14432968Y-11284874D02*
X14442491Y-11303922D01*
X14442491Y-11303922D02*
X14442491Y-11322970D01*
X14442491Y-11322970D02*
X14347253Y-11342017D01*
X14518682Y-11399160D02*
X14537729Y-11408684D01*
X14537729Y-11408684D02*
X14575825Y-11408684D01*
X14575825Y-11408684D02*
X14594872Y-11399160D01*
X14594872Y-11399160D02*
X14604396Y-11380112D01*
X14604396Y-11380112D02*
X14604396Y-11370589D01*
X14604396Y-11370589D02*
X14594872Y-11351541D01*
X14594872Y-11351541D02*
X14575825Y-11342017D01*
X14575825Y-11342017D02*
X14547253Y-11342017D01*
X14547253Y-11342017D02*
X14528206Y-11332493D01*
X14528206Y-11332493D02*
X14518682Y-11313446D01*
X14518682Y-11313446D02*
X14518682Y-11303922D01*
X14518682Y-11303922D02*
X14528206Y-11284874D01*
X14528206Y-11284874D02*
X14547253Y-11275350D01*
X14547253Y-11275350D02*
X14575825Y-11275350D01*
X14575825Y-11275350D02*
X14594872Y-11284874D01*
X14671063Y-11484874D02*
X14680587Y-11475350D01*
X14680587Y-11475350D02*
X14699634Y-11446779D01*
X14699634Y-11446779D02*
X14709158Y-11427731D01*
X14709158Y-11427731D02*
X14718682Y-11399160D01*
X14718682Y-11399160D02*
X14728206Y-11351541D01*
X14728206Y-11351541D02*
X14728206Y-11313446D01*
X14728206Y-11313446D02*
X14718682Y-11265827D01*
X14718682Y-11265827D02*
X14709158Y-11237255D01*
X14709158Y-11237255D02*
X14699634Y-11218208D01*
X14699634Y-11218208D02*
X14680587Y-11189636D01*
X14680587Y-11189636D02*
X14671063Y-11180112D01*
D13*
X9776000Y-11521200D02*
X9896000Y-11641200D01*
X9896000Y-11521200D02*
X9776000Y-11641200D01*
X9836000Y-11521200D02*
X9836000Y-11641200D01*
X9776000Y-11581200D02*
X9896000Y-11581200D01*
D11*
X10261539Y-11672684D02*
X10147253Y-11672684D01*
X10204396Y-11672684D02*
X10204396Y-11472684D01*
X10204396Y-11472684D02*
X10185348Y-11501255D01*
X10185348Y-11501255D02*
X10166301Y-11520303D01*
X10166301Y-11520303D02*
X10147253Y-11529827D01*
X10347253Y-11653636D02*
X10356777Y-11663160D01*
X10356777Y-11663160D02*
X10347253Y-11672684D01*
X10347253Y-11672684D02*
X10337729Y-11663160D01*
X10337729Y-11663160D02*
X10347253Y-11653636D01*
X10347253Y-11653636D02*
X10347253Y-11672684D01*
X10432967Y-11491731D02*
X10442491Y-11482208D01*
X10442491Y-11482208D02*
X10461539Y-11472684D01*
X10461539Y-11472684D02*
X10509158Y-11472684D01*
X10509158Y-11472684D02*
X10528205Y-11482208D01*
X10528205Y-11482208D02*
X10537729Y-11491731D01*
X10537729Y-11491731D02*
X10547253Y-11510779D01*
X10547253Y-11510779D02*
X10547253Y-11529827D01*
X10547253Y-11529827D02*
X10537729Y-11558398D01*
X10537729Y-11558398D02*
X10423443Y-11672684D01*
X10423443Y-11672684D02*
X10547253Y-11672684D01*
X10671062Y-11472684D02*
X10690110Y-11472684D01*
X10690110Y-11472684D02*
X10709158Y-11482208D01*
X10709158Y-11482208D02*
X10718682Y-11491731D01*
X10718682Y-11491731D02*
X10728205Y-11510779D01*
X10728205Y-11510779D02*
X10737729Y-11548874D01*
X10737729Y-11548874D02*
X10737729Y-11596493D01*
X10737729Y-11596493D02*
X10728205Y-11634589D01*
X10728205Y-11634589D02*
X10718682Y-11653636D01*
X10718682Y-11653636D02*
X10709158Y-11663160D01*
X10709158Y-11663160D02*
X10690110Y-11672684D01*
X10690110Y-11672684D02*
X10671062Y-11672684D01*
X10671062Y-11672684D02*
X10652015Y-11663160D01*
X10652015Y-11663160D02*
X10642491Y-11653636D01*
X10642491Y-11653636D02*
X10632967Y-11634589D01*
X10632967Y-11634589D02*
X10623443Y-11596493D01*
X10623443Y-11596493D02*
X10623443Y-11548874D01*
X10623443Y-11548874D02*
X10632967Y-11510779D01*
X10632967Y-11510779D02*
X10642491Y-11491731D01*
X10642491Y-11491731D02*
X10652015Y-11482208D01*
X10652015Y-11482208D02*
X10671062Y-11472684D01*
X10861539Y-11472684D02*
X10880586Y-11472684D01*
X10880586Y-11472684D02*
X10899634Y-11482208D01*
X10899634Y-11482208D02*
X10909158Y-11491731D01*
X10909158Y-11491731D02*
X10918682Y-11510779D01*
X10918682Y-11510779D02*
X10928205Y-11548874D01*
X10928205Y-11548874D02*
X10928205Y-11596493D01*
X10928205Y-11596493D02*
X10918682Y-11634589D01*
X10918682Y-11634589D02*
X10909158Y-11653636D01*
X10909158Y-11653636D02*
X10899634Y-11663160D01*
X10899634Y-11663160D02*
X10880586Y-11672684D01*
X10880586Y-11672684D02*
X10861539Y-11672684D01*
X10861539Y-11672684D02*
X10842491Y-11663160D01*
X10842491Y-11663160D02*
X10832967Y-11653636D01*
X10832967Y-11653636D02*
X10823443Y-11634589D01*
X10823443Y-11634589D02*
X10813920Y-11596493D01*
X10813920Y-11596493D02*
X10813920Y-11548874D01*
X10813920Y-11548874D02*
X10823443Y-11510779D01*
X10823443Y-11510779D02*
X10832967Y-11491731D01*
X10832967Y-11491731D02*
X10842491Y-11482208D01*
X10842491Y-11482208D02*
X10861539Y-11472684D01*
X11013920Y-11672684D02*
X11013920Y-11539350D01*
X11013920Y-11558398D02*
X11023443Y-11548874D01*
X11023443Y-11548874D02*
X11042491Y-11539350D01*
X11042491Y-11539350D02*
X11071063Y-11539350D01*
X11071063Y-11539350D02*
X11090110Y-11548874D01*
X11090110Y-11548874D02*
X11099634Y-11567922D01*
X11099634Y-11567922D02*
X11099634Y-11672684D01*
X11099634Y-11567922D02*
X11109158Y-11548874D01*
X11109158Y-11548874D02*
X11128205Y-11539350D01*
X11128205Y-11539350D02*
X11156777Y-11539350D01*
X11156777Y-11539350D02*
X11175824Y-11548874D01*
X11175824Y-11548874D02*
X11185348Y-11567922D01*
X11185348Y-11567922D02*
X11185348Y-11672684D01*
X11280586Y-11672684D02*
X11280586Y-11539350D01*
X11280586Y-11558398D02*
X11290110Y-11548874D01*
X11290110Y-11548874D02*
X11309158Y-11539350D01*
X11309158Y-11539350D02*
X11337729Y-11539350D01*
X11337729Y-11539350D02*
X11356777Y-11548874D01*
X11356777Y-11548874D02*
X11366301Y-11567922D01*
X11366301Y-11567922D02*
X11366301Y-11672684D01*
X11366301Y-11567922D02*
X11375824Y-11548874D01*
X11375824Y-11548874D02*
X11394872Y-11539350D01*
X11394872Y-11539350D02*
X11423443Y-11539350D01*
X11423443Y-11539350D02*
X11442491Y-11548874D01*
X11442491Y-11548874D02*
X11452015Y-11567922D01*
X11452015Y-11567922D02*
X11452015Y-11672684D01*
X11842491Y-11463160D02*
X11671063Y-11720303D01*
X12099634Y-11472684D02*
X12118682Y-11472684D01*
X12118682Y-11472684D02*
X12137729Y-11482208D01*
X12137729Y-11482208D02*
X12147253Y-11491731D01*
X12147253Y-11491731D02*
X12156777Y-11510779D01*
X12156777Y-11510779D02*
X12166301Y-11548874D01*
X12166301Y-11548874D02*
X12166301Y-11596493D01*
X12166301Y-11596493D02*
X12156777Y-11634589D01*
X12156777Y-11634589D02*
X12147253Y-11653636D01*
X12147253Y-11653636D02*
X12137729Y-11663160D01*
X12137729Y-11663160D02*
X12118682Y-11672684D01*
X12118682Y-11672684D02*
X12099634Y-11672684D01*
X12099634Y-11672684D02*
X12080586Y-11663160D01*
X12080586Y-11663160D02*
X12071063Y-11653636D01*
X12071063Y-11653636D02*
X12061539Y-11634589D01*
X12061539Y-11634589D02*
X12052015Y-11596493D01*
X12052015Y-11596493D02*
X12052015Y-11548874D01*
X12052015Y-11548874D02*
X12061539Y-11510779D01*
X12061539Y-11510779D02*
X12071063Y-11491731D01*
X12071063Y-11491731D02*
X12080586Y-11482208D01*
X12080586Y-11482208D02*
X12099634Y-11472684D01*
X12252015Y-11653636D02*
X12261539Y-11663160D01*
X12261539Y-11663160D02*
X12252015Y-11672684D01*
X12252015Y-11672684D02*
X12242491Y-11663160D01*
X12242491Y-11663160D02*
X12252015Y-11653636D01*
X12252015Y-11653636D02*
X12252015Y-11672684D01*
X12385348Y-11472684D02*
X12404396Y-11472684D01*
X12404396Y-11472684D02*
X12423444Y-11482208D01*
X12423444Y-11482208D02*
X12432967Y-11491731D01*
X12432967Y-11491731D02*
X12442491Y-11510779D01*
X12442491Y-11510779D02*
X12452015Y-11548874D01*
X12452015Y-11548874D02*
X12452015Y-11596493D01*
X12452015Y-11596493D02*
X12442491Y-11634589D01*
X12442491Y-11634589D02*
X12432967Y-11653636D01*
X12432967Y-11653636D02*
X12423444Y-11663160D01*
X12423444Y-11663160D02*
X12404396Y-11672684D01*
X12404396Y-11672684D02*
X12385348Y-11672684D01*
X12385348Y-11672684D02*
X12366301Y-11663160D01*
X12366301Y-11663160D02*
X12356777Y-11653636D01*
X12356777Y-11653636D02*
X12347253Y-11634589D01*
X12347253Y-11634589D02*
X12337729Y-11596493D01*
X12337729Y-11596493D02*
X12337729Y-11548874D01*
X12337729Y-11548874D02*
X12347253Y-11510779D01*
X12347253Y-11510779D02*
X12356777Y-11491731D01*
X12356777Y-11491731D02*
X12366301Y-11482208D01*
X12366301Y-11482208D02*
X12385348Y-11472684D01*
X12623444Y-11539350D02*
X12623444Y-11672684D01*
X12575824Y-11463160D02*
X12528205Y-11606017D01*
X12528205Y-11606017D02*
X12652015Y-11606017D01*
X12709158Y-11472684D02*
X12842491Y-11472684D01*
X12842491Y-11472684D02*
X12756777Y-11672684D01*
X12909158Y-11491731D02*
X12918682Y-11482208D01*
X12918682Y-11482208D02*
X12937729Y-11472684D01*
X12937729Y-11472684D02*
X12985348Y-11472684D01*
X12985348Y-11472684D02*
X13004396Y-11482208D01*
X13004396Y-11482208D02*
X13013920Y-11491731D01*
X13013920Y-11491731D02*
X13023444Y-11510779D01*
X13023444Y-11510779D02*
X13023444Y-11529827D01*
X13023444Y-11529827D02*
X13013920Y-11558398D01*
X13013920Y-11558398D02*
X12899634Y-11672684D01*
X12899634Y-11672684D02*
X13023444Y-11672684D01*
X13099634Y-11472684D02*
X13099634Y-11510779D01*
X13175825Y-11472684D02*
X13175825Y-11510779D01*
X13471063Y-11748874D02*
X13461539Y-11739350D01*
X13461539Y-11739350D02*
X13442491Y-11710779D01*
X13442491Y-11710779D02*
X13432967Y-11691731D01*
X13432967Y-11691731D02*
X13423444Y-11663160D01*
X13423444Y-11663160D02*
X13413920Y-11615541D01*
X13413920Y-11615541D02*
X13413920Y-11577446D01*
X13413920Y-11577446D02*
X13423444Y-11529827D01*
X13423444Y-11529827D02*
X13432967Y-11501255D01*
X13432967Y-11501255D02*
X13442491Y-11482208D01*
X13442491Y-11482208D02*
X13461539Y-11453636D01*
X13461539Y-11453636D02*
X13471063Y-11444112D01*
X13632967Y-11539350D02*
X13632967Y-11672684D01*
X13585348Y-11463160D02*
X13537729Y-11606017D01*
X13537729Y-11606017D02*
X13661539Y-11606017D01*
X13890110Y-11672684D02*
X13890110Y-11472684D01*
X13975825Y-11672684D02*
X13975825Y-11567922D01*
X13975825Y-11567922D02*
X13966301Y-11548874D01*
X13966301Y-11548874D02*
X13947253Y-11539350D01*
X13947253Y-11539350D02*
X13918682Y-11539350D01*
X13918682Y-11539350D02*
X13899634Y-11548874D01*
X13899634Y-11548874D02*
X13890110Y-11558398D01*
X14099634Y-11672684D02*
X14080587Y-11663160D01*
X14080587Y-11663160D02*
X14071063Y-11653636D01*
X14071063Y-11653636D02*
X14061539Y-11634589D01*
X14061539Y-11634589D02*
X14061539Y-11577446D01*
X14061539Y-11577446D02*
X14071063Y-11558398D01*
X14071063Y-11558398D02*
X14080587Y-11548874D01*
X14080587Y-11548874D02*
X14099634Y-11539350D01*
X14099634Y-11539350D02*
X14128206Y-11539350D01*
X14128206Y-11539350D02*
X14147253Y-11548874D01*
X14147253Y-11548874D02*
X14156777Y-11558398D01*
X14156777Y-11558398D02*
X14166301Y-11577446D01*
X14166301Y-11577446D02*
X14166301Y-11634589D01*
X14166301Y-11634589D02*
X14156777Y-11653636D01*
X14156777Y-11653636D02*
X14147253Y-11663160D01*
X14147253Y-11663160D02*
X14128206Y-11672684D01*
X14128206Y-11672684D02*
X14099634Y-11672684D01*
X14280587Y-11672684D02*
X14261539Y-11663160D01*
X14261539Y-11663160D02*
X14252015Y-11644112D01*
X14252015Y-11644112D02*
X14252015Y-11472684D01*
X14432968Y-11663160D02*
X14413920Y-11672684D01*
X14413920Y-11672684D02*
X14375825Y-11672684D01*
X14375825Y-11672684D02*
X14356777Y-11663160D01*
X14356777Y-11663160D02*
X14347253Y-11644112D01*
X14347253Y-11644112D02*
X14347253Y-11567922D01*
X14347253Y-11567922D02*
X14356777Y-11548874D01*
X14356777Y-11548874D02*
X14375825Y-11539350D01*
X14375825Y-11539350D02*
X14413920Y-11539350D01*
X14413920Y-11539350D02*
X14432968Y-11548874D01*
X14432968Y-11548874D02*
X14442491Y-11567922D01*
X14442491Y-11567922D02*
X14442491Y-11586970D01*
X14442491Y-11586970D02*
X14347253Y-11606017D01*
X14518682Y-11663160D02*
X14537729Y-11672684D01*
X14537729Y-11672684D02*
X14575825Y-11672684D01*
X14575825Y-11672684D02*
X14594872Y-11663160D01*
X14594872Y-11663160D02*
X14604396Y-11644112D01*
X14604396Y-11644112D02*
X14604396Y-11634589D01*
X14604396Y-11634589D02*
X14594872Y-11615541D01*
X14594872Y-11615541D02*
X14575825Y-11606017D01*
X14575825Y-11606017D02*
X14547253Y-11606017D01*
X14547253Y-11606017D02*
X14528206Y-11596493D01*
X14528206Y-11596493D02*
X14518682Y-11577446D01*
X14518682Y-11577446D02*
X14518682Y-11567922D01*
X14518682Y-11567922D02*
X14528206Y-11548874D01*
X14528206Y-11548874D02*
X14547253Y-11539350D01*
X14547253Y-11539350D02*
X14575825Y-11539350D01*
X14575825Y-11539350D02*
X14594872Y-11548874D01*
X14671063Y-11748874D02*
X14680587Y-11739350D01*
X14680587Y-11739350D02*
X14699634Y-11710779D01*
X14699634Y-11710779D02*
X14709158Y-11691731D01*
X14709158Y-11691731D02*
X14718682Y-11663160D01*
X14718682Y-11663160D02*
X14728206Y-11615541D01*
X14728206Y-11615541D02*
X14728206Y-11577446D01*
X14728206Y-11577446D02*
X14718682Y-11529827D01*
X14718682Y-11529827D02*
X14709158Y-11501255D01*
X14709158Y-11501255D02*
X14699634Y-11482208D01*
X14699634Y-11482208D02*
X14680587Y-11453636D01*
X14680587Y-11453636D02*
X14671063Y-11444112D01*
M02*
