%TF.GenerationSoftware,KiCad,Pcbnew,7.0.9*%
%TF.CreationDate,2024-05-07T23:03:21-04:00*%
%TF.ProjectId,Winder_V1,57696e64-6572-45f5-9631-2e6b69636164,rev?*%
%TF.SameCoordinates,Original*%
%TF.FileFunction,Soldermask,Top*%
%TF.FilePolarity,Negative*%
%FSLAX46Y46*%
G04 Gerber Fmt 4.6, Leading zero omitted, Abs format (unit mm)*
G04 Created by KiCad (PCBNEW 7.0.9) date 2024-05-07 23:03:21*
%MOMM*%
%LPD*%
G01*
G04 APERTURE LIST*
G04 Aperture macros list*
%AMRoundRect*
0 Rectangle with rounded corners*
0 $1 Rounding radius*
0 $2 $3 $4 $5 $6 $7 $8 $9 X,Y pos of 4 corners*
0 Add a 4 corners polygon primitive as box body*
4,1,4,$2,$3,$4,$5,$6,$7,$8,$9,$2,$3,0*
0 Add four circle primitives for the rounded corners*
1,1,$1+$1,$2,$3*
1,1,$1+$1,$4,$5*
1,1,$1+$1,$6,$7*
1,1,$1+$1,$8,$9*
0 Add four rect primitives between the rounded corners*
20,1,$1+$1,$2,$3,$4,$5,0*
20,1,$1+$1,$4,$5,$6,$7,0*
20,1,$1+$1,$6,$7,$8,$9,0*
20,1,$1+$1,$8,$9,$2,$3,0*%
G04 Aperture macros list end*
%ADD10C,1.600000*%
%ADD11O,1.600000X1.600000*%
%ADD12R,1.700000X1.700000*%
%ADD13O,1.700000X1.700000*%
%ADD14R,1.905000X2.000000*%
%ADD15O,1.905000X2.000000*%
%ADD16RoundRect,0.102000X-0.704000X-0.704000X0.704000X-0.704000X0.704000X0.704000X-0.704000X0.704000X0*%
%ADD17C,1.612000*%
%ADD18R,1.800000X1.800000*%
%ADD19C,1.800000*%
%ADD20C,3.200000*%
%ADD21R,1.500000X1.500000*%
%ADD22C,1.500000*%
%ADD23R,2.400000X2.400000*%
%ADD24C,2.400000*%
G04 APERTURE END LIST*
D10*
%TO.C,R1*%
X160020000Y-88392000D03*
D11*
X160020000Y-78232000D03*
%TD*%
D12*
%TO.C,J1\u002CI2CScreen1*%
X151892000Y-45476000D03*
D13*
X151892000Y-48016000D03*
X151892000Y-50556000D03*
X151892000Y-53096000D03*
%TD*%
D12*
%TO.C,J6\u002CUSBJumper1*%
X155906000Y-89974000D03*
D13*
X153366000Y-89974000D03*
X150826000Y-89974000D03*
%TD*%
D14*
%TO.C,U2*%
X168656000Y-61031000D03*
D15*
X166116000Y-61031000D03*
X163576000Y-61031000D03*
%TD*%
D16*
%TO.C,U1*%
X118850000Y-45210000D03*
D17*
X118850000Y-47750000D03*
X118850000Y-50290000D03*
X118850000Y-52830000D03*
X118850000Y-55370000D03*
X118850000Y-57910000D03*
X118850000Y-60450000D03*
X118850000Y-62990000D03*
X118850000Y-65530000D03*
X118850000Y-68070000D03*
X118850000Y-70610000D03*
X118850000Y-73150000D03*
X118850000Y-75690000D03*
X118850000Y-78230000D03*
X118850000Y-80770000D03*
X118850000Y-83310000D03*
X118850000Y-85850000D03*
X118850000Y-88390000D03*
X118850000Y-90930000D03*
X144250000Y-45210000D03*
X144250000Y-47750000D03*
X144250000Y-50290000D03*
X144250000Y-52830000D03*
X144250000Y-55370000D03*
X144250000Y-57910000D03*
X144250000Y-60450000D03*
X144250000Y-62990000D03*
X144250000Y-65530000D03*
X144250000Y-68070000D03*
X144250000Y-70610000D03*
X144250000Y-73150000D03*
X144250000Y-75690000D03*
X144250000Y-78230000D03*
X144250000Y-80770000D03*
X144250000Y-83310000D03*
X144250000Y-85850000D03*
X144250000Y-88390000D03*
X144250000Y-90930000D03*
%TD*%
D18*
%TO.C,D1*%
X167391000Y-88392000D03*
D19*
X164851000Y-88392000D03*
%TD*%
D12*
%TO.C,J2*%
X157988000Y-45212000D03*
D13*
X157988000Y-47752000D03*
X157988000Y-50292000D03*
X157988000Y-52832000D03*
X157988000Y-55372000D03*
X157988000Y-57912000D03*
X157988000Y-60452000D03*
X157988000Y-62992000D03*
X157988000Y-65532000D03*
%TD*%
D20*
%TO.C,J1*%
X102143500Y-89134000D03*
X113573500Y-89134000D03*
D21*
X103413500Y-82784000D03*
D22*
X104683500Y-80244000D03*
X105953500Y-82784000D03*
X107223500Y-80244000D03*
X108493500Y-82784000D03*
X109763500Y-80244000D03*
X111033500Y-82784000D03*
X112303500Y-80244000D03*
%TD*%
D23*
%TO.C,J4\u002CPowerIn2*%
X166778000Y-81562000D03*
D24*
X166778000Y-78062000D03*
%TD*%
D12*
%TO.C,J5\u002CSpeedPot1*%
X104000000Y-62475000D03*
D13*
X104000000Y-65015000D03*
X104000000Y-67555000D03*
%TD*%
D23*
%TO.C,J4\u002CPowerIn1*%
X166878000Y-71628000D03*
D24*
X166878000Y-68128000D03*
%TD*%
D12*
%TO.C,J2\u002CPowerSW1*%
X110250000Y-62475000D03*
D13*
X110250000Y-65015000D03*
X110250000Y-67555000D03*
%TD*%
D12*
%TO.C,J1\u002CServoDrive1*%
X150876000Y-72644000D03*
D13*
X153416000Y-72644000D03*
X155956000Y-72644000D03*
%TD*%
D12*
%TO.C,J1\u002CRotaryEnc1*%
X110490000Y-45750000D03*
D13*
X110490000Y-48290000D03*
X110490000Y-50830000D03*
X110490000Y-53370000D03*
X110490000Y-55910000D03*
%TD*%
D12*
%TO.C,J3SensorDrive1*%
X150891000Y-84836000D03*
D13*
X153431000Y-84836000D03*
X155971000Y-84836000D03*
%TD*%
D12*
%TO.C,J2\u002CMotorDrive1*%
X150891000Y-78740000D03*
D13*
X153431000Y-78740000D03*
X155971000Y-78740000D03*
%TD*%
M02*
