M48
; DRILL file {KiCad 7.0.9} date Tue May  7 23:03:18 2024
; FORMAT={-:-/ absolute / inch / decimal}
; #@! TF.CreationDate,2024-05-07T23:03:18-04:00
; #@! TF.GenerationSoftware,Kicad,Pcbnew,7.0.9
; #@! TF.FileFunction,Plated,1,2,PTH
FMAT,2
INCH
; #@! TA.AperFunction,Plated,PTH,ViaDrill
T1C0.0157
; #@! TA.AperFunction,Plated,PTH,ComponentDrill
T2C0.0299
; #@! TA.AperFunction,Plated,PTH,ComponentDrill
T3C0.0315
; #@! TA.AperFunction,Plated,PTH,ComponentDrill
T4C0.0354
; #@! TA.AperFunction,Plated,PTH,ComponentDrill
T5C0.0394
; #@! TA.AperFunction,Plated,PTH,ComponentDrill
T6C0.0433
; #@! TA.AperFunction,Plated,PTH,ComponentDrill
T7C0.0472
%
G90
G05
T1
X4.2126Y-2.5886
T2
X4.0714Y-3.2592
X4.1214Y-3.1592
X4.1714Y-3.2592
X4.2214Y-3.1592
X4.2714Y-3.2592
X4.3214Y-3.1592
X4.3714Y-3.2592
X4.4214Y-3.1592
T3
X6.3Y-3.08
X6.3Y-3.48
T4
X4.6791Y-1.7799
X4.6791Y-1.8799
X4.6791Y-1.9799
X4.6791Y-2.0799
X4.6791Y-2.1799
X4.6791Y-2.2799
X4.6791Y-2.3799
X4.6791Y-2.4799
X4.6791Y-2.5799
X4.6791Y-2.6799
X4.6791Y-2.7799
X4.6791Y-2.8799
X4.6791Y-2.9799
X4.6791Y-3.0799
X4.6791Y-3.1799
X4.6791Y-3.2799
X4.6791Y-3.3799
X4.6791Y-3.4799
X4.6791Y-3.5799
X5.6791Y-1.7799
X5.6791Y-1.8799
X5.6791Y-1.9799
X5.6791Y-2.0799
X5.6791Y-2.1799
X5.6791Y-2.2799
X5.6791Y-2.3799
X5.6791Y-2.4799
X5.6791Y-2.5799
X5.6791Y-2.6799
X5.6791Y-2.7799
X5.6791Y-2.8799
X5.6791Y-2.9799
X5.6791Y-3.0799
X5.6791Y-3.1799
X5.6791Y-3.2799
X5.6791Y-3.3799
X5.6791Y-3.4799
X5.6791Y-3.5799
X6.4902Y-3.48
X6.5902Y-3.48
T5
X4.0945Y-2.4596
X4.0945Y-2.5596
X4.0945Y-2.6596
X4.3406Y-2.4596
X4.3406Y-2.5596
X4.3406Y-2.6596
X4.35Y-1.8012
X4.35Y-1.9012
X4.35Y-2.0012
X4.35Y-2.1012
X4.35Y-2.2012
X5.938Y-3.5423
X5.94Y-2.86
X5.9406Y-3.1
X5.9406Y-3.34
X5.98Y-1.7904
X5.98Y-1.8904
X5.98Y-1.9904
X5.98Y-2.0904
X6.038Y-3.5423
X6.04Y-2.86
X6.0406Y-3.1
X6.0406Y-3.34
X6.138Y-3.5423
X6.14Y-2.86
X6.1406Y-3.1
X6.1406Y-3.34
X6.22Y-1.78
X6.22Y-1.88
X6.22Y-1.98
X6.22Y-2.08
X6.22Y-2.18
X6.22Y-2.28
X6.22Y-2.38
X6.22Y-2.48
X6.22Y-2.58
T6
X6.44Y-2.4028
X6.54Y-2.4028
X6.64Y-2.4028
T7
X6.5661Y-3.0733
X6.5661Y-3.2111
X6.57Y-2.6822
X6.57Y-2.82
T0
M30
