%TF.GenerationSoftware,KiCad,Pcbnew,7.0.9*%
%TF.CreationDate,2024-05-07T23:03:20-04:00*%
%TF.ProjectId,Winder_V1,57696e64-6572-45f5-9631-2e6b69636164,rev?*%
%TF.SameCoordinates,Original*%
%TF.FileFunction,Legend,Top*%
%TF.FilePolarity,Positive*%
%FSLAX46Y46*%
G04 Gerber Fmt 4.6, Leading zero omitted, Abs format (unit mm)*
G04 Created by KiCad (PCBNEW 7.0.9) date 2024-05-07 23:03:20*
%MOMM*%
%LPD*%
G01*
G04 APERTURE LIST*
%ADD10C,0.150000*%
%ADD11C,0.120000*%
%ADD12C,0.127000*%
%ADD13C,0.200000*%
G04 APERTURE END LIST*
D10*
X160474819Y-83478666D02*
X159998628Y-83811999D01*
X160474819Y-84050094D02*
X159474819Y-84050094D01*
X159474819Y-84050094D02*
X159474819Y-83669142D01*
X159474819Y-83669142D02*
X159522438Y-83573904D01*
X159522438Y-83573904D02*
X159570057Y-83526285D01*
X159570057Y-83526285D02*
X159665295Y-83478666D01*
X159665295Y-83478666D02*
X159808152Y-83478666D01*
X159808152Y-83478666D02*
X159903390Y-83526285D01*
X159903390Y-83526285D02*
X159951009Y-83573904D01*
X159951009Y-83573904D02*
X159998628Y-83669142D01*
X159998628Y-83669142D02*
X159998628Y-84050094D01*
X160474819Y-82526285D02*
X160474819Y-83097713D01*
X160474819Y-82811999D02*
X159474819Y-82811999D01*
X159474819Y-82811999D02*
X159617676Y-82907237D01*
X159617676Y-82907237D02*
X159712914Y-83002475D01*
X159712914Y-83002475D02*
X159760533Y-83097713D01*
X147846819Y-54091714D02*
X148561104Y-54091714D01*
X148561104Y-54091714D02*
X148703961Y-54139333D01*
X148703961Y-54139333D02*
X148799200Y-54234571D01*
X148799200Y-54234571D02*
X148846819Y-54377428D01*
X148846819Y-54377428D02*
X148846819Y-54472666D01*
X148846819Y-53091714D02*
X148846819Y-53663142D01*
X148846819Y-53377428D02*
X147846819Y-53377428D01*
X147846819Y-53377428D02*
X147989676Y-53472666D01*
X147989676Y-53472666D02*
X148084914Y-53567904D01*
X148084914Y-53567904D02*
X148132533Y-53663142D01*
X148799200Y-52615523D02*
X148846819Y-52615523D01*
X148846819Y-52615523D02*
X148942057Y-52663142D01*
X148942057Y-52663142D02*
X148989676Y-52710761D01*
X148846819Y-52186952D02*
X147846819Y-52186952D01*
X147942057Y-51758381D02*
X147894438Y-51710762D01*
X147894438Y-51710762D02*
X147846819Y-51615524D01*
X147846819Y-51615524D02*
X147846819Y-51377429D01*
X147846819Y-51377429D02*
X147894438Y-51282191D01*
X147894438Y-51282191D02*
X147942057Y-51234572D01*
X147942057Y-51234572D02*
X148037295Y-51186953D01*
X148037295Y-51186953D02*
X148132533Y-51186953D01*
X148132533Y-51186953D02*
X148275390Y-51234572D01*
X148275390Y-51234572D02*
X148846819Y-51806000D01*
X148846819Y-51806000D02*
X148846819Y-51186953D01*
X148751580Y-50186953D02*
X148799200Y-50234572D01*
X148799200Y-50234572D02*
X148846819Y-50377429D01*
X148846819Y-50377429D02*
X148846819Y-50472667D01*
X148846819Y-50472667D02*
X148799200Y-50615524D01*
X148799200Y-50615524D02*
X148703961Y-50710762D01*
X148703961Y-50710762D02*
X148608723Y-50758381D01*
X148608723Y-50758381D02*
X148418247Y-50806000D01*
X148418247Y-50806000D02*
X148275390Y-50806000D01*
X148275390Y-50806000D02*
X148084914Y-50758381D01*
X148084914Y-50758381D02*
X147989676Y-50710762D01*
X147989676Y-50710762D02*
X147894438Y-50615524D01*
X147894438Y-50615524D02*
X147846819Y-50472667D01*
X147846819Y-50472667D02*
X147846819Y-50377429D01*
X147846819Y-50377429D02*
X147894438Y-50234572D01*
X147894438Y-50234572D02*
X147942057Y-50186953D01*
X148799200Y-49806000D02*
X148846819Y-49663143D01*
X148846819Y-49663143D02*
X148846819Y-49425048D01*
X148846819Y-49425048D02*
X148799200Y-49329810D01*
X148799200Y-49329810D02*
X148751580Y-49282191D01*
X148751580Y-49282191D02*
X148656342Y-49234572D01*
X148656342Y-49234572D02*
X148561104Y-49234572D01*
X148561104Y-49234572D02*
X148465866Y-49282191D01*
X148465866Y-49282191D02*
X148418247Y-49329810D01*
X148418247Y-49329810D02*
X148370628Y-49425048D01*
X148370628Y-49425048D02*
X148323009Y-49615524D01*
X148323009Y-49615524D02*
X148275390Y-49710762D01*
X148275390Y-49710762D02*
X148227771Y-49758381D01*
X148227771Y-49758381D02*
X148132533Y-49806000D01*
X148132533Y-49806000D02*
X148037295Y-49806000D01*
X148037295Y-49806000D02*
X147942057Y-49758381D01*
X147942057Y-49758381D02*
X147894438Y-49710762D01*
X147894438Y-49710762D02*
X147846819Y-49615524D01*
X147846819Y-49615524D02*
X147846819Y-49377429D01*
X147846819Y-49377429D02*
X147894438Y-49234572D01*
X148799200Y-48377429D02*
X148846819Y-48472667D01*
X148846819Y-48472667D02*
X148846819Y-48663143D01*
X148846819Y-48663143D02*
X148799200Y-48758381D01*
X148799200Y-48758381D02*
X148751580Y-48806000D01*
X148751580Y-48806000D02*
X148656342Y-48853619D01*
X148656342Y-48853619D02*
X148370628Y-48853619D01*
X148370628Y-48853619D02*
X148275390Y-48806000D01*
X148275390Y-48806000D02*
X148227771Y-48758381D01*
X148227771Y-48758381D02*
X148180152Y-48663143D01*
X148180152Y-48663143D02*
X148180152Y-48472667D01*
X148180152Y-48472667D02*
X148227771Y-48377429D01*
X148846819Y-47948857D02*
X148180152Y-47948857D01*
X148370628Y-47948857D02*
X148275390Y-47901238D01*
X148275390Y-47901238D02*
X148227771Y-47853619D01*
X148227771Y-47853619D02*
X148180152Y-47758381D01*
X148180152Y-47758381D02*
X148180152Y-47663143D01*
X148799200Y-46948857D02*
X148846819Y-47044095D01*
X148846819Y-47044095D02*
X148846819Y-47234571D01*
X148846819Y-47234571D02*
X148799200Y-47329809D01*
X148799200Y-47329809D02*
X148703961Y-47377428D01*
X148703961Y-47377428D02*
X148323009Y-47377428D01*
X148323009Y-47377428D02*
X148227771Y-47329809D01*
X148227771Y-47329809D02*
X148180152Y-47234571D01*
X148180152Y-47234571D02*
X148180152Y-47044095D01*
X148180152Y-47044095D02*
X148227771Y-46948857D01*
X148227771Y-46948857D02*
X148323009Y-46901238D01*
X148323009Y-46901238D02*
X148418247Y-46901238D01*
X148418247Y-46901238D02*
X148513485Y-47377428D01*
X148799200Y-46091714D02*
X148846819Y-46186952D01*
X148846819Y-46186952D02*
X148846819Y-46377428D01*
X148846819Y-46377428D02*
X148799200Y-46472666D01*
X148799200Y-46472666D02*
X148703961Y-46520285D01*
X148703961Y-46520285D02*
X148323009Y-46520285D01*
X148323009Y-46520285D02*
X148227771Y-46472666D01*
X148227771Y-46472666D02*
X148180152Y-46377428D01*
X148180152Y-46377428D02*
X148180152Y-46186952D01*
X148180152Y-46186952D02*
X148227771Y-46091714D01*
X148227771Y-46091714D02*
X148323009Y-46044095D01*
X148323009Y-46044095D02*
X148418247Y-46044095D01*
X148418247Y-46044095D02*
X148513485Y-46520285D01*
X148180152Y-45615523D02*
X148846819Y-45615523D01*
X148275390Y-45615523D02*
X148227771Y-45567904D01*
X148227771Y-45567904D02*
X148180152Y-45472666D01*
X148180152Y-45472666D02*
X148180152Y-45329809D01*
X148180152Y-45329809D02*
X148227771Y-45234571D01*
X148227771Y-45234571D02*
X148323009Y-45186952D01*
X148323009Y-45186952D02*
X148846819Y-45186952D01*
X148846819Y-44186952D02*
X148846819Y-44758380D01*
X148846819Y-44472666D02*
X147846819Y-44472666D01*
X147846819Y-44472666D02*
X147989676Y-44567904D01*
X147989676Y-44567904D02*
X148084914Y-44663142D01*
X148084914Y-44663142D02*
X148132533Y-44758380D01*
X147161904Y-86830819D02*
X147161904Y-87545104D01*
X147161904Y-87545104D02*
X147114285Y-87687961D01*
X147114285Y-87687961D02*
X147019047Y-87783200D01*
X147019047Y-87783200D02*
X146876190Y-87830819D01*
X146876190Y-87830819D02*
X146780952Y-87830819D01*
X148066666Y-86830819D02*
X147876190Y-86830819D01*
X147876190Y-86830819D02*
X147780952Y-86878438D01*
X147780952Y-86878438D02*
X147733333Y-86926057D01*
X147733333Y-86926057D02*
X147638095Y-87068914D01*
X147638095Y-87068914D02*
X147590476Y-87259390D01*
X147590476Y-87259390D02*
X147590476Y-87640342D01*
X147590476Y-87640342D02*
X147638095Y-87735580D01*
X147638095Y-87735580D02*
X147685714Y-87783200D01*
X147685714Y-87783200D02*
X147780952Y-87830819D01*
X147780952Y-87830819D02*
X147971428Y-87830819D01*
X147971428Y-87830819D02*
X148066666Y-87783200D01*
X148066666Y-87783200D02*
X148114285Y-87735580D01*
X148114285Y-87735580D02*
X148161904Y-87640342D01*
X148161904Y-87640342D02*
X148161904Y-87402247D01*
X148161904Y-87402247D02*
X148114285Y-87307009D01*
X148114285Y-87307009D02*
X148066666Y-87259390D01*
X148066666Y-87259390D02*
X147971428Y-87211771D01*
X147971428Y-87211771D02*
X147780952Y-87211771D01*
X147780952Y-87211771D02*
X147685714Y-87259390D01*
X147685714Y-87259390D02*
X147638095Y-87307009D01*
X147638095Y-87307009D02*
X147590476Y-87402247D01*
X148638095Y-87783200D02*
X148638095Y-87830819D01*
X148638095Y-87830819D02*
X148590476Y-87926057D01*
X148590476Y-87926057D02*
X148542857Y-87973676D01*
X149066666Y-86830819D02*
X149066666Y-87640342D01*
X149066666Y-87640342D02*
X149114285Y-87735580D01*
X149114285Y-87735580D02*
X149161904Y-87783200D01*
X149161904Y-87783200D02*
X149257142Y-87830819D01*
X149257142Y-87830819D02*
X149447618Y-87830819D01*
X149447618Y-87830819D02*
X149542856Y-87783200D01*
X149542856Y-87783200D02*
X149590475Y-87735580D01*
X149590475Y-87735580D02*
X149638094Y-87640342D01*
X149638094Y-87640342D02*
X149638094Y-86830819D01*
X150066666Y-87783200D02*
X150209523Y-87830819D01*
X150209523Y-87830819D02*
X150447618Y-87830819D01*
X150447618Y-87830819D02*
X150542856Y-87783200D01*
X150542856Y-87783200D02*
X150590475Y-87735580D01*
X150590475Y-87735580D02*
X150638094Y-87640342D01*
X150638094Y-87640342D02*
X150638094Y-87545104D01*
X150638094Y-87545104D02*
X150590475Y-87449866D01*
X150590475Y-87449866D02*
X150542856Y-87402247D01*
X150542856Y-87402247D02*
X150447618Y-87354628D01*
X150447618Y-87354628D02*
X150257142Y-87307009D01*
X150257142Y-87307009D02*
X150161904Y-87259390D01*
X150161904Y-87259390D02*
X150114285Y-87211771D01*
X150114285Y-87211771D02*
X150066666Y-87116533D01*
X150066666Y-87116533D02*
X150066666Y-87021295D01*
X150066666Y-87021295D02*
X150114285Y-86926057D01*
X150114285Y-86926057D02*
X150161904Y-86878438D01*
X150161904Y-86878438D02*
X150257142Y-86830819D01*
X150257142Y-86830819D02*
X150495237Y-86830819D01*
X150495237Y-86830819D02*
X150638094Y-86878438D01*
X151399999Y-87307009D02*
X151542856Y-87354628D01*
X151542856Y-87354628D02*
X151590475Y-87402247D01*
X151590475Y-87402247D02*
X151638094Y-87497485D01*
X151638094Y-87497485D02*
X151638094Y-87640342D01*
X151638094Y-87640342D02*
X151590475Y-87735580D01*
X151590475Y-87735580D02*
X151542856Y-87783200D01*
X151542856Y-87783200D02*
X151447618Y-87830819D01*
X151447618Y-87830819D02*
X151066666Y-87830819D01*
X151066666Y-87830819D02*
X151066666Y-86830819D01*
X151066666Y-86830819D02*
X151399999Y-86830819D01*
X151399999Y-86830819D02*
X151495237Y-86878438D01*
X151495237Y-86878438D02*
X151542856Y-86926057D01*
X151542856Y-86926057D02*
X151590475Y-87021295D01*
X151590475Y-87021295D02*
X151590475Y-87116533D01*
X151590475Y-87116533D02*
X151542856Y-87211771D01*
X151542856Y-87211771D02*
X151495237Y-87259390D01*
X151495237Y-87259390D02*
X151399999Y-87307009D01*
X151399999Y-87307009D02*
X151066666Y-87307009D01*
X152352380Y-86830819D02*
X152352380Y-87545104D01*
X152352380Y-87545104D02*
X152304761Y-87687961D01*
X152304761Y-87687961D02*
X152209523Y-87783200D01*
X152209523Y-87783200D02*
X152066666Y-87830819D01*
X152066666Y-87830819D02*
X151971428Y-87830819D01*
X153257142Y-87164152D02*
X153257142Y-87830819D01*
X152828571Y-87164152D02*
X152828571Y-87687961D01*
X152828571Y-87687961D02*
X152876190Y-87783200D01*
X152876190Y-87783200D02*
X152971428Y-87830819D01*
X152971428Y-87830819D02*
X153114285Y-87830819D01*
X153114285Y-87830819D02*
X153209523Y-87783200D01*
X153209523Y-87783200D02*
X153257142Y-87735580D01*
X153733333Y-87830819D02*
X153733333Y-87164152D01*
X153733333Y-87259390D02*
X153780952Y-87211771D01*
X153780952Y-87211771D02*
X153876190Y-87164152D01*
X153876190Y-87164152D02*
X154019047Y-87164152D01*
X154019047Y-87164152D02*
X154114285Y-87211771D01*
X154114285Y-87211771D02*
X154161904Y-87307009D01*
X154161904Y-87307009D02*
X154161904Y-87830819D01*
X154161904Y-87307009D02*
X154209523Y-87211771D01*
X154209523Y-87211771D02*
X154304761Y-87164152D01*
X154304761Y-87164152D02*
X154447618Y-87164152D01*
X154447618Y-87164152D02*
X154542857Y-87211771D01*
X154542857Y-87211771D02*
X154590476Y-87307009D01*
X154590476Y-87307009D02*
X154590476Y-87830819D01*
X155066666Y-87164152D02*
X155066666Y-88164152D01*
X155066666Y-87211771D02*
X155161904Y-87164152D01*
X155161904Y-87164152D02*
X155352380Y-87164152D01*
X155352380Y-87164152D02*
X155447618Y-87211771D01*
X155447618Y-87211771D02*
X155495237Y-87259390D01*
X155495237Y-87259390D02*
X155542856Y-87354628D01*
X155542856Y-87354628D02*
X155542856Y-87640342D01*
X155542856Y-87640342D02*
X155495237Y-87735580D01*
X155495237Y-87735580D02*
X155447618Y-87783200D01*
X155447618Y-87783200D02*
X155352380Y-87830819D01*
X155352380Y-87830819D02*
X155161904Y-87830819D01*
X155161904Y-87830819D02*
X155066666Y-87783200D01*
X156352380Y-87783200D02*
X156257142Y-87830819D01*
X156257142Y-87830819D02*
X156066666Y-87830819D01*
X156066666Y-87830819D02*
X155971428Y-87783200D01*
X155971428Y-87783200D02*
X155923809Y-87687961D01*
X155923809Y-87687961D02*
X155923809Y-87307009D01*
X155923809Y-87307009D02*
X155971428Y-87211771D01*
X155971428Y-87211771D02*
X156066666Y-87164152D01*
X156066666Y-87164152D02*
X156257142Y-87164152D01*
X156257142Y-87164152D02*
X156352380Y-87211771D01*
X156352380Y-87211771D02*
X156399999Y-87307009D01*
X156399999Y-87307009D02*
X156399999Y-87402247D01*
X156399999Y-87402247D02*
X155923809Y-87497485D01*
X156828571Y-87830819D02*
X156828571Y-87164152D01*
X156828571Y-87354628D02*
X156876190Y-87259390D01*
X156876190Y-87259390D02*
X156923809Y-87211771D01*
X156923809Y-87211771D02*
X157019047Y-87164152D01*
X157019047Y-87164152D02*
X157114285Y-87164152D01*
X157971428Y-87830819D02*
X157400000Y-87830819D01*
X157685714Y-87830819D02*
X157685714Y-86830819D01*
X157685714Y-86830819D02*
X157590476Y-86973676D01*
X157590476Y-86973676D02*
X157495238Y-87068914D01*
X157495238Y-87068914D02*
X157400000Y-87116533D01*
X165354095Y-64755819D02*
X165354095Y-65565342D01*
X165354095Y-65565342D02*
X165401714Y-65660580D01*
X165401714Y-65660580D02*
X165449333Y-65708200D01*
X165449333Y-65708200D02*
X165544571Y-65755819D01*
X165544571Y-65755819D02*
X165735047Y-65755819D01*
X165735047Y-65755819D02*
X165830285Y-65708200D01*
X165830285Y-65708200D02*
X165877904Y-65660580D01*
X165877904Y-65660580D02*
X165925523Y-65565342D01*
X165925523Y-65565342D02*
X165925523Y-64755819D01*
X166354095Y-64851057D02*
X166401714Y-64803438D01*
X166401714Y-64803438D02*
X166496952Y-64755819D01*
X166496952Y-64755819D02*
X166735047Y-64755819D01*
X166735047Y-64755819D02*
X166830285Y-64803438D01*
X166830285Y-64803438D02*
X166877904Y-64851057D01*
X166877904Y-64851057D02*
X166925523Y-64946295D01*
X166925523Y-64946295D02*
X166925523Y-65041533D01*
X166925523Y-65041533D02*
X166877904Y-65184390D01*
X166877904Y-65184390D02*
X166306476Y-65755819D01*
X166306476Y-65755819D02*
X166925523Y-65755819D01*
X124755595Y-35432319D02*
X124755595Y-36241842D01*
X124755595Y-36241842D02*
X124803214Y-36337080D01*
X124803214Y-36337080D02*
X124850833Y-36384700D01*
X124850833Y-36384700D02*
X124946071Y-36432319D01*
X124946071Y-36432319D02*
X125136547Y-36432319D01*
X125136547Y-36432319D02*
X125231785Y-36384700D01*
X125231785Y-36384700D02*
X125279404Y-36337080D01*
X125279404Y-36337080D02*
X125327023Y-36241842D01*
X125327023Y-36241842D02*
X125327023Y-35432319D01*
X126327023Y-36432319D02*
X125755595Y-36432319D01*
X126041309Y-36432319D02*
X126041309Y-35432319D01*
X126041309Y-35432319D02*
X125946071Y-35575176D01*
X125946071Y-35575176D02*
X125850833Y-35670414D01*
X125850833Y-35670414D02*
X125755595Y-35718033D01*
X165382905Y-92806819D02*
X165382905Y-91806819D01*
X165382905Y-91806819D02*
X165621000Y-91806819D01*
X165621000Y-91806819D02*
X165763857Y-91854438D01*
X165763857Y-91854438D02*
X165859095Y-91949676D01*
X165859095Y-91949676D02*
X165906714Y-92044914D01*
X165906714Y-92044914D02*
X165954333Y-92235390D01*
X165954333Y-92235390D02*
X165954333Y-92378247D01*
X165954333Y-92378247D02*
X165906714Y-92568723D01*
X165906714Y-92568723D02*
X165859095Y-92663961D01*
X165859095Y-92663961D02*
X165763857Y-92759200D01*
X165763857Y-92759200D02*
X165621000Y-92806819D01*
X165621000Y-92806819D02*
X165382905Y-92806819D01*
X166906714Y-92806819D02*
X166335286Y-92806819D01*
X166621000Y-92806819D02*
X166621000Y-91806819D01*
X166621000Y-91806819D02*
X166525762Y-91949676D01*
X166525762Y-91949676D02*
X166430524Y-92044914D01*
X166430524Y-92044914D02*
X166335286Y-92092533D01*
X157654666Y-42336819D02*
X157654666Y-43051104D01*
X157654666Y-43051104D02*
X157607047Y-43193961D01*
X157607047Y-43193961D02*
X157511809Y-43289200D01*
X157511809Y-43289200D02*
X157368952Y-43336819D01*
X157368952Y-43336819D02*
X157273714Y-43336819D01*
X158083238Y-42432057D02*
X158130857Y-42384438D01*
X158130857Y-42384438D02*
X158226095Y-42336819D01*
X158226095Y-42336819D02*
X158464190Y-42336819D01*
X158464190Y-42336819D02*
X158559428Y-42384438D01*
X158559428Y-42384438D02*
X158607047Y-42432057D01*
X158607047Y-42432057D02*
X158654666Y-42527295D01*
X158654666Y-42527295D02*
X158654666Y-42622533D01*
X158654666Y-42622533D02*
X158607047Y-42765390D01*
X158607047Y-42765390D02*
X158035619Y-43336819D01*
X158035619Y-43336819D02*
X158654666Y-43336819D01*
X107525166Y-77238819D02*
X107525166Y-77953104D01*
X107525166Y-77953104D02*
X107477547Y-78095961D01*
X107477547Y-78095961D02*
X107382309Y-78191200D01*
X107382309Y-78191200D02*
X107239452Y-78238819D01*
X107239452Y-78238819D02*
X107144214Y-78238819D01*
X108525166Y-78238819D02*
X107953738Y-78238819D01*
X108239452Y-78238819D02*
X108239452Y-77238819D01*
X108239452Y-77238819D02*
X108144214Y-77381676D01*
X108144214Y-77381676D02*
X108048976Y-77476914D01*
X108048976Y-77476914D02*
X107953738Y-77524533D01*
X161772819Y-83764380D02*
X162487104Y-83764380D01*
X162487104Y-83764380D02*
X162629961Y-83811999D01*
X162629961Y-83811999D02*
X162725200Y-83907237D01*
X162725200Y-83907237D02*
X162772819Y-84050094D01*
X162772819Y-84050094D02*
X162772819Y-84145332D01*
X162106152Y-82859618D02*
X162772819Y-82859618D01*
X161725200Y-83097713D02*
X162439485Y-83335808D01*
X162439485Y-83335808D02*
X162439485Y-82716761D01*
X162725200Y-82288189D02*
X162772819Y-82288189D01*
X162772819Y-82288189D02*
X162868057Y-82335808D01*
X162868057Y-82335808D02*
X162915676Y-82383427D01*
X162772819Y-81859618D02*
X161772819Y-81859618D01*
X161772819Y-81859618D02*
X161772819Y-81478666D01*
X161772819Y-81478666D02*
X161820438Y-81383428D01*
X161820438Y-81383428D02*
X161868057Y-81335809D01*
X161868057Y-81335809D02*
X161963295Y-81288190D01*
X161963295Y-81288190D02*
X162106152Y-81288190D01*
X162106152Y-81288190D02*
X162201390Y-81335809D01*
X162201390Y-81335809D02*
X162249009Y-81383428D01*
X162249009Y-81383428D02*
X162296628Y-81478666D01*
X162296628Y-81478666D02*
X162296628Y-81859618D01*
X162772819Y-80716761D02*
X162725200Y-80811999D01*
X162725200Y-80811999D02*
X162677580Y-80859618D01*
X162677580Y-80859618D02*
X162582342Y-80907237D01*
X162582342Y-80907237D02*
X162296628Y-80907237D01*
X162296628Y-80907237D02*
X162201390Y-80859618D01*
X162201390Y-80859618D02*
X162153771Y-80811999D01*
X162153771Y-80811999D02*
X162106152Y-80716761D01*
X162106152Y-80716761D02*
X162106152Y-80573904D01*
X162106152Y-80573904D02*
X162153771Y-80478666D01*
X162153771Y-80478666D02*
X162201390Y-80431047D01*
X162201390Y-80431047D02*
X162296628Y-80383428D01*
X162296628Y-80383428D02*
X162582342Y-80383428D01*
X162582342Y-80383428D02*
X162677580Y-80431047D01*
X162677580Y-80431047D02*
X162725200Y-80478666D01*
X162725200Y-80478666D02*
X162772819Y-80573904D01*
X162772819Y-80573904D02*
X162772819Y-80716761D01*
X162106152Y-80050094D02*
X162772819Y-79859618D01*
X162772819Y-79859618D02*
X162296628Y-79669142D01*
X162296628Y-79669142D02*
X162772819Y-79478666D01*
X162772819Y-79478666D02*
X162106152Y-79288190D01*
X162725200Y-78526285D02*
X162772819Y-78621523D01*
X162772819Y-78621523D02*
X162772819Y-78811999D01*
X162772819Y-78811999D02*
X162725200Y-78907237D01*
X162725200Y-78907237D02*
X162629961Y-78954856D01*
X162629961Y-78954856D02*
X162249009Y-78954856D01*
X162249009Y-78954856D02*
X162153771Y-78907237D01*
X162153771Y-78907237D02*
X162106152Y-78811999D01*
X162106152Y-78811999D02*
X162106152Y-78621523D01*
X162106152Y-78621523D02*
X162153771Y-78526285D01*
X162153771Y-78526285D02*
X162249009Y-78478666D01*
X162249009Y-78478666D02*
X162344247Y-78478666D01*
X162344247Y-78478666D02*
X162439485Y-78954856D01*
X162772819Y-78050094D02*
X162106152Y-78050094D01*
X162296628Y-78050094D02*
X162201390Y-78002475D01*
X162201390Y-78002475D02*
X162153771Y-77954856D01*
X162153771Y-77954856D02*
X162106152Y-77859618D01*
X162106152Y-77859618D02*
X162106152Y-77764380D01*
X162772819Y-77431046D02*
X161772819Y-77431046D01*
X162106152Y-76954856D02*
X162772819Y-76954856D01*
X162201390Y-76954856D02*
X162153771Y-76907237D01*
X162153771Y-76907237D02*
X162106152Y-76811999D01*
X162106152Y-76811999D02*
X162106152Y-76669142D01*
X162106152Y-76669142D02*
X162153771Y-76573904D01*
X162153771Y-76573904D02*
X162249009Y-76526285D01*
X162249009Y-76526285D02*
X162772819Y-76526285D01*
X161868057Y-76097713D02*
X161820438Y-76050094D01*
X161820438Y-76050094D02*
X161772819Y-75954856D01*
X161772819Y-75954856D02*
X161772819Y-75716761D01*
X161772819Y-75716761D02*
X161820438Y-75621523D01*
X161820438Y-75621523D02*
X161868057Y-75573904D01*
X161868057Y-75573904D02*
X161963295Y-75526285D01*
X161963295Y-75526285D02*
X162058533Y-75526285D01*
X162058533Y-75526285D02*
X162201390Y-75573904D01*
X162201390Y-75573904D02*
X162772819Y-76145332D01*
X162772819Y-76145332D02*
X162772819Y-75526285D01*
X99954819Y-69773809D02*
X100669104Y-69773809D01*
X100669104Y-69773809D02*
X100811961Y-69821428D01*
X100811961Y-69821428D02*
X100907200Y-69916666D01*
X100907200Y-69916666D02*
X100954819Y-70059523D01*
X100954819Y-70059523D02*
X100954819Y-70154761D01*
X99954819Y-68821428D02*
X99954819Y-69297618D01*
X99954819Y-69297618D02*
X100431009Y-69345237D01*
X100431009Y-69345237D02*
X100383390Y-69297618D01*
X100383390Y-69297618D02*
X100335771Y-69202380D01*
X100335771Y-69202380D02*
X100335771Y-68964285D01*
X100335771Y-68964285D02*
X100383390Y-68869047D01*
X100383390Y-68869047D02*
X100431009Y-68821428D01*
X100431009Y-68821428D02*
X100526247Y-68773809D01*
X100526247Y-68773809D02*
X100764342Y-68773809D01*
X100764342Y-68773809D02*
X100859580Y-68821428D01*
X100859580Y-68821428D02*
X100907200Y-68869047D01*
X100907200Y-68869047D02*
X100954819Y-68964285D01*
X100954819Y-68964285D02*
X100954819Y-69202380D01*
X100954819Y-69202380D02*
X100907200Y-69297618D01*
X100907200Y-69297618D02*
X100859580Y-69345237D01*
X100907200Y-68297618D02*
X100954819Y-68297618D01*
X100954819Y-68297618D02*
X101050057Y-68345237D01*
X101050057Y-68345237D02*
X101097676Y-68392856D01*
X100907200Y-67916666D02*
X100954819Y-67773809D01*
X100954819Y-67773809D02*
X100954819Y-67535714D01*
X100954819Y-67535714D02*
X100907200Y-67440476D01*
X100907200Y-67440476D02*
X100859580Y-67392857D01*
X100859580Y-67392857D02*
X100764342Y-67345238D01*
X100764342Y-67345238D02*
X100669104Y-67345238D01*
X100669104Y-67345238D02*
X100573866Y-67392857D01*
X100573866Y-67392857D02*
X100526247Y-67440476D01*
X100526247Y-67440476D02*
X100478628Y-67535714D01*
X100478628Y-67535714D02*
X100431009Y-67726190D01*
X100431009Y-67726190D02*
X100383390Y-67821428D01*
X100383390Y-67821428D02*
X100335771Y-67869047D01*
X100335771Y-67869047D02*
X100240533Y-67916666D01*
X100240533Y-67916666D02*
X100145295Y-67916666D01*
X100145295Y-67916666D02*
X100050057Y-67869047D01*
X100050057Y-67869047D02*
X100002438Y-67821428D01*
X100002438Y-67821428D02*
X99954819Y-67726190D01*
X99954819Y-67726190D02*
X99954819Y-67488095D01*
X99954819Y-67488095D02*
X100002438Y-67345238D01*
X100288152Y-66916666D02*
X101288152Y-66916666D01*
X100335771Y-66916666D02*
X100288152Y-66821428D01*
X100288152Y-66821428D02*
X100288152Y-66630952D01*
X100288152Y-66630952D02*
X100335771Y-66535714D01*
X100335771Y-66535714D02*
X100383390Y-66488095D01*
X100383390Y-66488095D02*
X100478628Y-66440476D01*
X100478628Y-66440476D02*
X100764342Y-66440476D01*
X100764342Y-66440476D02*
X100859580Y-66488095D01*
X100859580Y-66488095D02*
X100907200Y-66535714D01*
X100907200Y-66535714D02*
X100954819Y-66630952D01*
X100954819Y-66630952D02*
X100954819Y-66821428D01*
X100954819Y-66821428D02*
X100907200Y-66916666D01*
X100907200Y-65630952D02*
X100954819Y-65726190D01*
X100954819Y-65726190D02*
X100954819Y-65916666D01*
X100954819Y-65916666D02*
X100907200Y-66011904D01*
X100907200Y-66011904D02*
X100811961Y-66059523D01*
X100811961Y-66059523D02*
X100431009Y-66059523D01*
X100431009Y-66059523D02*
X100335771Y-66011904D01*
X100335771Y-66011904D02*
X100288152Y-65916666D01*
X100288152Y-65916666D02*
X100288152Y-65726190D01*
X100288152Y-65726190D02*
X100335771Y-65630952D01*
X100335771Y-65630952D02*
X100431009Y-65583333D01*
X100431009Y-65583333D02*
X100526247Y-65583333D01*
X100526247Y-65583333D02*
X100621485Y-66059523D01*
X100907200Y-64773809D02*
X100954819Y-64869047D01*
X100954819Y-64869047D02*
X100954819Y-65059523D01*
X100954819Y-65059523D02*
X100907200Y-65154761D01*
X100907200Y-65154761D02*
X100811961Y-65202380D01*
X100811961Y-65202380D02*
X100431009Y-65202380D01*
X100431009Y-65202380D02*
X100335771Y-65154761D01*
X100335771Y-65154761D02*
X100288152Y-65059523D01*
X100288152Y-65059523D02*
X100288152Y-64869047D01*
X100288152Y-64869047D02*
X100335771Y-64773809D01*
X100335771Y-64773809D02*
X100431009Y-64726190D01*
X100431009Y-64726190D02*
X100526247Y-64726190D01*
X100526247Y-64726190D02*
X100621485Y-65202380D01*
X100954819Y-63869047D02*
X99954819Y-63869047D01*
X100907200Y-63869047D02*
X100954819Y-63964285D01*
X100954819Y-63964285D02*
X100954819Y-64154761D01*
X100954819Y-64154761D02*
X100907200Y-64249999D01*
X100907200Y-64249999D02*
X100859580Y-64297618D01*
X100859580Y-64297618D02*
X100764342Y-64345237D01*
X100764342Y-64345237D02*
X100478628Y-64345237D01*
X100478628Y-64345237D02*
X100383390Y-64297618D01*
X100383390Y-64297618D02*
X100335771Y-64249999D01*
X100335771Y-64249999D02*
X100288152Y-64154761D01*
X100288152Y-64154761D02*
X100288152Y-63964285D01*
X100288152Y-63964285D02*
X100335771Y-63869047D01*
X100954819Y-63392856D02*
X99954819Y-63392856D01*
X99954819Y-63392856D02*
X99954819Y-63011904D01*
X99954819Y-63011904D02*
X100002438Y-62916666D01*
X100002438Y-62916666D02*
X100050057Y-62869047D01*
X100050057Y-62869047D02*
X100145295Y-62821428D01*
X100145295Y-62821428D02*
X100288152Y-62821428D01*
X100288152Y-62821428D02*
X100383390Y-62869047D01*
X100383390Y-62869047D02*
X100431009Y-62916666D01*
X100431009Y-62916666D02*
X100478628Y-63011904D01*
X100478628Y-63011904D02*
X100478628Y-63392856D01*
X100954819Y-62249999D02*
X100907200Y-62345237D01*
X100907200Y-62345237D02*
X100859580Y-62392856D01*
X100859580Y-62392856D02*
X100764342Y-62440475D01*
X100764342Y-62440475D02*
X100478628Y-62440475D01*
X100478628Y-62440475D02*
X100383390Y-62392856D01*
X100383390Y-62392856D02*
X100335771Y-62345237D01*
X100335771Y-62345237D02*
X100288152Y-62249999D01*
X100288152Y-62249999D02*
X100288152Y-62107142D01*
X100288152Y-62107142D02*
X100335771Y-62011904D01*
X100335771Y-62011904D02*
X100383390Y-61964285D01*
X100383390Y-61964285D02*
X100478628Y-61916666D01*
X100478628Y-61916666D02*
X100764342Y-61916666D01*
X100764342Y-61916666D02*
X100859580Y-61964285D01*
X100859580Y-61964285D02*
X100907200Y-62011904D01*
X100907200Y-62011904D02*
X100954819Y-62107142D01*
X100954819Y-62107142D02*
X100954819Y-62249999D01*
X100288152Y-61630951D02*
X100288152Y-61249999D01*
X99954819Y-61488094D02*
X100811961Y-61488094D01*
X100811961Y-61488094D02*
X100907200Y-61440475D01*
X100907200Y-61440475D02*
X100954819Y-61345237D01*
X100954819Y-61345237D02*
X100954819Y-61249999D01*
X100954819Y-60392856D02*
X100954819Y-60964284D01*
X100954819Y-60678570D02*
X99954819Y-60678570D01*
X99954819Y-60678570D02*
X100097676Y-60773808D01*
X100097676Y-60773808D02*
X100192914Y-60869046D01*
X100192914Y-60869046D02*
X100240533Y-60964284D01*
X161872819Y-73830380D02*
X162587104Y-73830380D01*
X162587104Y-73830380D02*
X162729961Y-73877999D01*
X162729961Y-73877999D02*
X162825200Y-73973237D01*
X162825200Y-73973237D02*
X162872819Y-74116094D01*
X162872819Y-74116094D02*
X162872819Y-74211332D01*
X162206152Y-72925618D02*
X162872819Y-72925618D01*
X161825200Y-73163713D02*
X162539485Y-73401808D01*
X162539485Y-73401808D02*
X162539485Y-72782761D01*
X162825200Y-72354189D02*
X162872819Y-72354189D01*
X162872819Y-72354189D02*
X162968057Y-72401808D01*
X162968057Y-72401808D02*
X163015676Y-72449427D01*
X162872819Y-71925618D02*
X161872819Y-71925618D01*
X161872819Y-71925618D02*
X161872819Y-71544666D01*
X161872819Y-71544666D02*
X161920438Y-71449428D01*
X161920438Y-71449428D02*
X161968057Y-71401809D01*
X161968057Y-71401809D02*
X162063295Y-71354190D01*
X162063295Y-71354190D02*
X162206152Y-71354190D01*
X162206152Y-71354190D02*
X162301390Y-71401809D01*
X162301390Y-71401809D02*
X162349009Y-71449428D01*
X162349009Y-71449428D02*
X162396628Y-71544666D01*
X162396628Y-71544666D02*
X162396628Y-71925618D01*
X162872819Y-70782761D02*
X162825200Y-70877999D01*
X162825200Y-70877999D02*
X162777580Y-70925618D01*
X162777580Y-70925618D02*
X162682342Y-70973237D01*
X162682342Y-70973237D02*
X162396628Y-70973237D01*
X162396628Y-70973237D02*
X162301390Y-70925618D01*
X162301390Y-70925618D02*
X162253771Y-70877999D01*
X162253771Y-70877999D02*
X162206152Y-70782761D01*
X162206152Y-70782761D02*
X162206152Y-70639904D01*
X162206152Y-70639904D02*
X162253771Y-70544666D01*
X162253771Y-70544666D02*
X162301390Y-70497047D01*
X162301390Y-70497047D02*
X162396628Y-70449428D01*
X162396628Y-70449428D02*
X162682342Y-70449428D01*
X162682342Y-70449428D02*
X162777580Y-70497047D01*
X162777580Y-70497047D02*
X162825200Y-70544666D01*
X162825200Y-70544666D02*
X162872819Y-70639904D01*
X162872819Y-70639904D02*
X162872819Y-70782761D01*
X162206152Y-70116094D02*
X162872819Y-69925618D01*
X162872819Y-69925618D02*
X162396628Y-69735142D01*
X162396628Y-69735142D02*
X162872819Y-69544666D01*
X162872819Y-69544666D02*
X162206152Y-69354190D01*
X162825200Y-68592285D02*
X162872819Y-68687523D01*
X162872819Y-68687523D02*
X162872819Y-68877999D01*
X162872819Y-68877999D02*
X162825200Y-68973237D01*
X162825200Y-68973237D02*
X162729961Y-69020856D01*
X162729961Y-69020856D02*
X162349009Y-69020856D01*
X162349009Y-69020856D02*
X162253771Y-68973237D01*
X162253771Y-68973237D02*
X162206152Y-68877999D01*
X162206152Y-68877999D02*
X162206152Y-68687523D01*
X162206152Y-68687523D02*
X162253771Y-68592285D01*
X162253771Y-68592285D02*
X162349009Y-68544666D01*
X162349009Y-68544666D02*
X162444247Y-68544666D01*
X162444247Y-68544666D02*
X162539485Y-69020856D01*
X162872819Y-68116094D02*
X162206152Y-68116094D01*
X162396628Y-68116094D02*
X162301390Y-68068475D01*
X162301390Y-68068475D02*
X162253771Y-68020856D01*
X162253771Y-68020856D02*
X162206152Y-67925618D01*
X162206152Y-67925618D02*
X162206152Y-67830380D01*
X162872819Y-67497046D02*
X161872819Y-67497046D01*
X162206152Y-67020856D02*
X162872819Y-67020856D01*
X162301390Y-67020856D02*
X162253771Y-66973237D01*
X162253771Y-66973237D02*
X162206152Y-66877999D01*
X162206152Y-66877999D02*
X162206152Y-66735142D01*
X162206152Y-66735142D02*
X162253771Y-66639904D01*
X162253771Y-66639904D02*
X162349009Y-66592285D01*
X162349009Y-66592285D02*
X162872819Y-66592285D01*
X162872819Y-65592285D02*
X162872819Y-66163713D01*
X162872819Y-65877999D02*
X161872819Y-65877999D01*
X161872819Y-65877999D02*
X162015676Y-65973237D01*
X162015676Y-65973237D02*
X162110914Y-66068475D01*
X162110914Y-66068475D02*
X162158533Y-66163713D01*
X112954819Y-69559523D02*
X113669104Y-69559523D01*
X113669104Y-69559523D02*
X113811961Y-69607142D01*
X113811961Y-69607142D02*
X113907200Y-69702380D01*
X113907200Y-69702380D02*
X113954819Y-69845237D01*
X113954819Y-69845237D02*
X113954819Y-69940475D01*
X113050057Y-69130951D02*
X113002438Y-69083332D01*
X113002438Y-69083332D02*
X112954819Y-68988094D01*
X112954819Y-68988094D02*
X112954819Y-68749999D01*
X112954819Y-68749999D02*
X113002438Y-68654761D01*
X113002438Y-68654761D02*
X113050057Y-68607142D01*
X113050057Y-68607142D02*
X113145295Y-68559523D01*
X113145295Y-68559523D02*
X113240533Y-68559523D01*
X113240533Y-68559523D02*
X113383390Y-68607142D01*
X113383390Y-68607142D02*
X113954819Y-69178570D01*
X113954819Y-69178570D02*
X113954819Y-68559523D01*
X113907200Y-68083332D02*
X113954819Y-68083332D01*
X113954819Y-68083332D02*
X114050057Y-68130951D01*
X114050057Y-68130951D02*
X114097676Y-68178570D01*
X113954819Y-67654761D02*
X112954819Y-67654761D01*
X112954819Y-67654761D02*
X112954819Y-67273809D01*
X112954819Y-67273809D02*
X113002438Y-67178571D01*
X113002438Y-67178571D02*
X113050057Y-67130952D01*
X113050057Y-67130952D02*
X113145295Y-67083333D01*
X113145295Y-67083333D02*
X113288152Y-67083333D01*
X113288152Y-67083333D02*
X113383390Y-67130952D01*
X113383390Y-67130952D02*
X113431009Y-67178571D01*
X113431009Y-67178571D02*
X113478628Y-67273809D01*
X113478628Y-67273809D02*
X113478628Y-67654761D01*
X113954819Y-66511904D02*
X113907200Y-66607142D01*
X113907200Y-66607142D02*
X113859580Y-66654761D01*
X113859580Y-66654761D02*
X113764342Y-66702380D01*
X113764342Y-66702380D02*
X113478628Y-66702380D01*
X113478628Y-66702380D02*
X113383390Y-66654761D01*
X113383390Y-66654761D02*
X113335771Y-66607142D01*
X113335771Y-66607142D02*
X113288152Y-66511904D01*
X113288152Y-66511904D02*
X113288152Y-66369047D01*
X113288152Y-66369047D02*
X113335771Y-66273809D01*
X113335771Y-66273809D02*
X113383390Y-66226190D01*
X113383390Y-66226190D02*
X113478628Y-66178571D01*
X113478628Y-66178571D02*
X113764342Y-66178571D01*
X113764342Y-66178571D02*
X113859580Y-66226190D01*
X113859580Y-66226190D02*
X113907200Y-66273809D01*
X113907200Y-66273809D02*
X113954819Y-66369047D01*
X113954819Y-66369047D02*
X113954819Y-66511904D01*
X113288152Y-65845237D02*
X113954819Y-65654761D01*
X113954819Y-65654761D02*
X113478628Y-65464285D01*
X113478628Y-65464285D02*
X113954819Y-65273809D01*
X113954819Y-65273809D02*
X113288152Y-65083333D01*
X113907200Y-64321428D02*
X113954819Y-64416666D01*
X113954819Y-64416666D02*
X113954819Y-64607142D01*
X113954819Y-64607142D02*
X113907200Y-64702380D01*
X113907200Y-64702380D02*
X113811961Y-64749999D01*
X113811961Y-64749999D02*
X113431009Y-64749999D01*
X113431009Y-64749999D02*
X113335771Y-64702380D01*
X113335771Y-64702380D02*
X113288152Y-64607142D01*
X113288152Y-64607142D02*
X113288152Y-64416666D01*
X113288152Y-64416666D02*
X113335771Y-64321428D01*
X113335771Y-64321428D02*
X113431009Y-64273809D01*
X113431009Y-64273809D02*
X113526247Y-64273809D01*
X113526247Y-64273809D02*
X113621485Y-64749999D01*
X113954819Y-63845237D02*
X113288152Y-63845237D01*
X113478628Y-63845237D02*
X113383390Y-63797618D01*
X113383390Y-63797618D02*
X113335771Y-63749999D01*
X113335771Y-63749999D02*
X113288152Y-63654761D01*
X113288152Y-63654761D02*
X113288152Y-63559523D01*
X113907200Y-63273808D02*
X113954819Y-63130951D01*
X113954819Y-63130951D02*
X113954819Y-62892856D01*
X113954819Y-62892856D02*
X113907200Y-62797618D01*
X113907200Y-62797618D02*
X113859580Y-62749999D01*
X113859580Y-62749999D02*
X113764342Y-62702380D01*
X113764342Y-62702380D02*
X113669104Y-62702380D01*
X113669104Y-62702380D02*
X113573866Y-62749999D01*
X113573866Y-62749999D02*
X113526247Y-62797618D01*
X113526247Y-62797618D02*
X113478628Y-62892856D01*
X113478628Y-62892856D02*
X113431009Y-63083332D01*
X113431009Y-63083332D02*
X113383390Y-63178570D01*
X113383390Y-63178570D02*
X113335771Y-63226189D01*
X113335771Y-63226189D02*
X113240533Y-63273808D01*
X113240533Y-63273808D02*
X113145295Y-63273808D01*
X113145295Y-63273808D02*
X113050057Y-63226189D01*
X113050057Y-63226189D02*
X113002438Y-63178570D01*
X113002438Y-63178570D02*
X112954819Y-63083332D01*
X112954819Y-63083332D02*
X112954819Y-62845237D01*
X112954819Y-62845237D02*
X113002438Y-62702380D01*
X112954819Y-62369046D02*
X113954819Y-62130951D01*
X113954819Y-62130951D02*
X113240533Y-61940475D01*
X113240533Y-61940475D02*
X113954819Y-61749999D01*
X113954819Y-61749999D02*
X112954819Y-61511904D01*
X113954819Y-60607142D02*
X113954819Y-61178570D01*
X113954819Y-60892856D02*
X112954819Y-60892856D01*
X112954819Y-60892856D02*
X113097676Y-60988094D01*
X113097676Y-60988094D02*
X113192914Y-61083332D01*
X113192914Y-61083332D02*
X113240533Y-61178570D01*
X147198618Y-69348819D02*
X147198618Y-70063104D01*
X147198618Y-70063104D02*
X147150999Y-70205961D01*
X147150999Y-70205961D02*
X147055761Y-70301200D01*
X147055761Y-70301200D02*
X146912904Y-70348819D01*
X146912904Y-70348819D02*
X146817666Y-70348819D01*
X148198618Y-70348819D02*
X147627190Y-70348819D01*
X147912904Y-70348819D02*
X147912904Y-69348819D01*
X147912904Y-69348819D02*
X147817666Y-69491676D01*
X147817666Y-69491676D02*
X147722428Y-69586914D01*
X147722428Y-69586914D02*
X147627190Y-69634533D01*
X148674809Y-70301200D02*
X148674809Y-70348819D01*
X148674809Y-70348819D02*
X148627190Y-70444057D01*
X148627190Y-70444057D02*
X148579571Y-70491676D01*
X149055761Y-70301200D02*
X149198618Y-70348819D01*
X149198618Y-70348819D02*
X149436713Y-70348819D01*
X149436713Y-70348819D02*
X149531951Y-70301200D01*
X149531951Y-70301200D02*
X149579570Y-70253580D01*
X149579570Y-70253580D02*
X149627189Y-70158342D01*
X149627189Y-70158342D02*
X149627189Y-70063104D01*
X149627189Y-70063104D02*
X149579570Y-69967866D01*
X149579570Y-69967866D02*
X149531951Y-69920247D01*
X149531951Y-69920247D02*
X149436713Y-69872628D01*
X149436713Y-69872628D02*
X149246237Y-69825009D01*
X149246237Y-69825009D02*
X149150999Y-69777390D01*
X149150999Y-69777390D02*
X149103380Y-69729771D01*
X149103380Y-69729771D02*
X149055761Y-69634533D01*
X149055761Y-69634533D02*
X149055761Y-69539295D01*
X149055761Y-69539295D02*
X149103380Y-69444057D01*
X149103380Y-69444057D02*
X149150999Y-69396438D01*
X149150999Y-69396438D02*
X149246237Y-69348819D01*
X149246237Y-69348819D02*
X149484332Y-69348819D01*
X149484332Y-69348819D02*
X149627189Y-69396438D01*
X150436713Y-70301200D02*
X150341475Y-70348819D01*
X150341475Y-70348819D02*
X150150999Y-70348819D01*
X150150999Y-70348819D02*
X150055761Y-70301200D01*
X150055761Y-70301200D02*
X150008142Y-70205961D01*
X150008142Y-70205961D02*
X150008142Y-69825009D01*
X150008142Y-69825009D02*
X150055761Y-69729771D01*
X150055761Y-69729771D02*
X150150999Y-69682152D01*
X150150999Y-69682152D02*
X150341475Y-69682152D01*
X150341475Y-69682152D02*
X150436713Y-69729771D01*
X150436713Y-69729771D02*
X150484332Y-69825009D01*
X150484332Y-69825009D02*
X150484332Y-69920247D01*
X150484332Y-69920247D02*
X150008142Y-70015485D01*
X150912904Y-70348819D02*
X150912904Y-69682152D01*
X150912904Y-69872628D02*
X150960523Y-69777390D01*
X150960523Y-69777390D02*
X151008142Y-69729771D01*
X151008142Y-69729771D02*
X151103380Y-69682152D01*
X151103380Y-69682152D02*
X151198618Y-69682152D01*
X151436714Y-69682152D02*
X151674809Y-70348819D01*
X151674809Y-70348819D02*
X151912904Y-69682152D01*
X152436714Y-70348819D02*
X152341476Y-70301200D01*
X152341476Y-70301200D02*
X152293857Y-70253580D01*
X152293857Y-70253580D02*
X152246238Y-70158342D01*
X152246238Y-70158342D02*
X152246238Y-69872628D01*
X152246238Y-69872628D02*
X152293857Y-69777390D01*
X152293857Y-69777390D02*
X152341476Y-69729771D01*
X152341476Y-69729771D02*
X152436714Y-69682152D01*
X152436714Y-69682152D02*
X152579571Y-69682152D01*
X152579571Y-69682152D02*
X152674809Y-69729771D01*
X152674809Y-69729771D02*
X152722428Y-69777390D01*
X152722428Y-69777390D02*
X152770047Y-69872628D01*
X152770047Y-69872628D02*
X152770047Y-70158342D01*
X152770047Y-70158342D02*
X152722428Y-70253580D01*
X152722428Y-70253580D02*
X152674809Y-70301200D01*
X152674809Y-70301200D02*
X152579571Y-70348819D01*
X152579571Y-70348819D02*
X152436714Y-70348819D01*
X153198619Y-70348819D02*
X153198619Y-69348819D01*
X153198619Y-69348819D02*
X153436714Y-69348819D01*
X153436714Y-69348819D02*
X153579571Y-69396438D01*
X153579571Y-69396438D02*
X153674809Y-69491676D01*
X153674809Y-69491676D02*
X153722428Y-69586914D01*
X153722428Y-69586914D02*
X153770047Y-69777390D01*
X153770047Y-69777390D02*
X153770047Y-69920247D01*
X153770047Y-69920247D02*
X153722428Y-70110723D01*
X153722428Y-70110723D02*
X153674809Y-70205961D01*
X153674809Y-70205961D02*
X153579571Y-70301200D01*
X153579571Y-70301200D02*
X153436714Y-70348819D01*
X153436714Y-70348819D02*
X153198619Y-70348819D01*
X154198619Y-70348819D02*
X154198619Y-69682152D01*
X154198619Y-69872628D02*
X154246238Y-69777390D01*
X154246238Y-69777390D02*
X154293857Y-69729771D01*
X154293857Y-69729771D02*
X154389095Y-69682152D01*
X154389095Y-69682152D02*
X154484333Y-69682152D01*
X154817667Y-70348819D02*
X154817667Y-69682152D01*
X154817667Y-69348819D02*
X154770048Y-69396438D01*
X154770048Y-69396438D02*
X154817667Y-69444057D01*
X154817667Y-69444057D02*
X154865286Y-69396438D01*
X154865286Y-69396438D02*
X154817667Y-69348819D01*
X154817667Y-69348819D02*
X154817667Y-69444057D01*
X155198619Y-69682152D02*
X155436714Y-70348819D01*
X155436714Y-70348819D02*
X155674809Y-69682152D01*
X156436714Y-70301200D02*
X156341476Y-70348819D01*
X156341476Y-70348819D02*
X156151000Y-70348819D01*
X156151000Y-70348819D02*
X156055762Y-70301200D01*
X156055762Y-70301200D02*
X156008143Y-70205961D01*
X156008143Y-70205961D02*
X156008143Y-69825009D01*
X156008143Y-69825009D02*
X156055762Y-69729771D01*
X156055762Y-69729771D02*
X156151000Y-69682152D01*
X156151000Y-69682152D02*
X156341476Y-69682152D01*
X156341476Y-69682152D02*
X156436714Y-69729771D01*
X156436714Y-69729771D02*
X156484333Y-69825009D01*
X156484333Y-69825009D02*
X156484333Y-69920247D01*
X156484333Y-69920247D02*
X156008143Y-70015485D01*
X157436714Y-70348819D02*
X156865286Y-70348819D01*
X157151000Y-70348819D02*
X157151000Y-69348819D01*
X157151000Y-69348819D02*
X157055762Y-69491676D01*
X157055762Y-69491676D02*
X156960524Y-69586914D01*
X156960524Y-69586914D02*
X156865286Y-69634533D01*
X106444819Y-55511905D02*
X107159104Y-55511905D01*
X107159104Y-55511905D02*
X107301961Y-55559524D01*
X107301961Y-55559524D02*
X107397200Y-55654762D01*
X107397200Y-55654762D02*
X107444819Y-55797619D01*
X107444819Y-55797619D02*
X107444819Y-55892857D01*
X107444819Y-54511905D02*
X107444819Y-55083333D01*
X107444819Y-54797619D02*
X106444819Y-54797619D01*
X106444819Y-54797619D02*
X106587676Y-54892857D01*
X106587676Y-54892857D02*
X106682914Y-54988095D01*
X106682914Y-54988095D02*
X106730533Y-55083333D01*
X107397200Y-54035714D02*
X107444819Y-54035714D01*
X107444819Y-54035714D02*
X107540057Y-54083333D01*
X107540057Y-54083333D02*
X107587676Y-54130952D01*
X107444819Y-53035715D02*
X106968628Y-53369048D01*
X107444819Y-53607143D02*
X106444819Y-53607143D01*
X106444819Y-53607143D02*
X106444819Y-53226191D01*
X106444819Y-53226191D02*
X106492438Y-53130953D01*
X106492438Y-53130953D02*
X106540057Y-53083334D01*
X106540057Y-53083334D02*
X106635295Y-53035715D01*
X106635295Y-53035715D02*
X106778152Y-53035715D01*
X106778152Y-53035715D02*
X106873390Y-53083334D01*
X106873390Y-53083334D02*
X106921009Y-53130953D01*
X106921009Y-53130953D02*
X106968628Y-53226191D01*
X106968628Y-53226191D02*
X106968628Y-53607143D01*
X107444819Y-52464286D02*
X107397200Y-52559524D01*
X107397200Y-52559524D02*
X107349580Y-52607143D01*
X107349580Y-52607143D02*
X107254342Y-52654762D01*
X107254342Y-52654762D02*
X106968628Y-52654762D01*
X106968628Y-52654762D02*
X106873390Y-52607143D01*
X106873390Y-52607143D02*
X106825771Y-52559524D01*
X106825771Y-52559524D02*
X106778152Y-52464286D01*
X106778152Y-52464286D02*
X106778152Y-52321429D01*
X106778152Y-52321429D02*
X106825771Y-52226191D01*
X106825771Y-52226191D02*
X106873390Y-52178572D01*
X106873390Y-52178572D02*
X106968628Y-52130953D01*
X106968628Y-52130953D02*
X107254342Y-52130953D01*
X107254342Y-52130953D02*
X107349580Y-52178572D01*
X107349580Y-52178572D02*
X107397200Y-52226191D01*
X107397200Y-52226191D02*
X107444819Y-52321429D01*
X107444819Y-52321429D02*
X107444819Y-52464286D01*
X106778152Y-51845238D02*
X106778152Y-51464286D01*
X106444819Y-51702381D02*
X107301961Y-51702381D01*
X107301961Y-51702381D02*
X107397200Y-51654762D01*
X107397200Y-51654762D02*
X107444819Y-51559524D01*
X107444819Y-51559524D02*
X107444819Y-51464286D01*
X107444819Y-50702381D02*
X106921009Y-50702381D01*
X106921009Y-50702381D02*
X106825771Y-50750000D01*
X106825771Y-50750000D02*
X106778152Y-50845238D01*
X106778152Y-50845238D02*
X106778152Y-51035714D01*
X106778152Y-51035714D02*
X106825771Y-51130952D01*
X107397200Y-50702381D02*
X107444819Y-50797619D01*
X107444819Y-50797619D02*
X107444819Y-51035714D01*
X107444819Y-51035714D02*
X107397200Y-51130952D01*
X107397200Y-51130952D02*
X107301961Y-51178571D01*
X107301961Y-51178571D02*
X107206723Y-51178571D01*
X107206723Y-51178571D02*
X107111485Y-51130952D01*
X107111485Y-51130952D02*
X107063866Y-51035714D01*
X107063866Y-51035714D02*
X107063866Y-50797619D01*
X107063866Y-50797619D02*
X107016247Y-50702381D01*
X107444819Y-50226190D02*
X106778152Y-50226190D01*
X106968628Y-50226190D02*
X106873390Y-50178571D01*
X106873390Y-50178571D02*
X106825771Y-50130952D01*
X106825771Y-50130952D02*
X106778152Y-50035714D01*
X106778152Y-50035714D02*
X106778152Y-49940476D01*
X106778152Y-49702380D02*
X107444819Y-49464285D01*
X106778152Y-49226190D02*
X107444819Y-49464285D01*
X107444819Y-49464285D02*
X107682914Y-49559523D01*
X107682914Y-49559523D02*
X107730533Y-49607142D01*
X107730533Y-49607142D02*
X107778152Y-49702380D01*
X106921009Y-48845237D02*
X106921009Y-48511904D01*
X107444819Y-48369047D02*
X107444819Y-48845237D01*
X107444819Y-48845237D02*
X106444819Y-48845237D01*
X106444819Y-48845237D02*
X106444819Y-48369047D01*
X106778152Y-47940475D02*
X107444819Y-47940475D01*
X106873390Y-47940475D02*
X106825771Y-47892856D01*
X106825771Y-47892856D02*
X106778152Y-47797618D01*
X106778152Y-47797618D02*
X106778152Y-47654761D01*
X106778152Y-47654761D02*
X106825771Y-47559523D01*
X106825771Y-47559523D02*
X106921009Y-47511904D01*
X106921009Y-47511904D02*
X107444819Y-47511904D01*
X107397200Y-46607142D02*
X107444819Y-46702380D01*
X107444819Y-46702380D02*
X107444819Y-46892856D01*
X107444819Y-46892856D02*
X107397200Y-46988094D01*
X107397200Y-46988094D02*
X107349580Y-47035713D01*
X107349580Y-47035713D02*
X107254342Y-47083332D01*
X107254342Y-47083332D02*
X106968628Y-47083332D01*
X106968628Y-47083332D02*
X106873390Y-47035713D01*
X106873390Y-47035713D02*
X106825771Y-46988094D01*
X106825771Y-46988094D02*
X106778152Y-46892856D01*
X106778152Y-46892856D02*
X106778152Y-46702380D01*
X106778152Y-46702380D02*
X106825771Y-46607142D01*
X107444819Y-45654761D02*
X107444819Y-46226189D01*
X107444819Y-45940475D02*
X106444819Y-45940475D01*
X106444819Y-45940475D02*
X106587676Y-46035713D01*
X106587676Y-46035713D02*
X106682914Y-46130951D01*
X106682914Y-46130951D02*
X106730533Y-46226189D01*
X147410523Y-81290819D02*
X147410523Y-82005104D01*
X147410523Y-82005104D02*
X147362904Y-82147961D01*
X147362904Y-82147961D02*
X147267666Y-82243200D01*
X147267666Y-82243200D02*
X147124809Y-82290819D01*
X147124809Y-82290819D02*
X147029571Y-82290819D01*
X147791476Y-81290819D02*
X148410523Y-81290819D01*
X148410523Y-81290819D02*
X148077190Y-81671771D01*
X148077190Y-81671771D02*
X148220047Y-81671771D01*
X148220047Y-81671771D02*
X148315285Y-81719390D01*
X148315285Y-81719390D02*
X148362904Y-81767009D01*
X148362904Y-81767009D02*
X148410523Y-81862247D01*
X148410523Y-81862247D02*
X148410523Y-82100342D01*
X148410523Y-82100342D02*
X148362904Y-82195580D01*
X148362904Y-82195580D02*
X148315285Y-82243200D01*
X148315285Y-82243200D02*
X148220047Y-82290819D01*
X148220047Y-82290819D02*
X147934333Y-82290819D01*
X147934333Y-82290819D02*
X147839095Y-82243200D01*
X147839095Y-82243200D02*
X147791476Y-82195580D01*
X148791476Y-82243200D02*
X148934333Y-82290819D01*
X148934333Y-82290819D02*
X149172428Y-82290819D01*
X149172428Y-82290819D02*
X149267666Y-82243200D01*
X149267666Y-82243200D02*
X149315285Y-82195580D01*
X149315285Y-82195580D02*
X149362904Y-82100342D01*
X149362904Y-82100342D02*
X149362904Y-82005104D01*
X149362904Y-82005104D02*
X149315285Y-81909866D01*
X149315285Y-81909866D02*
X149267666Y-81862247D01*
X149267666Y-81862247D02*
X149172428Y-81814628D01*
X149172428Y-81814628D02*
X148981952Y-81767009D01*
X148981952Y-81767009D02*
X148886714Y-81719390D01*
X148886714Y-81719390D02*
X148839095Y-81671771D01*
X148839095Y-81671771D02*
X148791476Y-81576533D01*
X148791476Y-81576533D02*
X148791476Y-81481295D01*
X148791476Y-81481295D02*
X148839095Y-81386057D01*
X148839095Y-81386057D02*
X148886714Y-81338438D01*
X148886714Y-81338438D02*
X148981952Y-81290819D01*
X148981952Y-81290819D02*
X149220047Y-81290819D01*
X149220047Y-81290819D02*
X149362904Y-81338438D01*
X150172428Y-82243200D02*
X150077190Y-82290819D01*
X150077190Y-82290819D02*
X149886714Y-82290819D01*
X149886714Y-82290819D02*
X149791476Y-82243200D01*
X149791476Y-82243200D02*
X149743857Y-82147961D01*
X149743857Y-82147961D02*
X149743857Y-81767009D01*
X149743857Y-81767009D02*
X149791476Y-81671771D01*
X149791476Y-81671771D02*
X149886714Y-81624152D01*
X149886714Y-81624152D02*
X150077190Y-81624152D01*
X150077190Y-81624152D02*
X150172428Y-81671771D01*
X150172428Y-81671771D02*
X150220047Y-81767009D01*
X150220047Y-81767009D02*
X150220047Y-81862247D01*
X150220047Y-81862247D02*
X149743857Y-81957485D01*
X150648619Y-81624152D02*
X150648619Y-82290819D01*
X150648619Y-81719390D02*
X150696238Y-81671771D01*
X150696238Y-81671771D02*
X150791476Y-81624152D01*
X150791476Y-81624152D02*
X150934333Y-81624152D01*
X150934333Y-81624152D02*
X151029571Y-81671771D01*
X151029571Y-81671771D02*
X151077190Y-81767009D01*
X151077190Y-81767009D02*
X151077190Y-82290819D01*
X151505762Y-82243200D02*
X151601000Y-82290819D01*
X151601000Y-82290819D02*
X151791476Y-82290819D01*
X151791476Y-82290819D02*
X151886714Y-82243200D01*
X151886714Y-82243200D02*
X151934333Y-82147961D01*
X151934333Y-82147961D02*
X151934333Y-82100342D01*
X151934333Y-82100342D02*
X151886714Y-82005104D01*
X151886714Y-82005104D02*
X151791476Y-81957485D01*
X151791476Y-81957485D02*
X151648619Y-81957485D01*
X151648619Y-81957485D02*
X151553381Y-81909866D01*
X151553381Y-81909866D02*
X151505762Y-81814628D01*
X151505762Y-81814628D02*
X151505762Y-81767009D01*
X151505762Y-81767009D02*
X151553381Y-81671771D01*
X151553381Y-81671771D02*
X151648619Y-81624152D01*
X151648619Y-81624152D02*
X151791476Y-81624152D01*
X151791476Y-81624152D02*
X151886714Y-81671771D01*
X152505762Y-82290819D02*
X152410524Y-82243200D01*
X152410524Y-82243200D02*
X152362905Y-82195580D01*
X152362905Y-82195580D02*
X152315286Y-82100342D01*
X152315286Y-82100342D02*
X152315286Y-81814628D01*
X152315286Y-81814628D02*
X152362905Y-81719390D01*
X152362905Y-81719390D02*
X152410524Y-81671771D01*
X152410524Y-81671771D02*
X152505762Y-81624152D01*
X152505762Y-81624152D02*
X152648619Y-81624152D01*
X152648619Y-81624152D02*
X152743857Y-81671771D01*
X152743857Y-81671771D02*
X152791476Y-81719390D01*
X152791476Y-81719390D02*
X152839095Y-81814628D01*
X152839095Y-81814628D02*
X152839095Y-82100342D01*
X152839095Y-82100342D02*
X152791476Y-82195580D01*
X152791476Y-82195580D02*
X152743857Y-82243200D01*
X152743857Y-82243200D02*
X152648619Y-82290819D01*
X152648619Y-82290819D02*
X152505762Y-82290819D01*
X153267667Y-82290819D02*
X153267667Y-81624152D01*
X153267667Y-81814628D02*
X153315286Y-81719390D01*
X153315286Y-81719390D02*
X153362905Y-81671771D01*
X153362905Y-81671771D02*
X153458143Y-81624152D01*
X153458143Y-81624152D02*
X153553381Y-81624152D01*
X153886715Y-82290819D02*
X153886715Y-81290819D01*
X153886715Y-81290819D02*
X154124810Y-81290819D01*
X154124810Y-81290819D02*
X154267667Y-81338438D01*
X154267667Y-81338438D02*
X154362905Y-81433676D01*
X154362905Y-81433676D02*
X154410524Y-81528914D01*
X154410524Y-81528914D02*
X154458143Y-81719390D01*
X154458143Y-81719390D02*
X154458143Y-81862247D01*
X154458143Y-81862247D02*
X154410524Y-82052723D01*
X154410524Y-82052723D02*
X154362905Y-82147961D01*
X154362905Y-82147961D02*
X154267667Y-82243200D01*
X154267667Y-82243200D02*
X154124810Y-82290819D01*
X154124810Y-82290819D02*
X153886715Y-82290819D01*
X154886715Y-82290819D02*
X154886715Y-81624152D01*
X154886715Y-81814628D02*
X154934334Y-81719390D01*
X154934334Y-81719390D02*
X154981953Y-81671771D01*
X154981953Y-81671771D02*
X155077191Y-81624152D01*
X155077191Y-81624152D02*
X155172429Y-81624152D01*
X155505763Y-82290819D02*
X155505763Y-81624152D01*
X155505763Y-81290819D02*
X155458144Y-81338438D01*
X155458144Y-81338438D02*
X155505763Y-81386057D01*
X155505763Y-81386057D02*
X155553382Y-81338438D01*
X155553382Y-81338438D02*
X155505763Y-81290819D01*
X155505763Y-81290819D02*
X155505763Y-81386057D01*
X155886715Y-81624152D02*
X156124810Y-82290819D01*
X156124810Y-82290819D02*
X156362905Y-81624152D01*
X157124810Y-82243200D02*
X157029572Y-82290819D01*
X157029572Y-82290819D02*
X156839096Y-82290819D01*
X156839096Y-82290819D02*
X156743858Y-82243200D01*
X156743858Y-82243200D02*
X156696239Y-82147961D01*
X156696239Y-82147961D02*
X156696239Y-81767009D01*
X156696239Y-81767009D02*
X156743858Y-81671771D01*
X156743858Y-81671771D02*
X156839096Y-81624152D01*
X156839096Y-81624152D02*
X157029572Y-81624152D01*
X157029572Y-81624152D02*
X157124810Y-81671771D01*
X157124810Y-81671771D02*
X157172429Y-81767009D01*
X157172429Y-81767009D02*
X157172429Y-81862247D01*
X157172429Y-81862247D02*
X156696239Y-81957485D01*
X158124810Y-82290819D02*
X157553382Y-82290819D01*
X157839096Y-82290819D02*
X157839096Y-81290819D01*
X157839096Y-81290819D02*
X157743858Y-81433676D01*
X157743858Y-81433676D02*
X157648620Y-81528914D01*
X157648620Y-81528914D02*
X157553382Y-81576533D01*
X146899809Y-75194819D02*
X146899809Y-75909104D01*
X146899809Y-75909104D02*
X146852190Y-76051961D01*
X146852190Y-76051961D02*
X146756952Y-76147200D01*
X146756952Y-76147200D02*
X146614095Y-76194819D01*
X146614095Y-76194819D02*
X146518857Y-76194819D01*
X147328381Y-75290057D02*
X147376000Y-75242438D01*
X147376000Y-75242438D02*
X147471238Y-75194819D01*
X147471238Y-75194819D02*
X147709333Y-75194819D01*
X147709333Y-75194819D02*
X147804571Y-75242438D01*
X147804571Y-75242438D02*
X147852190Y-75290057D01*
X147852190Y-75290057D02*
X147899809Y-75385295D01*
X147899809Y-75385295D02*
X147899809Y-75480533D01*
X147899809Y-75480533D02*
X147852190Y-75623390D01*
X147852190Y-75623390D02*
X147280762Y-76194819D01*
X147280762Y-76194819D02*
X147899809Y-76194819D01*
X148376000Y-76147200D02*
X148376000Y-76194819D01*
X148376000Y-76194819D02*
X148328381Y-76290057D01*
X148328381Y-76290057D02*
X148280762Y-76337676D01*
X148804571Y-76194819D02*
X148804571Y-75194819D01*
X148804571Y-75194819D02*
X149137904Y-75909104D01*
X149137904Y-75909104D02*
X149471237Y-75194819D01*
X149471237Y-75194819D02*
X149471237Y-76194819D01*
X150090285Y-76194819D02*
X149995047Y-76147200D01*
X149995047Y-76147200D02*
X149947428Y-76099580D01*
X149947428Y-76099580D02*
X149899809Y-76004342D01*
X149899809Y-76004342D02*
X149899809Y-75718628D01*
X149899809Y-75718628D02*
X149947428Y-75623390D01*
X149947428Y-75623390D02*
X149995047Y-75575771D01*
X149995047Y-75575771D02*
X150090285Y-75528152D01*
X150090285Y-75528152D02*
X150233142Y-75528152D01*
X150233142Y-75528152D02*
X150328380Y-75575771D01*
X150328380Y-75575771D02*
X150375999Y-75623390D01*
X150375999Y-75623390D02*
X150423618Y-75718628D01*
X150423618Y-75718628D02*
X150423618Y-76004342D01*
X150423618Y-76004342D02*
X150375999Y-76099580D01*
X150375999Y-76099580D02*
X150328380Y-76147200D01*
X150328380Y-76147200D02*
X150233142Y-76194819D01*
X150233142Y-76194819D02*
X150090285Y-76194819D01*
X150709333Y-75528152D02*
X151090285Y-75528152D01*
X150852190Y-75194819D02*
X150852190Y-76051961D01*
X150852190Y-76051961D02*
X150899809Y-76147200D01*
X150899809Y-76147200D02*
X150995047Y-76194819D01*
X150995047Y-76194819D02*
X151090285Y-76194819D01*
X151566476Y-76194819D02*
X151471238Y-76147200D01*
X151471238Y-76147200D02*
X151423619Y-76099580D01*
X151423619Y-76099580D02*
X151376000Y-76004342D01*
X151376000Y-76004342D02*
X151376000Y-75718628D01*
X151376000Y-75718628D02*
X151423619Y-75623390D01*
X151423619Y-75623390D02*
X151471238Y-75575771D01*
X151471238Y-75575771D02*
X151566476Y-75528152D01*
X151566476Y-75528152D02*
X151709333Y-75528152D01*
X151709333Y-75528152D02*
X151804571Y-75575771D01*
X151804571Y-75575771D02*
X151852190Y-75623390D01*
X151852190Y-75623390D02*
X151899809Y-75718628D01*
X151899809Y-75718628D02*
X151899809Y-76004342D01*
X151899809Y-76004342D02*
X151852190Y-76099580D01*
X151852190Y-76099580D02*
X151804571Y-76147200D01*
X151804571Y-76147200D02*
X151709333Y-76194819D01*
X151709333Y-76194819D02*
X151566476Y-76194819D01*
X152328381Y-76194819D02*
X152328381Y-75528152D01*
X152328381Y-75718628D02*
X152376000Y-75623390D01*
X152376000Y-75623390D02*
X152423619Y-75575771D01*
X152423619Y-75575771D02*
X152518857Y-75528152D01*
X152518857Y-75528152D02*
X152614095Y-75528152D01*
X152947429Y-76194819D02*
X152947429Y-75194819D01*
X152947429Y-75194819D02*
X153185524Y-75194819D01*
X153185524Y-75194819D02*
X153328381Y-75242438D01*
X153328381Y-75242438D02*
X153423619Y-75337676D01*
X153423619Y-75337676D02*
X153471238Y-75432914D01*
X153471238Y-75432914D02*
X153518857Y-75623390D01*
X153518857Y-75623390D02*
X153518857Y-75766247D01*
X153518857Y-75766247D02*
X153471238Y-75956723D01*
X153471238Y-75956723D02*
X153423619Y-76051961D01*
X153423619Y-76051961D02*
X153328381Y-76147200D01*
X153328381Y-76147200D02*
X153185524Y-76194819D01*
X153185524Y-76194819D02*
X152947429Y-76194819D01*
X153947429Y-76194819D02*
X153947429Y-75528152D01*
X153947429Y-75718628D02*
X153995048Y-75623390D01*
X153995048Y-75623390D02*
X154042667Y-75575771D01*
X154042667Y-75575771D02*
X154137905Y-75528152D01*
X154137905Y-75528152D02*
X154233143Y-75528152D01*
X154566477Y-76194819D02*
X154566477Y-75528152D01*
X154566477Y-75194819D02*
X154518858Y-75242438D01*
X154518858Y-75242438D02*
X154566477Y-75290057D01*
X154566477Y-75290057D02*
X154614096Y-75242438D01*
X154614096Y-75242438D02*
X154566477Y-75194819D01*
X154566477Y-75194819D02*
X154566477Y-75290057D01*
X154947429Y-75528152D02*
X155185524Y-76194819D01*
X155185524Y-76194819D02*
X155423619Y-75528152D01*
X156185524Y-76147200D02*
X156090286Y-76194819D01*
X156090286Y-76194819D02*
X155899810Y-76194819D01*
X155899810Y-76194819D02*
X155804572Y-76147200D01*
X155804572Y-76147200D02*
X155756953Y-76051961D01*
X155756953Y-76051961D02*
X155756953Y-75671009D01*
X155756953Y-75671009D02*
X155804572Y-75575771D01*
X155804572Y-75575771D02*
X155899810Y-75528152D01*
X155899810Y-75528152D02*
X156090286Y-75528152D01*
X156090286Y-75528152D02*
X156185524Y-75575771D01*
X156185524Y-75575771D02*
X156233143Y-75671009D01*
X156233143Y-75671009D02*
X156233143Y-75766247D01*
X156233143Y-75766247D02*
X155756953Y-75861485D01*
X157185524Y-76194819D02*
X156614096Y-76194819D01*
X156899810Y-76194819D02*
X156899810Y-75194819D01*
X156899810Y-75194819D02*
X156804572Y-75337676D01*
X156804572Y-75337676D02*
X156709334Y-75432914D01*
X156709334Y-75432914D02*
X156614096Y-75480533D01*
D11*
%TO.C,R1*%
X160020000Y-87352000D02*
X160020000Y-86582000D01*
X158650000Y-86582000D02*
X161390000Y-86582000D01*
X161390000Y-86582000D02*
X161390000Y-80042000D01*
X158650000Y-80042000D02*
X158650000Y-86582000D01*
X161390000Y-80042000D02*
X158650000Y-80042000D01*
X160020000Y-79272000D02*
X160020000Y-80042000D01*
%TO.C,J1\u002CI2CScreen1*%
X150562000Y-44146000D02*
X151892000Y-44146000D01*
X150562000Y-45476000D02*
X150562000Y-44146000D01*
X150562000Y-46746000D02*
X150562000Y-54426000D01*
X150562000Y-46746000D02*
X153222000Y-46746000D01*
X150562000Y-54426000D02*
X153222000Y-54426000D01*
X153222000Y-46746000D02*
X153222000Y-54426000D01*
%TO.C,J6\u002CUSBJumper1*%
X157236000Y-88644000D02*
X157236000Y-89974000D01*
X155906000Y-88644000D02*
X157236000Y-88644000D01*
X154636000Y-88644000D02*
X149496000Y-88644000D01*
X154636000Y-88644000D02*
X154636000Y-91304000D01*
X149496000Y-88644000D02*
X149496000Y-91304000D01*
X154636000Y-91304000D02*
X149496000Y-91304000D01*
%TO.C,U2*%
X171236000Y-64301000D02*
X171236000Y-59660000D01*
X171236000Y-64301000D02*
X160996000Y-64301000D01*
X171236000Y-62791000D02*
X160996000Y-62791000D01*
X171236000Y-59660000D02*
X160996000Y-59660000D01*
X167966000Y-64301000D02*
X167966000Y-62791000D01*
X164265000Y-64301000D02*
X164265000Y-62791000D01*
X160996000Y-64301000D02*
X160996000Y-59660000D01*
D12*
%TO.C,U1*%
X117580000Y-91175000D02*
X117580000Y-44915000D01*
X118580000Y-43915000D02*
X122550000Y-43915000D01*
X118580000Y-92175000D02*
X127500000Y-92175000D01*
X122550000Y-37175000D02*
X140550000Y-37175000D01*
X122550000Y-43915000D02*
X122550000Y-37175000D01*
X127500000Y-92175000D02*
X127500000Y-93175000D01*
X127500000Y-93175000D02*
X135600000Y-93175000D01*
X135600000Y-92175000D02*
X144520000Y-92175000D01*
X135600000Y-93175000D02*
X135600000Y-92175000D01*
X140550000Y-37175000D02*
X140550000Y-43915000D01*
X140550000Y-43915000D02*
X144520000Y-43915000D01*
X145520000Y-91175000D02*
X145520000Y-44915000D01*
X118580000Y-43915000D02*
G75*
G03*
X117580000Y-44915000I-1J-999999D01*
G01*
X117580000Y-91175000D02*
G75*
G03*
X118580000Y-92175000I999999J-1D01*
G01*
X145520000Y-44915000D02*
G75*
G03*
X144520000Y-43915000I-1000000J0D01*
G01*
X144520000Y-92175000D02*
G75*
G03*
X145520000Y-91175000I0J1000000D01*
G01*
D13*
X117150000Y-45210000D02*
G75*
G03*
X117150000Y-45210000I-100000J0D01*
G01*
D11*
%TO.C,D1*%
X168681000Y-89937000D02*
X168681000Y-86847000D01*
X163131001Y-88391538D02*
G75*
G03*
X168680999Y-89936830I2989999J-462D01*
G01*
X168681000Y-86847170D02*
G75*
G03*
X163131000Y-88392462I-2560000J-1544830D01*
G01*
X168621000Y-88392000D02*
G75*
G03*
X168621000Y-88392000I-2500000J0D01*
G01*
%TO.C,J2*%
X156658000Y-43882000D02*
X157988000Y-43882000D01*
X156658000Y-45212000D02*
X156658000Y-43882000D01*
X156658000Y-46482000D02*
X156658000Y-66862000D01*
X156658000Y-46482000D02*
X159318000Y-46482000D01*
X156658000Y-66862000D02*
X159318000Y-66862000D01*
X159318000Y-46482000D02*
X159318000Y-66862000D01*
%TO.C,J1*%
X99413500Y-82284000D02*
X99413500Y-83284000D01*
X99413500Y-83284000D02*
X99913500Y-82784000D01*
X99913500Y-82784000D02*
X99413500Y-82284000D01*
X100098500Y-78904000D02*
X100098500Y-96864000D01*
X100098500Y-96864000D02*
X115618500Y-96864000D01*
X115618500Y-78904000D02*
X100098500Y-78904000D01*
X115618500Y-78904000D02*
X115618500Y-96864000D01*
%TO.C,J4\u002CPowerIn2*%
X168938000Y-83962000D02*
X170678000Y-83962000D01*
X170678000Y-83962000D02*
X170678000Y-82462000D01*
X163318000Y-83722000D02*
X170438000Y-83722000D01*
X163318000Y-83722000D02*
X163318000Y-75902000D01*
X168878000Y-83722000D02*
X168878000Y-75902000D01*
X170438000Y-83722000D02*
X170438000Y-75902000D01*
X163318000Y-75902000D02*
X170438000Y-75902000D01*
X166170000Y-82994000D02*
G75*
G03*
X167385742Y-82994109I608000J1432000D01*
G01*
X165346000Y-80954000D02*
G75*
G03*
X165345891Y-82169742I1432000J-608000D01*
G01*
X168209999Y-82170000D02*
G75*
G03*
X168333492Y-81534989I-1431987J607998D01*
G01*
X168332999Y-81562000D02*
G75*
G03*
X168209384Y-80954413I-1554999J0D01*
G01*
X167386000Y-80130000D02*
G75*
G03*
X166170258Y-80129891I-607999J-1432003D01*
G01*
X168333000Y-78062000D02*
G75*
G03*
X168333000Y-78062000I-1555000J0D01*
G01*
%TO.C,J5\u002CSpeedPot1*%
X102670000Y-61145000D02*
X104000000Y-61145000D01*
X102670000Y-62475000D02*
X102670000Y-61145000D01*
X102670000Y-63745000D02*
X102670000Y-68885000D01*
X102670000Y-63745000D02*
X105330000Y-63745000D01*
X102670000Y-68885000D02*
X105330000Y-68885000D01*
X105330000Y-63745000D02*
X105330000Y-68885000D01*
%TO.C,J4\u002CPowerIn1*%
X169038000Y-74028000D02*
X170778000Y-74028000D01*
X170778000Y-74028000D02*
X170778000Y-72528000D01*
X163418000Y-73788000D02*
X170538000Y-73788000D01*
X163418000Y-73788000D02*
X163418000Y-65968000D01*
X168978000Y-73788000D02*
X168978000Y-65968000D01*
X170538000Y-73788000D02*
X170538000Y-65968000D01*
X163418000Y-65968000D02*
X170538000Y-65968000D01*
X166270000Y-73060000D02*
G75*
G03*
X167485742Y-73060109I608000J1432000D01*
G01*
X165446000Y-71020000D02*
G75*
G03*
X165445891Y-72235742I1432000J-608000D01*
G01*
X168309999Y-72236000D02*
G75*
G03*
X168433492Y-71600989I-1431987J607998D01*
G01*
X168432999Y-71628000D02*
G75*
G03*
X168309384Y-71020413I-1554999J0D01*
G01*
X167486000Y-70196000D02*
G75*
G03*
X166270258Y-70195891I-607999J-1432003D01*
G01*
X168433000Y-68128000D02*
G75*
G03*
X168433000Y-68128000I-1555000J0D01*
G01*
%TO.C,J2\u002CPowerSW1*%
X108920000Y-61145000D02*
X110250000Y-61145000D01*
X108920000Y-62475000D02*
X108920000Y-61145000D01*
X108920000Y-63745000D02*
X108920000Y-68885000D01*
X108920000Y-63745000D02*
X111580000Y-63745000D01*
X108920000Y-68885000D02*
X111580000Y-68885000D01*
X111580000Y-63745000D02*
X111580000Y-68885000D01*
%TO.C,J1\u002CServoDrive1*%
X149546000Y-73974000D02*
X149546000Y-72644000D01*
X150876000Y-73974000D02*
X149546000Y-73974000D01*
X152146000Y-73974000D02*
X157286000Y-73974000D01*
X152146000Y-73974000D02*
X152146000Y-71314000D01*
X157286000Y-73974000D02*
X157286000Y-71314000D01*
X152146000Y-71314000D02*
X157286000Y-71314000D01*
%TO.C,J1\u002CRotaryEnc1*%
X109160000Y-44420000D02*
X110490000Y-44420000D01*
X109160000Y-45750000D02*
X109160000Y-44420000D01*
X109160000Y-47020000D02*
X109160000Y-57240000D01*
X109160000Y-47020000D02*
X111820000Y-47020000D01*
X109160000Y-57240000D02*
X111820000Y-57240000D01*
X111820000Y-47020000D02*
X111820000Y-57240000D01*
%TO.C,J3SensorDrive1*%
X149561000Y-86166000D02*
X149561000Y-84836000D01*
X150891000Y-86166000D02*
X149561000Y-86166000D01*
X152161000Y-86166000D02*
X157301000Y-86166000D01*
X152161000Y-86166000D02*
X152161000Y-83506000D01*
X157301000Y-86166000D02*
X157301000Y-83506000D01*
X152161000Y-83506000D02*
X157301000Y-83506000D01*
%TO.C,J2\u002CMotorDrive1*%
X149561000Y-80070000D02*
X149561000Y-78740000D01*
X150891000Y-80070000D02*
X149561000Y-80070000D01*
X152161000Y-80070000D02*
X157301000Y-80070000D01*
X152161000Y-80070000D02*
X152161000Y-77410000D01*
X157301000Y-80070000D02*
X157301000Y-77410000D01*
X152161000Y-77410000D02*
X157301000Y-77410000D01*
%TD*%
M02*
