%TF.GenerationSoftware,KiCad,Pcbnew,7.0.9*%
%TF.CreationDate,2024-05-07T23:03:17-04:00*%
%TF.ProjectId,Winder_V1,57696e64-6572-45f5-9631-2e6b69636164,rev?*%
%TF.SameCoordinates,Original*%
%TF.FileFunction,Drillmap*%
%TF.FilePolarity,Positive*%
%FSLAX45Y45*%
G04 Gerber Fmt 4.5, Leading zero omitted, Abs format (unit mm)*
G04 Created by KiCad (PCBNEW 7.0.9) date 2024-05-07 23:03:17*
%MOMM*%
%LPD*%
G01*
G04 APERTURE LIST*
%ADD10C,0.100000*%
%ADD11C,0.200000*%
%ADD12C,0.320000*%
G04 APERTURE END LIST*
D10*
X16732766Y-5130800D02*
G75*
G03*
X16732766Y-5130800I-273566J0D01*
G01*
D11*
X9906000Y-9093200D02*
G75*
G03*
X10160000Y-9347200I254000J0D01*
G01*
X16916400Y-9347200D02*
G75*
G03*
X17170400Y-9093200I0J254000D01*
G01*
X9906000Y-4445000D02*
X9906000Y-9093200D01*
X17170400Y-9093200D02*
X17170400Y-4419600D01*
X10160000Y-9347200D02*
X16916400Y-9347200D01*
X17170400Y-4419600D02*
G75*
G03*
X16916400Y-4165600I-254000J0D01*
G01*
D10*
X13430766Y-8331200D02*
G75*
G03*
X13430766Y-8331200I-273566J0D01*
G01*
D11*
X10160000Y-4191000D02*
G75*
G03*
X9906000Y-4445000I0J-254000D01*
G01*
D10*
X10585966Y-5130800D02*
G75*
G03*
X10585966Y-5130800I-273566J0D01*
G01*
D11*
X16916400Y-4165600D02*
X10160000Y-4191000D01*
D12*
X10054350Y-8753400D02*
X10374350Y-9073400D01*
X10374350Y-8753400D02*
X10054350Y-9073400D01*
X11197350Y-8753400D02*
X11517350Y-9073400D01*
X11517350Y-8753400D02*
X11197350Y-9073400D01*
D11*
X10156777Y-9668684D02*
X10156777Y-9468684D01*
X10156777Y-9468684D02*
X10204396Y-9468684D01*
X10204396Y-9468684D02*
X10232967Y-9478208D01*
X10232967Y-9478208D02*
X10252015Y-9497255D01*
X10252015Y-9497255D02*
X10261539Y-9516303D01*
X10261539Y-9516303D02*
X10271062Y-9554398D01*
X10271062Y-9554398D02*
X10271062Y-9582970D01*
X10271062Y-9582970D02*
X10261539Y-9621065D01*
X10261539Y-9621065D02*
X10252015Y-9640112D01*
X10252015Y-9640112D02*
X10232967Y-9659160D01*
X10232967Y-9659160D02*
X10204396Y-9668684D01*
X10204396Y-9668684D02*
X10156777Y-9668684D01*
X10356777Y-9668684D02*
X10356777Y-9535351D01*
X10356777Y-9573446D02*
X10366301Y-9554398D01*
X10366301Y-9554398D02*
X10375824Y-9544874D01*
X10375824Y-9544874D02*
X10394872Y-9535351D01*
X10394872Y-9535351D02*
X10413920Y-9535351D01*
X10480586Y-9668684D02*
X10480586Y-9535351D01*
X10480586Y-9468684D02*
X10471062Y-9478208D01*
X10471062Y-9478208D02*
X10480586Y-9487732D01*
X10480586Y-9487732D02*
X10490110Y-9478208D01*
X10490110Y-9478208D02*
X10480586Y-9468684D01*
X10480586Y-9468684D02*
X10480586Y-9487732D01*
X10604396Y-9668684D02*
X10585348Y-9659160D01*
X10585348Y-9659160D02*
X10575824Y-9640112D01*
X10575824Y-9640112D02*
X10575824Y-9468684D01*
X10709158Y-9668684D02*
X10690110Y-9659160D01*
X10690110Y-9659160D02*
X10680586Y-9640112D01*
X10680586Y-9640112D02*
X10680586Y-9468684D01*
X10937729Y-9668684D02*
X10937729Y-9468684D01*
X10937729Y-9468684D02*
X11004396Y-9611541D01*
X11004396Y-9611541D02*
X11071062Y-9468684D01*
X11071062Y-9468684D02*
X11071062Y-9668684D01*
X11252015Y-9668684D02*
X11252015Y-9563922D01*
X11252015Y-9563922D02*
X11242491Y-9544874D01*
X11242491Y-9544874D02*
X11223443Y-9535351D01*
X11223443Y-9535351D02*
X11185348Y-9535351D01*
X11185348Y-9535351D02*
X11166301Y-9544874D01*
X11252015Y-9659160D02*
X11232967Y-9668684D01*
X11232967Y-9668684D02*
X11185348Y-9668684D01*
X11185348Y-9668684D02*
X11166301Y-9659160D01*
X11166301Y-9659160D02*
X11156777Y-9640112D01*
X11156777Y-9640112D02*
X11156777Y-9621065D01*
X11156777Y-9621065D02*
X11166301Y-9602017D01*
X11166301Y-9602017D02*
X11185348Y-9592493D01*
X11185348Y-9592493D02*
X11232967Y-9592493D01*
X11232967Y-9592493D02*
X11252015Y-9582970D01*
X11347253Y-9535351D02*
X11347253Y-9735351D01*
X11347253Y-9544874D02*
X11366300Y-9535351D01*
X11366300Y-9535351D02*
X11404396Y-9535351D01*
X11404396Y-9535351D02*
X11423443Y-9544874D01*
X11423443Y-9544874D02*
X11432967Y-9554398D01*
X11432967Y-9554398D02*
X11442491Y-9573446D01*
X11442491Y-9573446D02*
X11442491Y-9630589D01*
X11442491Y-9630589D02*
X11432967Y-9649636D01*
X11432967Y-9649636D02*
X11423443Y-9659160D01*
X11423443Y-9659160D02*
X11404396Y-9668684D01*
X11404396Y-9668684D02*
X11366300Y-9668684D01*
X11366300Y-9668684D02*
X11347253Y-9659160D01*
X11528205Y-9649636D02*
X11537729Y-9659160D01*
X11537729Y-9659160D02*
X11528205Y-9668684D01*
X11528205Y-9668684D02*
X11518681Y-9659160D01*
X11518681Y-9659160D02*
X11528205Y-9649636D01*
X11528205Y-9649636D02*
X11528205Y-9668684D01*
X11528205Y-9544874D02*
X11537729Y-9554398D01*
X11537729Y-9554398D02*
X11528205Y-9563922D01*
X11528205Y-9563922D02*
X11518681Y-9554398D01*
X11518681Y-9554398D02*
X11528205Y-9544874D01*
X11528205Y-9544874D02*
X11528205Y-9563922D01*
X9696000Y-9897200D02*
X9896000Y-10097200D01*
X9896000Y-9897200D02*
X9696000Y-10097200D01*
X10137729Y-9888684D02*
X10261539Y-9888684D01*
X10261539Y-9888684D02*
X10194872Y-9964874D01*
X10194872Y-9964874D02*
X10223443Y-9964874D01*
X10223443Y-9964874D02*
X10242491Y-9974398D01*
X10242491Y-9974398D02*
X10252015Y-9983922D01*
X10252015Y-9983922D02*
X10261539Y-10002970D01*
X10261539Y-10002970D02*
X10261539Y-10050589D01*
X10261539Y-10050589D02*
X10252015Y-10069636D01*
X10252015Y-10069636D02*
X10242491Y-10079160D01*
X10242491Y-10079160D02*
X10223443Y-10088684D01*
X10223443Y-10088684D02*
X10166301Y-10088684D01*
X10166301Y-10088684D02*
X10147253Y-10079160D01*
X10147253Y-10079160D02*
X10137729Y-10069636D01*
X10347253Y-10069636D02*
X10356777Y-10079160D01*
X10356777Y-10079160D02*
X10347253Y-10088684D01*
X10347253Y-10088684D02*
X10337729Y-10079160D01*
X10337729Y-10079160D02*
X10347253Y-10069636D01*
X10347253Y-10069636D02*
X10347253Y-10088684D01*
X10432967Y-9907732D02*
X10442491Y-9898208D01*
X10442491Y-9898208D02*
X10461539Y-9888684D01*
X10461539Y-9888684D02*
X10509158Y-9888684D01*
X10509158Y-9888684D02*
X10528205Y-9898208D01*
X10528205Y-9898208D02*
X10537729Y-9907732D01*
X10537729Y-9907732D02*
X10547253Y-9926779D01*
X10547253Y-9926779D02*
X10547253Y-9945827D01*
X10547253Y-9945827D02*
X10537729Y-9974398D01*
X10537729Y-9974398D02*
X10423443Y-10088684D01*
X10423443Y-10088684D02*
X10547253Y-10088684D01*
X10671062Y-9888684D02*
X10690110Y-9888684D01*
X10690110Y-9888684D02*
X10709158Y-9898208D01*
X10709158Y-9898208D02*
X10718682Y-9907732D01*
X10718682Y-9907732D02*
X10728205Y-9926779D01*
X10728205Y-9926779D02*
X10737729Y-9964874D01*
X10737729Y-9964874D02*
X10737729Y-10012493D01*
X10737729Y-10012493D02*
X10728205Y-10050589D01*
X10728205Y-10050589D02*
X10718682Y-10069636D01*
X10718682Y-10069636D02*
X10709158Y-10079160D01*
X10709158Y-10079160D02*
X10690110Y-10088684D01*
X10690110Y-10088684D02*
X10671062Y-10088684D01*
X10671062Y-10088684D02*
X10652015Y-10079160D01*
X10652015Y-10079160D02*
X10642491Y-10069636D01*
X10642491Y-10069636D02*
X10632967Y-10050589D01*
X10632967Y-10050589D02*
X10623443Y-10012493D01*
X10623443Y-10012493D02*
X10623443Y-9964874D01*
X10623443Y-9964874D02*
X10632967Y-9926779D01*
X10632967Y-9926779D02*
X10642491Y-9907732D01*
X10642491Y-9907732D02*
X10652015Y-9898208D01*
X10652015Y-9898208D02*
X10671062Y-9888684D01*
X10861539Y-9888684D02*
X10880586Y-9888684D01*
X10880586Y-9888684D02*
X10899634Y-9898208D01*
X10899634Y-9898208D02*
X10909158Y-9907732D01*
X10909158Y-9907732D02*
X10918682Y-9926779D01*
X10918682Y-9926779D02*
X10928205Y-9964874D01*
X10928205Y-9964874D02*
X10928205Y-10012493D01*
X10928205Y-10012493D02*
X10918682Y-10050589D01*
X10918682Y-10050589D02*
X10909158Y-10069636D01*
X10909158Y-10069636D02*
X10899634Y-10079160D01*
X10899634Y-10079160D02*
X10880586Y-10088684D01*
X10880586Y-10088684D02*
X10861539Y-10088684D01*
X10861539Y-10088684D02*
X10842491Y-10079160D01*
X10842491Y-10079160D02*
X10832967Y-10069636D01*
X10832967Y-10069636D02*
X10823443Y-10050589D01*
X10823443Y-10050589D02*
X10813920Y-10012493D01*
X10813920Y-10012493D02*
X10813920Y-9964874D01*
X10813920Y-9964874D02*
X10823443Y-9926779D01*
X10823443Y-9926779D02*
X10832967Y-9907732D01*
X10832967Y-9907732D02*
X10842491Y-9898208D01*
X10842491Y-9898208D02*
X10861539Y-9888684D01*
X11013920Y-10088684D02*
X11013920Y-9955351D01*
X11013920Y-9974398D02*
X11023443Y-9964874D01*
X11023443Y-9964874D02*
X11042491Y-9955351D01*
X11042491Y-9955351D02*
X11071063Y-9955351D01*
X11071063Y-9955351D02*
X11090110Y-9964874D01*
X11090110Y-9964874D02*
X11099634Y-9983922D01*
X11099634Y-9983922D02*
X11099634Y-10088684D01*
X11099634Y-9983922D02*
X11109158Y-9964874D01*
X11109158Y-9964874D02*
X11128205Y-9955351D01*
X11128205Y-9955351D02*
X11156777Y-9955351D01*
X11156777Y-9955351D02*
X11175824Y-9964874D01*
X11175824Y-9964874D02*
X11185348Y-9983922D01*
X11185348Y-9983922D02*
X11185348Y-10088684D01*
X11280586Y-10088684D02*
X11280586Y-9955351D01*
X11280586Y-9974398D02*
X11290110Y-9964874D01*
X11290110Y-9964874D02*
X11309158Y-9955351D01*
X11309158Y-9955351D02*
X11337729Y-9955351D01*
X11337729Y-9955351D02*
X11356777Y-9964874D01*
X11356777Y-9964874D02*
X11366301Y-9983922D01*
X11366301Y-9983922D02*
X11366301Y-10088684D01*
X11366301Y-9983922D02*
X11375824Y-9964874D01*
X11375824Y-9964874D02*
X11394872Y-9955351D01*
X11394872Y-9955351D02*
X11423443Y-9955351D01*
X11423443Y-9955351D02*
X11442491Y-9964874D01*
X11442491Y-9964874D02*
X11452015Y-9983922D01*
X11452015Y-9983922D02*
X11452015Y-10088684D01*
X11842491Y-9879160D02*
X11671063Y-10136303D01*
X12099634Y-9888684D02*
X12118682Y-9888684D01*
X12118682Y-9888684D02*
X12137729Y-9898208D01*
X12137729Y-9898208D02*
X12147253Y-9907732D01*
X12147253Y-9907732D02*
X12156777Y-9926779D01*
X12156777Y-9926779D02*
X12166301Y-9964874D01*
X12166301Y-9964874D02*
X12166301Y-10012493D01*
X12166301Y-10012493D02*
X12156777Y-10050589D01*
X12156777Y-10050589D02*
X12147253Y-10069636D01*
X12147253Y-10069636D02*
X12137729Y-10079160D01*
X12137729Y-10079160D02*
X12118682Y-10088684D01*
X12118682Y-10088684D02*
X12099634Y-10088684D01*
X12099634Y-10088684D02*
X12080586Y-10079160D01*
X12080586Y-10079160D02*
X12071063Y-10069636D01*
X12071063Y-10069636D02*
X12061539Y-10050589D01*
X12061539Y-10050589D02*
X12052015Y-10012493D01*
X12052015Y-10012493D02*
X12052015Y-9964874D01*
X12052015Y-9964874D02*
X12061539Y-9926779D01*
X12061539Y-9926779D02*
X12071063Y-9907732D01*
X12071063Y-9907732D02*
X12080586Y-9898208D01*
X12080586Y-9898208D02*
X12099634Y-9888684D01*
X12252015Y-10069636D02*
X12261539Y-10079160D01*
X12261539Y-10079160D02*
X12252015Y-10088684D01*
X12252015Y-10088684D02*
X12242491Y-10079160D01*
X12242491Y-10079160D02*
X12252015Y-10069636D01*
X12252015Y-10069636D02*
X12252015Y-10088684D01*
X12452015Y-10088684D02*
X12337729Y-10088684D01*
X12394872Y-10088684D02*
X12394872Y-9888684D01*
X12394872Y-9888684D02*
X12375824Y-9917255D01*
X12375824Y-9917255D02*
X12356777Y-9936303D01*
X12356777Y-9936303D02*
X12337729Y-9945827D01*
X12528205Y-9907732D02*
X12537729Y-9898208D01*
X12537729Y-9898208D02*
X12556777Y-9888684D01*
X12556777Y-9888684D02*
X12604396Y-9888684D01*
X12604396Y-9888684D02*
X12623444Y-9898208D01*
X12623444Y-9898208D02*
X12632967Y-9907732D01*
X12632967Y-9907732D02*
X12642491Y-9926779D01*
X12642491Y-9926779D02*
X12642491Y-9945827D01*
X12642491Y-9945827D02*
X12632967Y-9974398D01*
X12632967Y-9974398D02*
X12518682Y-10088684D01*
X12518682Y-10088684D02*
X12642491Y-10088684D01*
X12813920Y-9888684D02*
X12775824Y-9888684D01*
X12775824Y-9888684D02*
X12756777Y-9898208D01*
X12756777Y-9898208D02*
X12747253Y-9907732D01*
X12747253Y-9907732D02*
X12728205Y-9936303D01*
X12728205Y-9936303D02*
X12718682Y-9974398D01*
X12718682Y-9974398D02*
X12718682Y-10050589D01*
X12718682Y-10050589D02*
X12728205Y-10069636D01*
X12728205Y-10069636D02*
X12737729Y-10079160D01*
X12737729Y-10079160D02*
X12756777Y-10088684D01*
X12756777Y-10088684D02*
X12794872Y-10088684D01*
X12794872Y-10088684D02*
X12813920Y-10079160D01*
X12813920Y-10079160D02*
X12823444Y-10069636D01*
X12823444Y-10069636D02*
X12832967Y-10050589D01*
X12832967Y-10050589D02*
X12832967Y-10002970D01*
X12832967Y-10002970D02*
X12823444Y-9983922D01*
X12823444Y-9983922D02*
X12813920Y-9974398D01*
X12813920Y-9974398D02*
X12794872Y-9964874D01*
X12794872Y-9964874D02*
X12756777Y-9964874D01*
X12756777Y-9964874D02*
X12737729Y-9974398D01*
X12737729Y-9974398D02*
X12728205Y-9983922D01*
X12728205Y-9983922D02*
X12718682Y-10002970D01*
X12956777Y-9888684D02*
X12975825Y-9888684D01*
X12975825Y-9888684D02*
X12994872Y-9898208D01*
X12994872Y-9898208D02*
X13004396Y-9907732D01*
X13004396Y-9907732D02*
X13013920Y-9926779D01*
X13013920Y-9926779D02*
X13023444Y-9964874D01*
X13023444Y-9964874D02*
X13023444Y-10012493D01*
X13023444Y-10012493D02*
X13013920Y-10050589D01*
X13013920Y-10050589D02*
X13004396Y-10069636D01*
X13004396Y-10069636D02*
X12994872Y-10079160D01*
X12994872Y-10079160D02*
X12975825Y-10088684D01*
X12975825Y-10088684D02*
X12956777Y-10088684D01*
X12956777Y-10088684D02*
X12937729Y-10079160D01*
X12937729Y-10079160D02*
X12928205Y-10069636D01*
X12928205Y-10069636D02*
X12918682Y-10050589D01*
X12918682Y-10050589D02*
X12909158Y-10012493D01*
X12909158Y-10012493D02*
X12909158Y-9964874D01*
X12909158Y-9964874D02*
X12918682Y-9926779D01*
X12918682Y-9926779D02*
X12928205Y-9907732D01*
X12928205Y-9907732D02*
X12937729Y-9898208D01*
X12937729Y-9898208D02*
X12956777Y-9888684D01*
X13099634Y-9888684D02*
X13099634Y-9926779D01*
X13175825Y-9888684D02*
X13175825Y-9926779D01*
X13471063Y-10164874D02*
X13461539Y-10155351D01*
X13461539Y-10155351D02*
X13442491Y-10126779D01*
X13442491Y-10126779D02*
X13432967Y-10107732D01*
X13432967Y-10107732D02*
X13423444Y-10079160D01*
X13423444Y-10079160D02*
X13413920Y-10031541D01*
X13413920Y-10031541D02*
X13413920Y-9993446D01*
X13413920Y-9993446D02*
X13423444Y-9945827D01*
X13423444Y-9945827D02*
X13432967Y-9917255D01*
X13432967Y-9917255D02*
X13442491Y-9898208D01*
X13442491Y-9898208D02*
X13461539Y-9869636D01*
X13461539Y-9869636D02*
X13471063Y-9860112D01*
X13537729Y-9907732D02*
X13547253Y-9898208D01*
X13547253Y-9898208D02*
X13566301Y-9888684D01*
X13566301Y-9888684D02*
X13613920Y-9888684D01*
X13613920Y-9888684D02*
X13632967Y-9898208D01*
X13632967Y-9898208D02*
X13642491Y-9907732D01*
X13642491Y-9907732D02*
X13652015Y-9926779D01*
X13652015Y-9926779D02*
X13652015Y-9945827D01*
X13652015Y-9945827D02*
X13642491Y-9974398D01*
X13642491Y-9974398D02*
X13528206Y-10088684D01*
X13528206Y-10088684D02*
X13652015Y-10088684D01*
X13890110Y-10088684D02*
X13890110Y-9888684D01*
X13975825Y-10088684D02*
X13975825Y-9983922D01*
X13975825Y-9983922D02*
X13966301Y-9964874D01*
X13966301Y-9964874D02*
X13947253Y-9955351D01*
X13947253Y-9955351D02*
X13918682Y-9955351D01*
X13918682Y-9955351D02*
X13899634Y-9964874D01*
X13899634Y-9964874D02*
X13890110Y-9974398D01*
X14099634Y-10088684D02*
X14080587Y-10079160D01*
X14080587Y-10079160D02*
X14071063Y-10069636D01*
X14071063Y-10069636D02*
X14061539Y-10050589D01*
X14061539Y-10050589D02*
X14061539Y-9993446D01*
X14061539Y-9993446D02*
X14071063Y-9974398D01*
X14071063Y-9974398D02*
X14080587Y-9964874D01*
X14080587Y-9964874D02*
X14099634Y-9955351D01*
X14099634Y-9955351D02*
X14128206Y-9955351D01*
X14128206Y-9955351D02*
X14147253Y-9964874D01*
X14147253Y-9964874D02*
X14156777Y-9974398D01*
X14156777Y-9974398D02*
X14166301Y-9993446D01*
X14166301Y-9993446D02*
X14166301Y-10050589D01*
X14166301Y-10050589D02*
X14156777Y-10069636D01*
X14156777Y-10069636D02*
X14147253Y-10079160D01*
X14147253Y-10079160D02*
X14128206Y-10088684D01*
X14128206Y-10088684D02*
X14099634Y-10088684D01*
X14280587Y-10088684D02*
X14261539Y-10079160D01*
X14261539Y-10079160D02*
X14252015Y-10060112D01*
X14252015Y-10060112D02*
X14252015Y-9888684D01*
X14432968Y-10079160D02*
X14413920Y-10088684D01*
X14413920Y-10088684D02*
X14375825Y-10088684D01*
X14375825Y-10088684D02*
X14356777Y-10079160D01*
X14356777Y-10079160D02*
X14347253Y-10060112D01*
X14347253Y-10060112D02*
X14347253Y-9983922D01*
X14347253Y-9983922D02*
X14356777Y-9964874D01*
X14356777Y-9964874D02*
X14375825Y-9955351D01*
X14375825Y-9955351D02*
X14413920Y-9955351D01*
X14413920Y-9955351D02*
X14432968Y-9964874D01*
X14432968Y-9964874D02*
X14442491Y-9983922D01*
X14442491Y-9983922D02*
X14442491Y-10002970D01*
X14442491Y-10002970D02*
X14347253Y-10022017D01*
X14518682Y-10079160D02*
X14537729Y-10088684D01*
X14537729Y-10088684D02*
X14575825Y-10088684D01*
X14575825Y-10088684D02*
X14594872Y-10079160D01*
X14594872Y-10079160D02*
X14604396Y-10060112D01*
X14604396Y-10060112D02*
X14604396Y-10050589D01*
X14604396Y-10050589D02*
X14594872Y-10031541D01*
X14594872Y-10031541D02*
X14575825Y-10022017D01*
X14575825Y-10022017D02*
X14547253Y-10022017D01*
X14547253Y-10022017D02*
X14528206Y-10012493D01*
X14528206Y-10012493D02*
X14518682Y-9993446D01*
X14518682Y-9993446D02*
X14518682Y-9983922D01*
X14518682Y-9983922D02*
X14528206Y-9964874D01*
X14528206Y-9964874D02*
X14547253Y-9955351D01*
X14547253Y-9955351D02*
X14575825Y-9955351D01*
X14575825Y-9955351D02*
X14594872Y-9964874D01*
X14671063Y-10164874D02*
X14680587Y-10155351D01*
X14680587Y-10155351D02*
X14699634Y-10126779D01*
X14699634Y-10126779D02*
X14709158Y-10107732D01*
X14709158Y-10107732D02*
X14718682Y-10079160D01*
X14718682Y-10079160D02*
X14728206Y-10031541D01*
X14728206Y-10031541D02*
X14728206Y-9993446D01*
X14728206Y-9993446D02*
X14718682Y-9945827D01*
X14718682Y-9945827D02*
X14709158Y-9917255D01*
X14709158Y-9917255D02*
X14699634Y-9898208D01*
X14699634Y-9898208D02*
X14680587Y-9869636D01*
X14680587Y-9869636D02*
X14671063Y-9860112D01*
X15032968Y-10164874D02*
X15023444Y-10155351D01*
X15023444Y-10155351D02*
X15004396Y-10126779D01*
X15004396Y-10126779D02*
X14994872Y-10107732D01*
X14994872Y-10107732D02*
X14985349Y-10079160D01*
X14985349Y-10079160D02*
X14975825Y-10031541D01*
X14975825Y-10031541D02*
X14975825Y-9993446D01*
X14975825Y-9993446D02*
X14985349Y-9945827D01*
X14985349Y-9945827D02*
X14994872Y-9917255D01*
X14994872Y-9917255D02*
X15004396Y-9898208D01*
X15004396Y-9898208D02*
X15023444Y-9869636D01*
X15023444Y-9869636D02*
X15032968Y-9860112D01*
X15109158Y-9955351D02*
X15109158Y-10088684D01*
X15109158Y-9974398D02*
X15118682Y-9964874D01*
X15118682Y-9964874D02*
X15137729Y-9955351D01*
X15137729Y-9955351D02*
X15166301Y-9955351D01*
X15166301Y-9955351D02*
X15185349Y-9964874D01*
X15185349Y-9964874D02*
X15194872Y-9983922D01*
X15194872Y-9983922D02*
X15194872Y-10088684D01*
X15318682Y-10088684D02*
X15299634Y-10079160D01*
X15299634Y-10079160D02*
X15290110Y-10069636D01*
X15290110Y-10069636D02*
X15280587Y-10050589D01*
X15280587Y-10050589D02*
X15280587Y-9993446D01*
X15280587Y-9993446D02*
X15290110Y-9974398D01*
X15290110Y-9974398D02*
X15299634Y-9964874D01*
X15299634Y-9964874D02*
X15318682Y-9955351D01*
X15318682Y-9955351D02*
X15347253Y-9955351D01*
X15347253Y-9955351D02*
X15366301Y-9964874D01*
X15366301Y-9964874D02*
X15375825Y-9974398D01*
X15375825Y-9974398D02*
X15385349Y-9993446D01*
X15385349Y-9993446D02*
X15385349Y-10050589D01*
X15385349Y-10050589D02*
X15375825Y-10069636D01*
X15375825Y-10069636D02*
X15366301Y-10079160D01*
X15366301Y-10079160D02*
X15347253Y-10088684D01*
X15347253Y-10088684D02*
X15318682Y-10088684D01*
X15442491Y-9955351D02*
X15518682Y-9955351D01*
X15471063Y-9888684D02*
X15471063Y-10060112D01*
X15471063Y-10060112D02*
X15480587Y-10079160D01*
X15480587Y-10079160D02*
X15499634Y-10088684D01*
X15499634Y-10088684D02*
X15518682Y-10088684D01*
X15737730Y-9955351D02*
X15737730Y-10155351D01*
X15737730Y-9964874D02*
X15756777Y-9955351D01*
X15756777Y-9955351D02*
X15794872Y-9955351D01*
X15794872Y-9955351D02*
X15813920Y-9964874D01*
X15813920Y-9964874D02*
X15823444Y-9974398D01*
X15823444Y-9974398D02*
X15832968Y-9993446D01*
X15832968Y-9993446D02*
X15832968Y-10050589D01*
X15832968Y-10050589D02*
X15823444Y-10069636D01*
X15823444Y-10069636D02*
X15813920Y-10079160D01*
X15813920Y-10079160D02*
X15794872Y-10088684D01*
X15794872Y-10088684D02*
X15756777Y-10088684D01*
X15756777Y-10088684D02*
X15737730Y-10079160D01*
X15947253Y-10088684D02*
X15928206Y-10079160D01*
X15928206Y-10079160D02*
X15918682Y-10060112D01*
X15918682Y-10060112D02*
X15918682Y-9888684D01*
X16109158Y-10088684D02*
X16109158Y-9983922D01*
X16109158Y-9983922D02*
X16099634Y-9964874D01*
X16099634Y-9964874D02*
X16080587Y-9955351D01*
X16080587Y-9955351D02*
X16042491Y-9955351D01*
X16042491Y-9955351D02*
X16023444Y-9964874D01*
X16109158Y-10079160D02*
X16090111Y-10088684D01*
X16090111Y-10088684D02*
X16042491Y-10088684D01*
X16042491Y-10088684D02*
X16023444Y-10079160D01*
X16023444Y-10079160D02*
X16013920Y-10060112D01*
X16013920Y-10060112D02*
X16013920Y-10041065D01*
X16013920Y-10041065D02*
X16023444Y-10022017D01*
X16023444Y-10022017D02*
X16042491Y-10012493D01*
X16042491Y-10012493D02*
X16090111Y-10012493D01*
X16090111Y-10012493D02*
X16109158Y-10002970D01*
X16175825Y-9955351D02*
X16252015Y-9955351D01*
X16204396Y-9888684D02*
X16204396Y-10060112D01*
X16204396Y-10060112D02*
X16213920Y-10079160D01*
X16213920Y-10079160D02*
X16232968Y-10088684D01*
X16232968Y-10088684D02*
X16252015Y-10088684D01*
X16394872Y-10079160D02*
X16375825Y-10088684D01*
X16375825Y-10088684D02*
X16337730Y-10088684D01*
X16337730Y-10088684D02*
X16318682Y-10079160D01*
X16318682Y-10079160D02*
X16309158Y-10060112D01*
X16309158Y-10060112D02*
X16309158Y-9983922D01*
X16309158Y-9983922D02*
X16318682Y-9964874D01*
X16318682Y-9964874D02*
X16337730Y-9955351D01*
X16337730Y-9955351D02*
X16375825Y-9955351D01*
X16375825Y-9955351D02*
X16394872Y-9964874D01*
X16394872Y-9964874D02*
X16404396Y-9983922D01*
X16404396Y-9983922D02*
X16404396Y-10002970D01*
X16404396Y-10002970D02*
X16309158Y-10022017D01*
X16575825Y-10088684D02*
X16575825Y-9888684D01*
X16575825Y-10079160D02*
X16556777Y-10088684D01*
X16556777Y-10088684D02*
X16518682Y-10088684D01*
X16518682Y-10088684D02*
X16499634Y-10079160D01*
X16499634Y-10079160D02*
X16490111Y-10069636D01*
X16490111Y-10069636D02*
X16480587Y-10050589D01*
X16480587Y-10050589D02*
X16480587Y-9993446D01*
X16480587Y-9993446D02*
X16490111Y-9974398D01*
X16490111Y-9974398D02*
X16499634Y-9964874D01*
X16499634Y-9964874D02*
X16518682Y-9955351D01*
X16518682Y-9955351D02*
X16556777Y-9955351D01*
X16556777Y-9955351D02*
X16575825Y-9964874D01*
X16652015Y-10164874D02*
X16661539Y-10155351D01*
X16661539Y-10155351D02*
X16680587Y-10126779D01*
X16680587Y-10126779D02*
X16690111Y-10107732D01*
X16690111Y-10107732D02*
X16699634Y-10079160D01*
X16699634Y-10079160D02*
X16709158Y-10031541D01*
X16709158Y-10031541D02*
X16709158Y-9993446D01*
X16709158Y-9993446D02*
X16699634Y-9945827D01*
X16699634Y-9945827D02*
X16690111Y-9917255D01*
X16690111Y-9917255D02*
X16680587Y-9898208D01*
X16680587Y-9898208D02*
X16661539Y-9869636D01*
X16661539Y-9869636D02*
X16652015Y-9860112D01*
M02*
